SplineFontDB: 3.0
FontName: DrugulinCLM-Bold
FullName: Drugulin CLM Bold
FamilyName: Drugulin CLM
Weight: Bold
Copyright: Additions copyright Marc Trius (derpayatz@jews.international).\n\nCopyright .51 2002-2004 by Maxim Iorsh (iorsh@math.technion.ac.il). Distributed under the terms of GNU General Public License version 2(http://www.gnu.org/licenses/gpl.html). \nLatin glyphs, digits and punctuation Copyright (URW)++,Copyright 1999 by (URW)++ Design & Development.\nAll rights reserved.
Version: 0.2
ItalicAngle: 0
UnderlinePosition: -100
UnderlineWidth: 50
Ascent: 960
Descent: 240
InvalidEm: 0
LayerCount: 3
Layer: 0 0 "Back" 1
Layer: 1 0 "Fore" 0
Layer: 2 0 "Back 2" 1
UniqueID: 4000680
StyleMap: 0x0000
FSType: 0
OS2Version: 0
OS2_WeightWidthSlopeOnly: 0
OS2_UseTypoMetrics: 0
CreationTime: 1287597787
ModificationTime: 1537590016
OS2TypoAscent: 0
OS2TypoAOffset: 1
OS2TypoDescent: 0
OS2TypoDOffset: 1
OS2TypoLinegap: 108
OS2WinAscent: 0
OS2WinAOffset: 1
OS2WinDescent: 0
OS2WinDOffset: 1
HheadAscent: 0
HheadAOffset: 1
HheadDescent: 0
HheadDOffset: 1
OS2Vendor: 'PfEd'
Lookup: 258 0 0 "'kern' Horizontal Kerning lookup 0" { "'kern' Horizontal Kerning lookup 0 subtable"  } ['kern' ('DFLT' <'dflt' > ) ]
Lookup: 258 0 0 "'kern' Horizontal Kerning in Latin lookup 0" { "'kern' Horizontal Kerning in Latin lookup 0 subtable"  } ['kern' ('latn' <'dflt' > ) ]
MarkAttachClasses: 1
DEI: 91125
Encoding: UnicodeFull
Compacted: 1
UnicodeInterp: none
NameList: AGL For New Fonts
DisplaySize: -36
AntiAlias: 1
FitToEm: 0
WinInfo: 30 30 9
BeginPrivate: 7
BlueValues 31 [-20 0 461 481 600 650 676 696]
BlueScale 8 0.039625
StdHW 4 [33]
StdVW 5 [140]
StemSnapH 200 [33 44 48 55 66 73] 
systemdict /internaldict known
{1183615869 systemdict /internaldict get exec
/StemSnapLength 2 copy known { get 6 lt } { pop pop true } ifelse }
{ true } ifelse { pop [33 66] } if
StemSnapV 208 [118 140 148 163 174 178] 
systemdict /internaldict known
{1183615869 systemdict /internaldict get exec

StartChar: .notdef
Encoding: 1114112 -1 0
Width: 700
HStem: -100 60<140 560> 640 60<140 560>
VStem: 80 60<-40 640> 560 60<-40 640>
LayerCount: 3
Fore
SplineSet
80 700 m 1
 620 700 l 1
 620 -100 l 1
 80 -100 l 1
 80 700 l 1
140 640 m 1
 140 -40 l 1
 560 -40 l 1
 560 640 l 1
 140 640 l 1
EndSplineSet
Validated: 1
EndChar

StartChar: exclam
Encoding: 33 33 2
Width: 296
VWidth: 1000
Flags: W
HStem: -15 187<85.9756 214.75>
VStem: 57 187<15.3658 143.024 507.632 712.207> 124 53<228 451.122>
LayerCount: 3
Fore
SplineSet
150 172 m 0xc0
 202 172 244 130 244 79 c 0
 244 26 202 -15 149 -15 c 0
 99 -15 57 28 57 79 c 0
 57 130 99 172 150 172 c 0xc0
177 228 m 1xa0
 124 228 l 1xa0
 118 373 111 416 71 548 c 0
 62 578 57 611 57 637 c 0
 57 700 91 737 150 737 c 0
 210 737 244 700 244 637 c 0xc0
 244 598 242 589 210 479 c 0
 191 415 181 337 177 228 c 1xa0
EndSplineSet
Validated: 1
EndChar

StartChar: quotedbl
Encoding: 34 34 3
Width: 333
VWidth: 1000
Flags: W
HStem: 416 321<33 79 255 301>
VStem: -12 136<515.234 722.792> 33 46<416 459.8> 210 136<515.234 722.792> 255 46<416 459.8>
LayerCount: 3
Fore
SplineSet
301 416 m 1x88
 255 416 l 1x88
 213 635 l 2
 211 647 210 658 210 668 c 0
 210 708 239 737 278 737 c 0
 318 737 346 708 346 667 c 0x90
 346 658 345 647 343 635 c 2
 301 416 l 1x88
79 416 m 1xa0
 33 416 l 1xa0
 -9 635 l 2
 -11 647 -12 658 -12 668 c 0
 -12 708 17 737 56 737 c 0
 95 737 124 708 124 667 c 0xc0
 124 658 123 647 121 635 c 2
 79 416 l 1xa0
EndSplineSet
Validated: 1
EndChar

StartChar: numbersign
Encoding: 35 35 4
Width: 574
VWidth: 1000
Flags: W
HStem: 0 21G<103 195.909 279 371.909> 220 83<41 135 237 311 413 507> 411 83<67 163 264 338 440 533>
LayerCount: 3
Fore
SplineSet
253 411 m 1
 237 303 l 1
 322 303 l 1
 338 411 l 1
 253 411 l 1
135 220 m 1
 41 220 l 1
 41 303 l 1
 147 303 l 1
 163 411 l 1
 67 411 l 1
 67 494 l 1
 174 494 l 1
 204 700 l 1
 294 700 l 1
 264 494 l 1
 350 494 l 1
 379 700 l 1
 469 700 l 1
 440 494 l 1
 533 494 l 1
 533 411 l 1
 428 411 l 1
 413 303 l 1
 507 303 l 1
 507 220 l 1
 401 220 l 1
 369 0 l 1
 279 0 l 1
 311 220 l 1
 225 220 l 1
 193 0 l 1
 103 0 l 1
 135 220 l 1
EndSplineSet
Validated: 1
EndChar

StartChar: dollar
Encoding: 36 36 5
Width: 574
VWidth: 1000
Flags: W
HStem: -12 56<164.631 261 319 387.719> 467 21G<429.5 476.5> 645 54<194.99 261 319 394.033>
VStem: 25 125<74.9675 187.582> 45 120<433 582.94> 261 58<-137 -12 44 261 451 645 697.779 801> 398 140<514.75 626.168> 424 125<102.808 217.955>
LayerCount: 3
Fore
SplineSet
319 261 m 1xe5
 319 44 l 1
 339 46 350 49 362 54 c 0
 400 69 424 107 424 149 c 0
 424 204 395 238 329 258 c 2
 319 261 l 1xe5
261 451 m 1
 261 645 l 1
 196 634 165 603 165 549 c 0xec
 165 502 192 472 248 455 c 2
 261 451 l 1
319 433 m 1
 345 425 l 2
 489 381 549 318 549 211 c 0
 549 86 466 5 319 -12 c 1
 319 -137 l 1
 261 -137 l 1
 261 -14 l 1
 238 -12 224 -11 206 -7 c 0
 89 16 25 73 25 153 c 0
 25 208 60 247 111 247 c 0
 157 247 192 216 192 174 c 0
 192 147 178 116 157 100 c 0
 152 95 150 93 150 89 c 0xf5
 150 67 202 45 261 41 c 1
 261 279 l 1
 227 290 l 2
 100 329 45 386 45 480 c 0
 45 565 91 638 168 675 c 0
 194 688 213 693 261 699 c 1
 261 801 l 1
 319 801 l 1
 319 700 l 1
 453 691 538 636 538 557 c 0
 538 504 502 467 451 467 c 0
 408 467 375 498 375 538 c 0
 375 556 381 575 392 592 c 0
 397 599 398 601 398 607 c 0xee
 398 627 370 641 319 646 c 1
 319 433 l 1
EndSplineSet
Validated: 1
EndChar

StartChar: percent
Encoding: 37 37 6
Width: 833
VWidth: 1000
Flags: W
HStem: 0 21G<186 248.468> 14 47<578.453 681.213> 315 47<129.076 233.078> 355 52<673.897 766.367> 594 47<368.044 532.897>
VStem: 17 104<369.03 504.216> 330 40<488.474 602.574> 466 103<67.4316 201.386> 781 40<190.025 336.009>
LayerCount: 3
Fore
SplineSet
724 355 m 0x5f80
 696 355 670 334 641 285 c 0
 590 201 569 151 569 114 c 0
 569 84 591 61 620 61 c 0
 697 61 781 175 781 279 c 0
 781 321 756 355 724 355 c 0x5f80
699 407 m 0
 770 407 821 355 821 283 c 0
 821 223 791 147 745 89 c 0
 707 41 655 14 601 14 c 0
 522 14 466 66 466 140 c 0
 466 197 493 266 535 319 c 0
 582 376 639 407 699 407 c 0
266 658 m 1
 229 645 217 633 181 569 c 0
 137 491 121 451 121 416 c 0
 121 384 142 362 172 362 c 0x2f80
 248 362 330 476 330 581 c 0
 330 595 328 606 324 620 c 1
 298 629 283 639 266 658 c 1
651 722 m 1
 237 0 l 1
 186 0 l 1xaf80
 535 612 l 1
 493 598 469 594 432 594 c 0
 407 594 393 596 367 603 c 1
 369 588 370 581 370 572 c 0
 370 515 341 443 299 392 c 0
 255 339 207 315 150 315 c 0
 73 315 17 369 17 443 c 0
 17 512 63 603 123 656 c 0
 163 689 208 708 252 708 c 0
 293 708 320 695 346 660 c 1
 373 647 401 641 438 641 c 0
 512 641 561 664 605 722 c 1
 651 722 l 1
EndSplineSet
Validated: 1
EndChar

StartChar: ampersand
Encoding: 38 38 7
Width: 852
VWidth: 1000
Flags: W
HStem: -16 83<231.5 407.629> -15 108<607 734.785> 354 54<524 607.29 709.931 797> 685 52<358.442 466.737>
VStem: 39 170<164.967 274.752> 202 140<518.459 642.79> 490 110<515.002 662.394> 772 50<115.719 167.848>
LayerCount: 3
Fore
SplineSet
397 464 m 1x37
 461 492 490 531 490 589 c 0
 490 645 457 685 412 685 c 0
 372 685 342 653 342 610 c 0
 342 572 357 533 397 464 c 1x37
265 357 m 1
 228 334 209 301 209 258 c 0
 209 231 217 201 232 171 c 0
 266 102 314 67 374 67 c 0xbb
 399 67 416 72 440 89 c 1
 366 179 308 268 265 357 c 1
797 408 m 1
 797 354 l 1
 727 352 703 336 664 260 c 0
 637 211 629 197 601 159 c 1
 635 114 667 93 703 93 c 0
 737 93 761 122 772 177 c 1
 822 166 l 1
 818 129 809 103 792 74 c 0
 754 11 708 -15 638 -15 c 0x77
 576 -15 524 7 480 51 c 1
 417 5 350 -16 269 -16 c 0
 194 -16 132 6 93 47 c 0
 58 84 39 130 39 179 c 0xbb
 39 254 80 319 158 365 c 0
 183 380 203 390 241 407 c 1
 212 466 202 503 202 551 c 0xb7
 202 600 225 651 261 684 c 0
 300 719 353 737 419 737 c 0
 527 737 600 680 600 594 c 0
 600 551 579 510 543 481 c 0
 511 456 486 442 425 417 c 1
 476 330 541 232 565 206 c 1
 599 248 613 277 613 305 c 0
 613 339 587 353 524 354 c 1
 524 408 l 1
 797 408 l 1
EndSplineSet
Validated: 1
EndChar

StartChar: quotesingle
Encoding: 39 39 8
Width: 241
VWidth: 1000
Flags: W
HStem: 416 321<97 143>
VStem: 52 136<515.234 722.792> 97 46<416 459.8>
LayerCount: 3
Fore
SplineSet
143 416 m 1xa0
 97 416 l 1xa0
 55 635 l 2
 53 647 52 658 52 668 c 0
 52 708 81 737 120 737 c 0
 159 737 188 708 188 667 c 0xc0
 188 658 187 647 185 635 c 2
 143 416 l 1xa0
EndSplineSet
Validated: 1
EndChar

StartChar: parenleft
Encoding: 40 40 9
Width: 389
VWidth: 1000
Flags: W
VStem: 72 125<155.018 465.263>
LayerCount: 3
Fore
SplineSet
338 -68 m 1
 338 -118 l 1
 265 -80 220 -43 173 17 c 0
 107 101 72 203 72 310 c 0
 72 424 113 533 188 621 c 0
 233 673 271 702 338 737 c 1
 338 687 l 1
 283 648 259 618 236 558 c 0
 210 492 197 408 197 310 c 0
 197 200 213 108 244 41 c 0
 266 -7 289 -33 338 -68 c 1
EndSplineSet
Validated: 1
EndChar

StartChar: parenright
Encoding: 41 41 10
Width: 389
VWidth: 1000
Flags: W
VStem: 191 125<153.849 464.102>
LayerCount: 3
Fore
SplineSet
50 687 m 1
 50 737 l 1
 123 699 168 663 215 602 c 0
 281 518 316 416 316 310 c 0
 316 195 275 86 200 -2 c 0
 155 -54 117 -83 50 -118 c 1
 50 -68 l 1
 105 -30 129 1 152 61 c 0
 178 127 191 211 191 310 c 0
 191 419 175 511 144 578 c 0
 122 626 99 652 50 687 c 1
EndSplineSet
Validated: 1
EndChar

StartChar: asterisk
Encoding: 42 42 11
Width: 500
VWidth: 1000
Flags: W
HStem: 384 104<89.6022 152 354.468 435.066> 548 102<65.9668 151.285 350.874 437.29>
VStem: 203 96<302.849 423.396 611.696 731.151> 239 25<417.976 495 539 617.169>
LayerCount: 3
Fore
SplineSet
239 495 m 1xd0
 222 486 l 2
 194 468 186 459 159 419 c 0
 144 396 125 384 103 384 c 0
 77 384 56 404 56 430 c 0
 56 451 69 470 89 479 c 0
 102 484 105 485 144 488 c 0
 169 489 188 495 210 508 c 2
 226 517 l 1
 210 526 l 2
 180 543 171 545 120 548 c 0
 81 551 56 573 56 604 c 0
 56 630 77 650 103 650 c 0
 130 650 142 641 172 596 c 0
 186 575 200 562 223 549 c 2
 239 539 l 1
 239 558 l 2xd0
 238 593 235 601 213 647 c 0
 206 660 203 673 203 684 c 0xe0
 203 713 225 737 251 737 c 0
 279 737 300 713 300 684 c 0
 300 669 299 665 280 625 c 0
 268 602 264 584 264 558 c 2
 264 539 l 1
 280 549 l 2
 310 567 316 573 344 615 c 0
 360 639 378 650 400 650 c 0
 426 650 447 630 447 604 c 0
 447 583 435 565 414 555 c 0
 403 550 400 550 359 546 c 0
 333 544 316 539 293 527 c 2
 277 517 l 1
 293 508 l 2
 324 491 334 488 383 486 c 0
 421 483 447 461 447 429 c 0
 447 405 427 386 402 386 c 0
 375 386 364 395 331 439 c 0
 317 459 302 473 280 485 c 2
 264 495 l 1
 264 476 l 2xd0
 265 442 268 432 290 387 c 0
 296 374 299 362 299 350 c 0
 299 320 278 297 251 297 c 0
 224 297 203 321 203 350 c 0xe0
 203 365 205 370 223 409 c 0
 234 432 238 450 239 476 c 2
 239 495 l 1xd0
EndSplineSet
Validated: 1
EndChar

StartChar: plus
Encoding: 43 43 12
Width: 606
VWidth: 1000
Flags: W
HStem: 0 21G<246 361> 195 115<51 246 361 555>
VStem: 246 115<0 195 310 505>
LayerCount: 3
Fore
SplineSet
246 195 m 1
 51 195 l 1
 51 310 l 1
 246 310 l 1
 246 505 l 1
 361 505 l 1
 361 310 l 1
 555 310 l 1
 555 195 l 1
 361 195 l 1
 361 0 l 1
 246 0 l 1
 246 195 l 1
EndSplineSet
Validated: 1
EndChar

StartChar: comma
Encoding: 44 44 13
Width: 278
VWidth: 1000
Flags: W
HStem: -10 183<70.266 137.799>
VStem: 139 97<-48.2531 88.5>
LayerCount: 3
Fore
SplineSet
67 -186 m 1
 40 -145 l 1
 102 -102 139 -54 139 -16 c 0
 139 -12 138 -10 135 -10 c 2
 131 -10 l 2
 128 -11 125 -11 122 -11 c 0
 75 -11 39 26 39 75 c 0
 39 130 81 173 135 173 c 0
 195 173 236 124 236 53 c 0
 236 -37 178 -119 67 -186 c 1
EndSplineSet
Validated: 1
EndChar

StartChar: hyphen
Encoding: 45 45 14
Width: 333
VWidth: 1000
Flags: W
HStem: 180 130<42 291>
VStem: 42 249<180 310>
LayerCount: 3
Fore
SplineSet
42 310 m 1
 291 310 l 1
 291 180 l 1
 42 180 l 1
 42 310 l 1
EndSplineSet
Validated: 1
EndChar

StartChar: period
Encoding: 46 46 15
Width: 278
VWidth: 1000
Flags: W
HStem: -15 188<74.1127 203.75>
VStem: 45 188<14.499 143.887>
LayerCount: 3
Fore
SplineSet
139 173 m 0
 191 173 233 131 233 79 c 0
 233 27 191 -15 138 -15 c 0
 87 -15 45 28 45 79 c 0
 45 131 87 173 139 173 c 0
EndSplineSet
Validated: 1
EndChar

StartChar: slash
Encoding: 47 47 16
Width: 278
VWidth: 1000
Flags: W
HStem: -15 21G<-23 57.6755>
VStem: -23 325
LayerCount: 3
Fore
SplineSet
228 737 m 1
 302 737 l 1
 51 -15 l 1
 -23 -15 l 1
 228 737 l 1
EndSplineSet
Validated: 1
EndChar

StartChar: zero
Encoding: 48 48 17
Width: 574
VWidth: 1000
Flags: W
HStem: -14 52<232.715 336.06> 656 52<232.783 336.818>
VStem: 27 172<185.803 508.601> 372 174<184.163 512.058>
LayerCount: 3
Fore
SplineSet
286 656 m 0
 251 656 227 635 216 595 c 0
 207 561 199 452 199 347 c 0
 199 227 207 121 220 88 c 0
 232 55 255 38 286 38 c 0
 320 38 344 59 355 99 c 0
 364 133 372 241 372 344 c 0
 372 468 364 573 351 606 c 0
 340 638 316 656 286 656 c 0
287 708 m 0
 354 708 413 678 460 621 c 0
 519 547 546 460 546 342 c 0
 546 139 434 -14 287 -14 c 0
 137 -14 27 139 27 347 c 0
 27 555 137 708 287 708 c 0
EndSplineSet
Validated: 1
EndChar

StartChar: one
Encoding: 49 49 18
Width: 574
VWidth: 1000
Flags: W
HStem: 0 54<92 206.57 378.429 491> 583 56<83 210.984>
VStem: 214 157<69.4646 579.167>
LayerCount: 3
Fore
SplineSet
371 708 m 1
 371 144 l 2
 371 83 371 79 378 69 c 0
 387 58 406 54 459 54 c 2
 491 54 l 1
 491 0 l 1
 92 0 l 1
 92 54 l 1
 124 54 l 2
 178 54 198 58 207 69 c 0
 214 79 214 82 214 144 c 2
 214 499 l 2
 214.087056197 506.138608191 214.158954832 512.67091386 214.158954832 518.648379841 c 0
 214.158954832 581.333067227 206.251998427 583 125 583 c 2
 83 583 l 1
 83 639 l 1
 202 641 273 661 336 708 c 1
 371 708 l 1
EndSplineSet
Validated: 1
EndChar

StartChar: two
Encoding: 50 50 19
Width: 574
VWidth: 1000
Flags: W
HStem: 0 150<175 442.537> 651 57<170.579 322.199>
VStem: 41 103<471 598.777> 358 170<424.371 606.398> 477 54<227.818 266>
LayerCount: 3
Fore
SplineSet
477 266 m 1xe8
 531 266 l 1xe8
 508 -4 l 1
 478 -1 466 0 447 0 c 2
 71 0 l 2
 56 0 45 -1 19 -4 c 1
 19 43 l 1
 69 115 108 160 220 279 c 0
 326 392 358 451 358 534 c 0
 358 608 318 651 248 651 c 0
 198 651 144 617 144 585 c 0
 144 577 149 571 160 566 c 0
 206 544 225 519 225 476 c 0
 225 424 192 391 140 391 c 0
 80 391 41 436 41 506 c 0
 41 620 146 708 282 708 c 0
 423 708 528 627 528 520 c 0xf0
 528 473 508 420 474 375 c 0
 445 338 416 316 275 225 c 0
 236 199 210 180 175 150 c 1
 368 150 l 2
 431 151 433 151 443 158 c 0
 451 163 457 176 466 216 c 2
 477 266 l 1xe8
EndSplineSet
Validated: 1
EndChar

StartChar: three
Encoding: 51 51 20
Width: 574
VWidth: 1000
Flags: W
HStem: -14 52<164.944 310.652> 332 71<162.523 262.673> 338 54<198.513 321.213> 656 52<179.531 315.735>
VStem: 24 130<74.3064 191.025> 49 125<517 621.54> 350 162<444.526 619.087> 356 174<92.5581 290.319>
LayerCount: 3
Fore
SplineSet
351 368 m 1xb6
 404 361 427 354 456 338 c 0
 502 311 530 256 530 193 c 0
 530 129 500 68 454 36 c 0
 408 4 339 -14 266 -14 c 0
 122 -14 24 55 24 156 c 0
 24 212 60 251 114 251 c 0
 163 251 200 215 200 168 c 0
 200 139 193 126 163 98 c 0
 157 92 154 86 154 80 c 0
 154 59 198 38 240 38 c 0
 314 38 356 95 356 196 c 0
 356 290 325 338 263 338 c 0xb9
 256 338 250 337 227 335 c 0
 210 333 204 332 197 332 c 0
 176 332 161 347 161 370 c 0
 161 392 173 403 198 403 c 0xd9
 209 403 216 402 238 397 c 0
 254 393 264 392 272 392 c 0
 321 392 350 445 350 532 c 0
 350 610 313 656 250 656 c 0
 211 656 174 637 174 618 c 0
 174 614 176 611 181 606 c 0
 209 579 220 558 220 531 c 0
 220 484 187 452 139 452 c 0
 88 452 49 491 49 543 c 0
 49 581 69 623 102 652 c 0
 144 689 203 708 276 708 c 0
 418 708 512 637 512 531 c 0
 512 472 482 423 429 395 c 0
 407 384 390 378 351 368 c 1xb6
EndSplineSet
Validated: 1
EndChar

StartChar: four
Encoding: 52 52 21
Width: 574
VWidth: 1000
Flags: W
HStem: 0 54<195 281.615 453.338 536> 181 67<92 289 446 546>
VStem: 289 157<68.51 181 248 498>
LayerCount: 3
Fore
SplineSet
289 248 m 1
 289 498 l 1
 92 248 l 1
 289 248 l 1
446 248 m 1
 546 248 l 1
 546 181 l 1
 446 181 l 1
 446 144 l 2
 446 82 446 79 453 68 c 0
 460 59 481 55 525 54 c 2
 536 54 l 1
 536 0 l 1
 195 0 l 1
 195 54 l 1
 206 54 l 2
 253 54 274 58 282 68 c 0
 289 78 289 82 289 144 c 2
 289 181 l 1
 19 181 l 1
 19 255 l 1
 383 708 l 1
 452 708 l 1
 448 636 446 571 446 556 c 2
 446 248 l 1
EndSplineSet
Validated: 1
EndChar

StartChar: five
Encoding: 53 53 22
Width: 574
VWidth: 1000
Flags: W
HStem: -14 57<154.61 304.67> 392 68<169.949 313.71> 536 155<156.184 407.285>
VStem: 31 115<67.6329 182> 57 78<300.828 353.719> 357 178<120.946 338.204>
LayerCount: 3
Fore
SplineSet
83 380 m 1xec
 89 452 l 2
 101 616 101 624 106 708 c 1
 167 695 217 691 301 691 c 0
 381 691 446 696 482 705 c 0
 488 707 494 708 498 708 c 0
 503 708 506 704 506 697 c 0
 506 675 491 638 472 613 c 0
 435 564 366 536 283 536 c 0
 244 536 205 541 157 551 c 1
 142 422 l 1
 209 452 239 460 286 460 c 0
 430 460 535 364 535 234 c 0
 535 86 423 -14 259 -14 c 0
 121 -14 31 51 31 151 c 0
 31 213 69 253 127 253 c 0
 178 253 212 221 212 171 c 0
 212 137 198 118 158 99 c 0
 149 94 146 91 146 85 c 0xf4
 146 64 189 43 234 43 c 0
 314 43 357 107 357 229 c 0
 357 337 319 392 244 392 c 0
 202 392 164 379 133 354 c 1
 134 348 135 342 135 338 c 0
 135 316 116 298 94 298 c 0
 73 298 57 314 57 335 c 0
 57 351 60 356 83 380 c 1xec
EndSplineSet
Validated: 1
EndChar

StartChar: six
Encoding: 54 54 23
Width: 574
VWidth: 1000
Flags: W
HStem: -14 47<243.718 337.09> 352.104 74.896<247.465 346.863> 656 52<274.863 375.471>
VStem: 29 179<148.821 478.972> 375 174<116.218 323.392> 377 153<535.188 645.44>
LayerCount: 3
Fore
SplineSet
296 352 m 0xf8
 294.679368015 352.069506947 293.367190657 352.10398758 292.064013607 352.10398758 c 0
 255.869440734 352.10398758 226.617711794 325.505600649 216 284 c 0
 211 261 208 230 208 194 c 0
 208 91 239 33 293 33 c 0
 346 33 375 96 375 212 c 0
 375 302 348 350 296 352 c 0xf8
202 361 m 1
 244 409 283 427 348 427 c 0
 467 427 549 343 549 223 c 0xf8
 549 85 442 -14 295 -14 c 0
 213 -14 146 17 97 77 c 0
 50 135 29 206 29 306 c 0
 29 425 56 517 115 594 c 0
 173 671 247 708 343 708 c 0
 457 708 530 654 530 568 c 0
 530 513 494 478 437 478 c 0
 385 478 349 510 349 555 c 0
 349 575 356 597 369 614 c 0
 376 623 377 626 377 633 c 0xf4
 377 647 359 656 334 656 c 0
 283 656 245 612 222 530 c 0
 212 489 202 409 202 361 c 1
EndSplineSet
Validated: 1
EndChar

StartChar: seven
Encoding: 55 55 24
Width: 574
VWidth: 1000
Flags: W
HStem: -14 21G<251 310.5> 549 145<133.112 432.878>
VStem: 45 55<408.084 440.8> 187 190.966<14.375 184.449>
LayerCount: 3
Fore
SplineSet
546 708 m 1
 546 666 l 1
 400.353533381 356.134698535 377.965623934 284.187077194 377.965623934 108.317718683 c 0
 377.965623934 104.268298343 377.977493065 100.163783057 378 96 c 0
 378 25 342 -14 279 -14 c 0
 223 -14 187 24 187 84 c 0
 187 115 195 148 215 192 c 0
 239 247 239 247 317 369 c 2
 367 447 l 1
 435 548 l 1
 396 547 l 2
 346 546 313 545 303 545 c 0
 279 545 217 547 189 548 c 0
 182 549 176 549 172 549 c 0
 136 549 129 536 110 448 c 2
 100 403 l 1
 45 409 l 1
 79 708 l 1
 187 696 224 694 319 694 c 0
 423 694 479 697 546 708 c 1
EndSplineSet
Validated: 1
EndChar

StartChar: eight
Encoding: 56 56 25
Width: 574
VWidth: 1000
Flags: W
HStem: -14 52<202.78 374.156> 656 52<214.155 361.359>
VStem: 27 130<82.4173 250.002> 49 130<454.168 597.808> 396 125<473.291 620.904> 422 124<109.581 220.523>
LayerCount: 3
Fore
SplineSet
219 289 m 1xe4
 174 253 157 219 157 166 c 0
 157 86 206 38 287 38 c 0
 366 38 422 87 422 155 c 0
 422 206 398 233 335 255 c 0
 310 263 260 278 219 289 c 1xe4
347 432 m 1
 379 459 396 497 396 542 c 0
 396 612 354 656 287 656 c 0
 225 656 179 615 179 560 c 0xd8
 179 516 209 475 255 458 c 0
 274 451 305 442 347 432 c 1
403 411 m 1
 500 371 546 309 546 215 c 0
 546 78 437 -14 276 -14 c 0
 124 -14 27 55 27 163 c 0xe4
 27 221 54 267 104 293 c 0
 121 302 134 306 165 316 c 1
 86 358 49 416 49 495 c 0
 49 625 149 708 304 708 c 0
 434 708 521 646 521 554 c 0
 521 507 499 466 460 439 c 0
 446 429 432 422 403 411 c 1
EndSplineSet
Validated: 1
EndChar

StartChar: nine
Encoding: 57 57 26
Width: 574
VWidth: 1000
Flags: W
HStem: -14 52<199.155 301.374> 263 75<166 322.424> 656 52<232.59 332.163>
VStem: 25 173<367.252 578.835> 45 153<43.3003 158.023> 365 180<211.418 537.359>
LayerCount: 3
Fore
SplineSet
283 656 m 0xf4
 227 656 198 600 198 491 c 0
 198 441 203 406 215 381 c 0
 227 355 254 338 282 338 c 0
 333 338 365 394 365 482 c 0
 365 529 356 582 343 611 c 0
 331 640 309 656 283 656 c 0xf4
369 329 m 1
 327 282 285 263 223 263 c 0
 109 263 25 350 25 468 c 0xf4
 25 607 130 708 275 708 c 0
 359 708 432 671 483 603 c 0
 525 546 545 478 545 386 c 0
 545 276 519 181 470 107 c 0
 417 28 334 -14 231 -14 c 0
 118 -14 45 36 45 114 c 0
 45 172 85 214 140 214 c 0
 190 214 224 181 224 133 c 0
 224 111 222 105 204 76 c 0
 200 70 198 64 198 58 c 0xec
 198 45 210 38 231 38 c 0
 289 38 325 71 349 143 c 0
 363 190 369 242 369 329 c 1
EndSplineSet
Validated: 1
EndChar

StartChar: colon
Encoding: 58 58 27
Width: 278
VWidth: 1000
Flags: W
HStem: -15 187<85.9756 214.75> 294 187<85.9756 214.75>
VStem: 57 187<15.3658 143.024 324.366 452.024>
LayerCount: 3
Fore
SplineSet
150 481 m 0
 202 481 244 439 244 388 c 0
 244 335 202 294 149 294 c 0
 99 294 57 337 57 388 c 0
 57 439 99 481 150 481 c 0
150 172 m 0
 202 172 244 130 244 79 c 0
 244 26 202 -15 149 -15 c 0
 99 -15 57 28 57 79 c 0
 57 130 99 172 150 172 c 0
EndSplineSet
Validated: 1
EndChar

StartChar: semicolon
Encoding: 59 59 28
Width: 278
VWidth: 1000
Flags: W
HStem: -10 184<78.266 145.799> 294 187<80.9756 209.75>
VStem: 47 197<12.2016 138.482 329.507 445.264> 147 97<-46.908 89>
LayerCount: 3
Fore
SplineSet
145 481 m 0xc0
 197 481 239 439 239 388 c 0
 239 335 197 294 144 294 c 0
 94 294 52 337 52 388 c 0
 52 439 94 481 145 481 c 0xc0
75 -186 m 1
 48 -145 l 1
 110 -102 147 -54 147 -16 c 0xd0
 147 -12 146 -10 143 -10 c 2
 139 -10 l 2
 136 -11 133 -11 130 -11 c 0
 83 -11 47 26 47 75 c 0
 47 131 89 174 143 174 c 0
 203 174 244 125 244 53 c 0xe0
 244 -36 186 -118 75 -186 c 1
EndSplineSet
Validated: 1
EndChar

StartChar: less
Encoding: 60 60 29
Width: 606
VWidth: 1000
Flags: W
HStem: 610 20G<514.121 558>
LayerCount: 3
Fore
SplineSet
558 505 m 1
 230 354 l 1
 558 202 l 1
 558 76 l 1
 49 308 l 1
 49 398 l 1
 558 630 l 1
 558 505 l 1
EndSplineSet
Validated: 1
EndChar

StartChar: equal
Encoding: 61 61 30
Width: 606
VWidth: 1000
Flags: W
HStem: 92 115<51 555> 298 115<51 555>
LayerCount: 3
Fore
SplineSet
51 298 m 1
 51 413 l 1
 555 413 l 1
 555 298 l 1
 51 298 l 1
51 92 m 1
 51 207 l 1
 555 207 l 1
 555 92 l 1
 51 92 l 1
EndSplineSet
Validated: 1
EndChar

StartChar: greater
Encoding: 62 62 31
Width: 606
VWidth: 1000
Flags: W
HStem: 610 20G<48 91.8793>
LayerCount: 3
Fore
SplineSet
48 505 m 1
 48 630 l 1
 557 398 l 1
 557 308 l 1
 48 76 l 1
 48 202 l 1
 376 354 l 1
 48 505 l 1
EndSplineSet
Validated: 1
EndChar

StartChar: question
Encoding: 63 63 32
Width: 500
VWidth: 1000
Flags: W
HStem: -15 188<164.113 293.75> 680 57<155.086 273.022>
VStem: 23 130<554 658.185> 135 188<14.499 143.887> 197 57<228 319.362> 300 176<469.517 649.218>
LayerCount: 3
Fore
SplineSet
229 173 m 0xd0
 281 173 323 131 323 79 c 0
 323 27 281 -15 228 -15 c 0
 177 -15 135 28 135 79 c 0
 135 131 177 173 229 173 c 0xd0
254 228 m 1xec
 200 228 l 1
 198 244 197 260 197 270 c 0
 197 315 205 335 260 433 c 0
 285 478 300 529 300 570 c 0
 300 641 266 680 206 680 c 0
 175 680 153 670 153 655 c 0
 153 648 153 648 172 633 c 0
 193 618 204 595 204 569 c 0
 204 521 169 488 118 488 c 0
 63 488 23 527 23 581 c 0
 23 673 116 737 248 737 c 0
 388 737 476 668 476 559 c 0
 476 511 456 465 421 435 c 0
 414 429 405 422 328 363 c 0
 267 315 257 298 254 228 c 1xec
EndSplineSet
Validated: 1
EndChar

StartChar: at
Encoding: 64 64 33
Width: 747
VWidth: 1000
Flags: W
HStem: -15 61<269.908 510.472> 145 52<270.26 358.59> 148 61<456.5 576.431> 521 52<354.144 448.141> 676 61<262.379 510.022>
VStem: 24 64<231.851 493.895> 160 103<203.573 381.051> 658 64<308.24 533.682>
LayerCount: 3
Fore
SplineSet
406 521 m 0xdf
 375 521 347 498 320 448 c 0
 285 386 263 312 263 256 c 0
 263 218 279 197 309 197 c 0
 341 197 370 225 393 280 c 0
 420 343 453 450 453 476 c 0
 453 501 432 521 406 521 c 0xdf
644 190 m 1
 713 190 l 1
 698 153 681 130 649 98 c 0
 573 21 488 -15 387 -15 c 0
 185 -15 24 152 24 362 c 0
 24 570 186 737 389 737 c 0
 574 737 722 599 722 426 c 0
 722 281 606 148 480 148 c 0xbf
 433 148 403 170 403 204 c 0
 403 207 404 213 405 220 c 1
 378 169 342 145 292 145 c 0xdf
 217 145 160 210 160 294 c 0
 160 358 186 431 228 488 c 0
 268 542 326 573 385 573 c 0
 429 573 453 559 478 522 c 1
 490 556 l 1
 594 556 l 1
 502 268 l 2
 498 253 495 240 495 231 c 0
 495 216 503 209 519 209 c 0xbf
 538 209 560 219 583 238 c 0
 632 280 658 343 658 419 c 0
 658 569 545 676 388 676 c 0
 216 676 88 544 88 366 c 0
 88 184 218 46 389 46 c 0
 496 46 586 97 644 190 c 1
EndSplineSet
Validated: 1
EndChar

StartChar: A
Encoding: 65 65 34
Width: 759
VWidth: 1000
Flags: W
HStem: 0 54<-18 45.0921 186.869 271 427 501.99 703.626 778> 218 67<229 427>
LayerCount: 3
Fore
SplineSet
330 524 m 1
 229 285 l 1
 427 285 l 1
 330 524 l 1
351 737 m 1
 427 737 l 1
 684 117 l 2
 705 66 721 56 778 54 c 1
 778 0 l 1
 427 0 l 1
 427 54 l 1
 444 55 l 2
 488 55 502 61 502 79 c 0
 502 87 501 92 490 120 c 2
 452 218 l 1
 203 218 l 1
 187 180 l 2
 176 156 172 140 172 123 c 0
 172 77 200 58 271 54 c 1
 271 0 l 1
 -18 0 l 1
 -18 54 l 1
 41 60 78 99 124 207 c 2
 351 737 l 1
EndSplineSet
Validated: 1
EndChar

StartChar: B
Encoding: 66 66 35
Width: 778
VWidth: 1000
Flags: W
HStem: 0 54<17 113.57 302.44 491.219> 343 55<301 467.85> 668 54<17 113.571 304.601 478.455>
VStem: 121 180<69.4639 343 398 653.49> 522 181<462.269 625.907> 545 191<107.959 277.887>
LayerCount: 3
Fore
SplineSet
301 343 m 1xf4
 301 118 l 2
 300.802444246 112.468438884 300.682945044 107.424731218 300.682945044 102.824543004 c 0
 300.682945044 60.8536937512 310.630338993 55.8024442459 362 54 c 2
 392 54 l 2
 440 54 473 64 498 84 c 0
 527 108 545 152 545 200 c 0
 545 252 525 296 490 319 c 0
 462 337 433 343 370 343 c 2
 301 343 l 1xf4
301 398 m 1
 350 398 l 2
 412 398 446 406 473 428 c 0
 505 453 522 492 522 541 c 0xf8
 522 624 475 668 387 668 c 2
 357 668 l 2
 315.678655717 666.121757078 300.815784988 653.660124735 300.815784988 617.362985455 c 0
 300.815784988 615.010023776 300.878242922 612.556898639 301 610 c 2
 301 398 l 1
17 722 m 1
 403 722 l 2
 521 722 569 713 624 682 c 0
 673 655 703 602 703 545 c 0xf8
 703 485 671 437 611 408 c 0
 583 395 555 388 506 380 c 1
 559 373 588 365 622 349 c 0
 696 315 736 260 736 190 c 0xf4
 736 122 694 59 631 31 c 0
 579 8 526 0 422 0 c 2
 17 0 l 1
 17 54 l 1
 32 54 l 2
 85 54 105 58 114 69 c 0
 121 79 121 82 121 144 c 2
 121 578 l 2
 121 640 121 643 114 654 c 0
 105 664 86 668 32 668 c 2
 17 668 l 1
 17 722 l 1
EndSplineSet
Validated: 1
EndChar

StartChar: C
Encoding: 67 67 36
Width: 778
VWidth: 1000
Flags: W
HStem: -15 62<342.122 538.941> 685 52<336.962 522.88>
VStem: 40 199<203.93 500.202> 655 53<447 519.199> 661 62<186.934 252.032>
LayerCount: 3
Fore
SplineSet
698 733 m 1xf0
 708 447 l 1
 655 441 l 1xf0
 610 608 537 685 426 685 c 0
 303 685 239 578 239 370 c 0
 239 150 303 47 439 47 c 0
 554 47 634 126 661 265 c 1
 723 250 l 1xe8
 684 70 583 -15 406 -15 c 0
 288 -15 204 19 135 95 c 0
 70 166 40 248 40 352 c 0
 40 461 73 550 141 622 c 0
 213 699 306 737 418 737 c 0
 490 737 535 724 601 684 c 1
 655 733 l 1
 698 733 l 1xf0
EndSplineSet
Validated: 1
EndChar

StartChar: D
Encoding: 68 68 37
Width: 833
VWidth: 1000
Flags: W
HStem: 0 54<19 115.57 306.644 490.696> 668 54<19 115.57 306.033 492.891>
VStem: 123 180<69.4639 652.536> 594 199<211.832 521.881>
LayerCount: 3
Fore
SplineSet
363 54 m 2
 384 54 l 2
 451 54 510 80 541 122 c 0
 573 167 594 264 594 371 c 0
 594 571 527 668 388 668 c 2
 363 668 l 2
 316.376040316 666.135041613 302.793743605 655.574908759 302.793743605 616.860235178 c 0
 302.793743605 614.056906166 302.864958387 611.105957091 303 608 c 2
 303 119 l 2
 303 65 312 55 363 54 c 2
19 0 m 1
 19 54 l 1
 34 54 l 2
 87 54 107 58 116 69 c 0
 123 79 123 82 123 144 c 2
 123 578 l 2
 123 640 123 643 116 653 c 0
 107 664 87 668 34 668 c 2
 19 668 l 1
 19 722 l 1
 375 722 l 2
 516 722 589 708 650 668 c 0
 744 606 793 504 793 369 c 0
 793 232 744 124 655 62 c 0
 593 18 513 0 387 0 c 2
 19 0 l 1
EndSplineSet
Validated: 1
EndChar

StartChar: E
Encoding: 69 69 38
Width: 759
VWidth: 1000
Flags: W
HStem: 0 54<16 112.57 306.891 528.84> 346 55<300 399.982> 462 21G<620 693> 668 54<16 112.57 307.908 525.763>
VStem: 120 180<69.4639 346 401 652.536> 455 54<204 286.543 460.457 543> 641 52<462 536.083> 654 53<195.4 269>
LayerCount: 3
Fore
SplineSet
687 722 m 1xfd
 693 462 l 1
 641 462 l 1xfe
 599 611 539 665 414 668 c 2
 386 668 l 2
 316.283989485 667.05789175 299.822056276 653.689832128 299.822056276 593.612232317 c 0
 299.822056276 589.920514963 299.8842165 586.052422486 300 582 c 2
 300 401 l 1
 317 401 l 2
 396 401 444 451 455 543 c 1
 509 543 l 1
 509 204 l 1
 455 204 l 1
 444 296 396 346 317 346 c 2
 300 346 l 1
 300 125 l 2
 299.059311902 69.4994021949 314.931611674 53.8190388203 377.5836358 53.8190388203 c 0
 381.533946957 53.8190388203 385.670231183 53.8813761968 390 54 c 2
 420 54 l 2
 541 55 616 124 654 269 c 1
 707 269 l 1
 695 0 l 1
 16 0 l 1
 16 54 l 1
 31 54 l 2
 84 54 104 58 113 69 c 0
 120 79 120 82 120 144 c 2
 120 578 l 2
 120 640 120 643 113 653 c 0
 104 664 84 668 31 668 c 2
 16 668 l 1
 16 722 l 1
 687 722 l 1xfd
EndSplineSet
Validated: 33
EndChar

StartChar: F
Encoding: 70 70 39
Width: 722
VWidth: 1000
Flags: W
HStem: 0 54<22 118.57 313.43 422> 346 55<306 403.53> 462 21G<617 690> 668 54<22 118.57 313.908 522.763>
VStem: 126 180<69.4639 346 401 652.536> 461 54<204 286.295 460.014 543> 638 52<462 536.169>
LayerCount: 3
Fore
SplineSet
684 722 m 1
 690 462 l 1
 638 462 l 1
 596 611 536 666 411 668 c 2
 392 668 l 2
 322.283989485 667.05789175 305.822056276 653.689832128 305.822056276 593.612232317 c 0
 305.822056276 589.920514963 305.8842165 586.052422486 306 582 c 2
 306 401 l 1
 323 401 l 2
 402 401 450 450 461 543 c 1
 515 543 l 1
 515 204 l 1
 461 204 l 1
 450 296 402 345 323 346 c 2
 306 346 l 1
 306 144 l 2
 306 82 306 79 313 69 c 0
 322 58 342 54 396 54 c 2
 422 54 l 1
 422 0 l 1
 22 0 l 1
 22 54 l 1
 37 54 l 2
 90 54 110 58 119 69 c 0
 126 79 126 82 126 144 c 2
 126 578 l 2
 126 640 126 643 119 653 c 0
 110 664 90 668 37 668 c 2
 22 668 l 1
 22 722 l 1
 684 722 l 1
EndSplineSet
Validated: 1
EndChar

StartChar: G
Encoding: 71 71 40
Width: 833
VWidth: 1000
Flags: W
HStem: -15 52<330.876 502.756> 282 54<462 560.377 735.519 817> 685 52<346.678 538.135>
VStem: 39 200<201.162 500.794> 564 164<98.3926 266.582> 675 53<446 524.5>
LayerCount: 3
Fore
SplineSet
719 733 m 1xf4
 728 446 l 1
 675 446 l 1xf4
 642 598 555 685 437 685 c 0
 378 685 325 657 296 610 c 0
 259 550 239 462 239 356 c 0
 239 262 253 181 280 123 c 0
 305 69 355 37 416 37 c 0
 505 37 564 98 564 191 c 2
 564 206 l 2
 563 280 562 281 473 282 c 2
 462 282 l 1
 462 336 l 1
 817 336 l 1
 817 282 l 1
 761 281 746 278 735 267 c 0
 728 258 728 254 728 191 c 2xf8
 728 -14 l 1
 675 -14 l 1
 626 84 l 1
 596 54 580 41 555 26 c 0
 510 0 449 -15 388 -15 c 0
 181 -15 39 133 39 350 c 0
 39 460 70 544 137 616 c 0
 212 696 310 737 425 737 c 0
 498 737 546 723 616 683 c 1
 675 733 l 1
 719 733 l 1xf4
EndSplineSet
Validated: 1
EndChar

StartChar: H
Encoding: 72 72 41
Width: 870
VWidth: 1000
Flags: W
HStem: 0 54<20 116.57 311.43 409 461 557.57 752.43 850> 339 60<304 565> 668 54<20 116.57 311.43 409 461 557.57 752.431 850>
VStem: 124 180<69.4639 339 399 652.535> 565 180<69.4192 339 399 652.535>
LayerCount: 3
Fore
SplineSet
565 339 m 1
 304 339 l 1
 304 144 l 2
 304 82 304 79 311 69 c 0
 320 58 340 54 394 54 c 2
 409 54 l 1
 409 0 l 1
 20 0 l 1
 20 54 l 1
 35 54 l 2
 88 54 108 58 117 69 c 0
 124 79 124 82 124 144 c 2
 124 577 l 2
 124 639 124 643 117 653 c 0
 108 664 88 667 35 668 c 2
 20 668 l 1
 20 722 l 1
 409 722 l 1
 409 668 l 1
 394 668 l 2
 340 667 320 664 311 653 c 0
 304 643 304 639 304 577 c 2
 304 399 l 1
 565 399 l 1
 565 577 l 2
 565 640 565 643 558 653 c 0
 549 664 529 667 476 668 c 2
 461 668 l 1
 461 722 l 1
 850 722 l 1
 850 668 l 1
 835 668 l 2
 782 667 761 664 752 653 c 0
 745 643 745 639 745 577 c 2
 745 144 l 2
 745 83 745 78 752 69 c 0
 761 58 781 54 835 54 c 2
 850 54 l 1
 850 0 l 1
 461 0 l 1
 461 54 l 1
 476 54 l 2
 529 54 549 58 558 69 c 0
 565 78 565 82 565 144 c 2
 565 339 l 1
EndSplineSet
Validated: 1
EndChar

StartChar: I
Encoding: 73 73 42
Width: 444
VWidth: 1000
Flags: W
HStem: 0 54<28 124.57 319.43 417> 668 54<28 124.57 319.43 417>
VStem: 132 180<69.4639 652.536>
LayerCount: 3
Fore
SplineSet
28 0 m 1
 28 54 l 1
 43 54 l 2
 96 54 116 58 125 69 c 0
 132 79 132 82 132 144 c 2
 132 578 l 2
 132 640 132 643 125 653 c 0
 116 664 96 668 43 668 c 2
 28 668 l 1
 28 722 l 1
 417 722 l 1
 417 668 l 1
 402 668 l 2
 348 668 328 664 319 653 c 0
 312 643 312 640 312 578 c 2
 312 144 l 2
 312 82 312 79 319 69 c 0
 328 58 348 54 402 54 c 2
 417 54 l 1
 417 0 l 1
 28 0 l 1
EndSplineSet
Validated: 1
EndChar

StartChar: J
Encoding: 74 74 43
Width: 648
VWidth: 1000
Flags: W
HStem: -15 61<115.909 291.133> 134 196<85.2438 198.43> 668 54<250 346.57 541.43 639>
VStem: 4 80<82.3537 225.5> 354 180<123.504 652.536>
LayerCount: 3
Fore
SplineSet
250 668 m 1
 250 722 l 1
 639 722 l 1
 639 668 l 1
 624 668 l 2
 570 668 550 664 541 653 c 0
 534 643 534 641 534 578 c 2
 534 280 l 2
 534 161 509 96 446 46 c 0
 395 5 328 -15 245 -15 c 0
 96 -15 4 60 4 182 c 0
 4 269 55 330 128 330 c 0
 188 330 231 287 231 228 c 0
 231 174 192 134 139 134 c 0
 130 134 124 135 115 137 c 0
 110 138 106 139 103 139 c 0
 92 139 84 131 84 120 c 0
 84 81 140 46 202 46 c 0
 255 46 302 69 327 105 c 0
 347 135 354 173 354 245 c 2
 354 578 l 2
 354 640 354 643 347 653 c 0
 338 664 318 668 265 668 c 2
 250 668 l 1
EndSplineSet
Validated: 1
EndChar

StartChar: K
Encoding: 75 75 44
Width: 815
VWidth: 1000
Flags: W
HStem: 0 54<15 111.57 306.43 404 454 534.984 748.001 818> 668 54<15 111.57 306.43 404 454 551.466 703.276 791>
VStem: 119 180<69.4639 250 344 652.536>
LayerCount: 3
Fore
SplineSet
383 338 m 1
 299 250 l 1
 299 144 l 2
 299 82 299 79 306 69 c 0
 315 58 335 54 389 54 c 2
 404 54 l 1
 404 0 l 1
 15 0 l 1
 15 54 l 1
 30 54 l 2
 83 54 103 58 112 69 c 0
 119 79 119 82 119 144 c 2
 119 578 l 2
 119 640 119 643 112 653 c 0
 103 664 83 668 30 668 c 2
 15 668 l 1
 15 722 l 1
 404 722 l 1
 404 668 l 1
 389 668 l 2
 335 668 315 664 306 653 c 0
 299 643 299 640 299 578 c 2
 299 344 l 1
 520 578 l 2
 538 598 553 622 553 633 c 0
 553 656 527 668 478 668 c 2
 454 668 l 1
 454 722 l 1
 791 722 l 1
 791 668 l 1
 725 664 675 635 588 550 c 1
 505 463 l 1
 713 131 l 2
 759 59 763 57 818 54 c 1
 818 0 l 1
 454 0 l 1
 454 54 l 1
 467 54 l 2
 513 54 535 62 535 77 c 0
 535 86 531 95 523 109 c 2
 383 338 l 1
EndSplineSet
Validated: 1
EndChar

StartChar: L
Encoding: 76 76 45
Width: 722
VWidth: 1000
Flags: W
HStem: 0 54<19 115.57 309.891 522.586> 668 54<19 115.571 310.429 415>
VStem: 123 180<69.4639 652.536> 648 53<194.372 269>
LayerCount: 3
Fore
SplineSet
648 269 m 1
 701 269 l 1
 689 0 l 1
 19 0 l 1
 19 54 l 1
 34 54 l 2
 87 54 107 58 116 69 c 0
 123 79 123 82 123 145 c 2
 123 578 l 2
 123 640 123 643 116 653 c 0
 107 664 88 668 34 668 c 2
 19 668 l 1
 19 722 l 1
 415 722 l 1
 415 668 l 1
 393 668 l 2
 338 668 319 664 310 653 c 0
 303 643 303 640 303 578 c 2
 303 125 l 2
 302.059311902 69.4994021949 317.931611674 53.8190388203 380.5836358 53.8190388203 c 0
 384.533946957 53.8190388203 388.670231183 53.8813761968 393 54 c 2
 414 54 l 2
 536 56 607 121 648 269 c 1
EndSplineSet
Validated: 33
EndChar

StartChar: M
Encoding: 77 77 46
Width: 981
VWidth: 1000
Flags: W
HStem: 0 54<9 90.8137 210.547 294 583 676.57 871.43 965> 668 54<16 115.16 871.43 965>
VStem: 117.138 66.7246<81.9579 632.08> 684 180<69.4639 642.7>
LayerCount: 3
Fore
SplineSet
338 722 m 1
 493 292 l 1
 639 722 l 1
 965 722 l 1
 965 668 l 1
 954 668 l 2
 900 668 880 664 871 653 c 0
 864 644 864 639 864 578 c 2
 864 144 l 2
 864 83 864 78 871 69 c 0
 880 58 900 54 954 54 c 2
 965 54 l 1
 965 0 l 1
 583 0 l 1
 583 54 l 1
 594 54 l 2
 648 54 668 58 677 69 c 0
 684 79 684 82 684 144 c 2
 684 643 l 1
 463 0 l 1
 411 0 l 1
 184 633 l 1
 184 217 l 2
 183.909885618 211.187622351 183.862404396 205.578259749 183.862404396 200.164960255 c 0
 183.862404396 85.4354065288 205.19031877 58.7747140446 294 54 c 1
 294 0 l 1
 9 0 l 1
 9 54 l 1
 95.8918667454 58.7742783926 117.137779081 85.4305415885 117.137779081 200.133558169 c 0
 117.137779081 205.556566034 117.090288643 211.176382529 117 217 c 2
 117 578 l 2
 117 640 117 643 110 653 c 0
 102 664 81 668 27 668 c 2
 16 668 l 1
 16 722 l 1
 338 722 l 1
EndSplineSet
Validated: 1
EndChar

StartChar: N
Encoding: 78 78 47
Width: 833
VWidth: 1000
Flags: W
HStem: 0 54<16 97.8137 217.547 301> 668 54<18 93.9565 548 629.814 750.402 833>
VStem: 124.138 66.7246<81.9579 546> 656.138 66.5915<270 640.457>
LayerCount: 3
Fore
SplineSet
270 722 m 1
 656 270 l 1
 656 505 l 2
 656.090288643 510.823617471 656.137779081 516.445471975 656.137779081 521.872279847 c 0
 656.137779081 636.655671035 634.891866745 664.180577286 548 668 c 1
 548 722 l 1
 833 722 l 1
 833 668 l 1
 746.435547285 664.236328143 722.729284272 637.454164282 722.729284272 526.843069088 c 0
 722.729284272 519.897587204 722.822753893 512.621582606 723 505 c 2
 723 -7 l 1
 656 -7 l 1
 191 546 l 1
 191 217 l 2
 190.909885618 211.187622351 190.862404396 205.578259749 190.862404396 200.164960255 c 0
 190.862404396 85.4354065288 212.19031877 58.7747140446 301 54 c 1
 301 0 l 1
 16 0 l 1
 16 54 l 1
 102.891866745 58.7742783926 124.137779081 85.4305415885 124.137779081 200.133558169 c 0
 124.137779081 205.556566034 124.090288643 211.176382529 124 217 c 2
 124 611 l 1
 98 647 63 666 18 667 c 1
 18 722 l 1
 270 722 l 1
EndSplineSet
Validated: 1
EndChar

StartChar: O
Encoding: 79 79 48
Width: 833
VWidth: 1000
Flags: W
HStem: -15 52<333.366 501.645> 685 52<330.007 499.33>
VStem: 39 200<210.549 494.127> 594 200<210.106 493.285>
LayerCount: 3
Fore
SplineSet
418 685 m 0
 359 685 319 663 290 614 c 0
 256 557 239 477 239 369 c 0
 239 263 257 176 290 114 c 0
 318 62 360 37 418 37 c 0
 532 37 594 147 594 350 c 0
 594 458 576 548 543 608 c 0
 514 659 472 685 418 685 c 0
417 737 m 0
 515 737 593 710 660 652 c 0
 744 581 794 467 794 351 c 0
 794 234 747 131 660 63 c 0
 593 9 515 -15 412 -15 c 0
 195 -15 39 138 39 350 c 0
 39 467 89 580 173 652 c 0
 238 709 320 737 417 737 c 0
EndSplineSet
Validated: 1
EndChar

StartChar: P
Encoding: 80 80 49
Width: 759
VWidth: 1000
Flags: W
HStem: 0 54<24 120.57 315.43 420> 310 55<308 484.878> 667 55<24 120.57 310.816 496.446>
VStem: 128 180<68.51 310 365 652.49> 542 193<419.048 619.073>
LayerCount: 3
Fore
SplineSet
308 365 m 1
 366 365 l 2
 495 365 542 407 542 522 c 0
 542 622 499 667 403 667 c 2
 363 667 l 2
 319.808383759 667 307.939006659 655.945092068 307.939006659 612.613972162 c 0
 307.939006659 610.799747543 307.959813694 608.928942676 308 607 c 2
 308 365 l 1
308 310 m 1
 308 144 l 2
 308 82 308 79 315 68 c 0
 324 58 344 54 398 54 c 2
 420 54 l 1
 420 0 l 1
 24 0 l 1
 24 54 l 1
 39 54 l 2
 92 54 112 58 121 68 c 0
 128 79 128 82 128 144 c 2
 128 577 l 2
 128 639 128 642 121 653 c 0
 112 663 92 667 39 667 c 2
 24 667 l 1
 24 722 l 1
 421 722 l 2
 521 722 580 712 634 687 c 0
 698 657 735 596 735 521 c 0
 735 381 629 310 420 310 c 2
 308 310 l 1
EndSplineSet
Validated: 1
EndChar

StartChar: Q
Encoding: 81 81 50
Width: 833
VWidth: 1000
Flags: W
HStem: -188 93<583.5 735.937> -38 20G<751.5 808> -15 52<332.937 471.285> 233 57<326.365 447.437> 685 52<329.097 494.966>
VStem: 38 200<220.527 503.799> 590 200<224.431 501.093> 754 54<-87.6439 -18>
LayerCount: 3
Fore
SplineSet
474 53 m 1xfc
 476 73 477 89 477 99 c 0
 477 187 446 233 387 233 c 0
 335 233 299 191 299 132 c 0
 299 75 344 37 411 37 c 0
 435 37 449 40 474 53 c 1xfc
565 175 m 1
 581 217 590 289 590 370 c 0xfe
 590 455 576 534 551 591 c 0
 524 653 477 685 414 685 c 0
 298 685 238 581 238 379 c 0
 238 296 245 232 259 189 c 1
 270 220 279 235 295 250 c 0
 321 275 361 290 402 290 c 0
 480 290 536 251 565 175 c 1
472 -25 m 2
 472 -10 l 1
 448 -14 434 -15 410 -15 c 0
 297 -15 206 25 134 107 c 0
 71 177 38 266 38 363 c 0
 38 576 201 737 416 737 c 0
 624 737 790 571 790 363 c 0xfe
 790 234 725 113 620 44 c 1
 658 -68 674 -95 705 -95 c 0
 736 -95 749 -74 754 -18 c 1
 808 -18 l 1
 808 -25 l 2xfd
 808 -122 739 -188 636 -188 c 0
 531 -188 472 -129 472 -25 c 2
EndSplineSet
Validated: 1
EndChar

StartChar: R
Encoding: 82 82 51
Width: 815
VWidth: 1000
Flags: W
HStem: -15 84<608 749.562> 0 54<20 116.57 311.431 420> 347 55<304 442.453> 668 54<20 116.571 306.845 492.202>
VStem: 124 180<69.4646 347 402 653.49> 534 191<451.938 628.692> 763 54<76.9265 164>
LayerCount: 3
Fore
SplineSet
304 402 m 1x3e
 359 402 l 2
 492 402 534 434 534 535 c 0
 534 627 493 668 399 668 c 2
 375 668 l 2
 314.150581786 667.04922784 303.923354742 659.770681785 303.923354742 611.78566896 c 0
 303.923354742 609.301163572 303.95077216 606.707531222 304 604 c 2
 304 402 l 1x3e
304 347 m 1
 304 145 l 2
 304 83 304 79 311 69 c 0xbe
 320 58 341 55 394 54 c 2
 420 54 l 1
 420 0 l 1
 20 0 l 1
 20 54 l 1
 35 54 l 2x7e
 88 55 108 58 117 69 c 0
 124 79 124 83 124 145 c 2
 124 578 l 2
 124 640 124 643 117 654 c 0
 108 664 89 668 35 668 c 2
 20 668 l 1
 20 722 l 1
 447 722 l 2
 539 722 606 710 644 686 c 0
 696 652 725 601 725 541 c 0
 725 476 690 421 629 390 c 0
 604 378 578 371 525 361 c 1
 612 332 650 287 665 197 c 2
 672 159 l 2
 674 145 676 136 676 131 c 0
 681 99 682 92 688 83 c 0
 694 75 706 69 717 69 c 0
 747 69 762 101 763 164 c 1
 817 164 l 1
 817 152 l 2
 817 45 755 -15 647 -15 c 0xbe
 569 -15 519 16 495 78 c 0
 485 105 482 123 476 198 c 2
 473 237 l 2
 470 317 439 346 360 347 c 2
 304 347 l 1
EndSplineSet
Validated: 1
EndChar

StartChar: S
Encoding: 83 83 52
Width: 667
VWidth: 1000
Flags: W
HStem: -15 52<268.285 463.778> 470 21G<518 601> 685 52<210.715 400.823>
VStem: 51 51<222.664 276> 52 115<454.742 619.02> 513 120<114.828 286.5> 548 53<470 520.295>
LayerCount: 3
Fore
SplineSet
588 729 m 1xec
 601 470 l 1
 548 470 l 1
 488 613 406 685 302 685 c 0
 223 685 167 642 167 581 c 0xea
 167 539 189 510 235 494 c 0
 260 485 260 485 337 470 c 2
 385 459 l 2
 558 421 633 350 633 223 c 0
 633 82 525 -15 369 -15 c 0
 288 -15 225 6 164 52 c 1
 102 -7 l 1
 57 -7 l 1
 51 276 l 1
 102 276 l 1xf4
 157 126 256 37 369 37 c 0
 456 37 513 83 513 154 c 0
 513 190 497 219 469 234 c 0
 445 247 426 252 361 264 c 2
 299 276 l 2
 142 305 52 392 52 514 c 0
 52 647 157 737 312 737 c 0
 381 737 433 721 491 683 c 1
 543 729 l 1
 588 729 l 1xec
EndSplineSet
Validated: 1
EndChar

StartChar: T
Encoding: 84 84 53
Width: 722
VWidth: 1000
Flags: W
HStem: 0 54<159 263.57 458.43 563> 670 52<160.811 270.377 451.623 562.859>
VStem: 15 53<451 552.285> 271 180<69.4639 669.635> 654 53<451 550.6>
CounterMasks: 1 38
LayerCount: 3
Fore
SplineSet
692 722 m 1
 707 451 l 1
 654 451 l 1
 639 533 623 575 595 611 c 0
 563 652 530 670 487 670 c 0
 457 670 451 663 451 630 c 2
 451 144 l 2
 451 83 451 78 458 69 c 0
 467 58 487 54 541 54 c 2
 563 54 l 1
 563 0 l 1
 159 0 l 1
 159 54 l 1
 181 54 l 2
 235 54 255 58 264 69 c 0
 271 79 271 82 271 144 c 2
 271 630 l 2
 271 663 265 670 235 670 c 0
 188 670 151 647 119 599 c 0
 95 564 81 525 68 451 c 1
 15 451 l 1
 30 722 l 1
 692 722 l 1
EndSplineSet
Validated: 1
EndChar

StartChar: U
Encoding: 85 85 54
Width: 833
VWidth: 1000
Flags: W
HStem: -15 75<359.244 568.495> 668 54<15 111.57 306.43 404 539 620.814 740.547 824>
VStem: 119 180<118.845 652.536> 647.138 66.7246<138.243 640.042>
LayerCount: 3
Fore
SplineSet
15 668 m 1
 15 722 l 1
 404 722 l 1
 404 668 l 1
 389 668 l 2
 335 668 315 664 306 653 c 0
 299 643 299 640 299 578 c 2
 299 258 l 2
 299 185 310 136 332 109 c 0
 360 76 402 60 460 60 c 0
 544 60 601 92 630 155 c 0
 643 183 647 222 647 304 c 2
 647 505 l 2
 647.090288643 510.823617471 647.137779081 516.443433966 647.137779081 521.866441831 c 0
 647.137779081 636.569458412 625.891866745 663.225721607 539 668 c 1
 539 722 l 1
 824 722 l 1
 824 668 l 1
 735.19031877 663.225285955 713.862404396 636.564593471 713.862404396 521.835039745 c 0
 713.862404396 516.421740251 713.909885618 510.812377649 714 505 c 2
 714 304 l 2
 714 185 706 142 678 96 c 0
 629 19 552 -15 424 -15 c 0
 283 -15 186 25 145 100 c 0
 126 135 119 177 119 261 c 2
 119 578 l 2
 119 640 119 643 112 653 c 0
 103 664 83 668 30 668 c 2
 15 668 l 1
EndSplineSet
Validated: 1
EndChar

StartChar: V
Encoding: 86 86 55
Width: 759
VWidth: 1000
Flags: W
HStem: -15 21G<315.085 419.237> 668 54<-18 57.854 261.013 344 483 565.292 711.377 778>
LayerCount: 3
Fore
SplineSet
429 206 m 1
 571 562 l 2
 577 577 580 588 580 600 c 0
 580 645 548 667 483 668 c 1
 483 722 l 1
 778 722 l 1
 778 668 l 1
 717 662 672 620 640 541 c 2
 411 -15 l 1
 323 -15 l 1
 80 599 l 2
 57 656 41 668 -18 668 c 1
 -18 722 l 1
 344 722 l 1
 344 668 l 1
 323 668 l 2
 279 668 261 661 261 643 c 0
 261 637 264 626 270 610 c 2
 429 206 l 1
EndSplineSet
Validated: 1
EndChar

StartChar: W
Encoding: 87 87 56
Width: 981
VWidth: 1000
Flags: W
HStem: -15 21G<279.472 367.486 611.857 697.35> 668 54<6 67.517 257.009 316 361 413.468 598.009 657 721 776.39 916.326 973>
LayerCount: 3
Fore
SplineSet
711 258 m 1
 798 543 l 2
 809 579 811 590 811 604 c 0
 811 628 798 649 777 659 c 0
 764 665 750 667 721 668 c 1
 721 722 l 1
 973 722 l 1
 973 668 l 1
 912 655 894 633 865 533 c 2
 691 -15 l 1
 618 -15 l 1
 493 392 l 1
 361 -15 l 1
 286 -15 l 1
 82 610 l 2
 64 660 53 668 6 668 c 1
 6 722 l 1
 316 722 l 1
 316 668 l 1
 269 666 257 661 257 643 c 0
 257 636 259 627 265 609 c 2
 381 251 l 1
 461 502 l 1
 425 614 l 2
 410 658 400 666 361 668 c 1
 361 722 l 1
 657 722 l 1
 657 668 l 1
 610 665 598 660 598 641 c 0
 598 635 599 630 604 614 c 2
 711 258 l 1
EndSplineSet
Validated: 1
EndChar

StartChar: X
Encoding: 88 88 57
Width: 722
VWidth: 1000
Flags: W
HStem: 0 54<-12 70.1067 219.775 319 375 440.988 666.605 735> 668 54<-12 53.8262 278.007 346 401 488.353 631.064 709>
LayerCount: 3
Fore
SplineSet
431 413 m 1
 608 155 l 2
 670 65 682 56 735 54 c 1
 735 0 l 1
 375 0 l 1
 375 54 l 1
 425 55 441 61 441 78 c 0
 441 89 436 101 428 112 c 2
 319 268 l 1
 231 156 l 2
 218 140 211 122 211 106 c 0
 211 71 243 56 319 54 c 1
 319 0 l 1
 -12 0 l 1
 -12 54 l 1
 46 56 74 73 132 144 c 2
 279 325 l 1
 74 617 l 2
 46 657 32 666 -12 668 c 1
 -12 722 l 1
 346 722 l 1
 346 668 l 1
 287 666 278 663 278 644 c 0
 278 636 281 628 288 618 c 2
 393 467 l 1
 463 553 l 2
 487 582 497 601 497 617 c 0
 497 650 464 668 401 668 c 1
 401 722 l 1
 709 722 l 1
 709 668 l 1
 657 664 623 644 577 591 c 2
 431 413 l 1
EndSplineSet
Validated: 1
EndChar

StartChar: Y
Encoding: 89 89 58
Width: 722
VWidth: 1000
Flags: W
HStem: 0 54<159 263.57 458.43 563> 668 54<-12 59.9961 276.013 348 440 526.699 659.604 735>
VStem: 271 180<69.4639 305>
LayerCount: 3
Fore
SplineSet
420 396 m 1
 520 574 l 2
 528 589 534 608 534 620 c 0
 534 648 505 668 461 668 c 2
 440 668 l 1
 440 722 l 1
 735 722 l 1
 735 668 l 1
 679 664 640 637 601 575 c 2
 451 318 l 1
 451 144 l 2
 451 82 451 79 458 69 c 0
 467 58 487 54 541 54 c 2
 563 54 l 1
 563 0 l 1
 159 0 l 1
 159 54 l 1
 181 54 l 2
 235 54 255 58 264 69 c 0
 271 79 271 82 271 144 c 2
 271 305 l 1
 67 632 l 2
 48 661 33 668 -12 668 c 1
 -12 722 l 1
 348 722 l 1
 348 668 l 1
 332 668 l 2
 294 668 276 661 276 646 c 0
 276 637 278 631 288 615 c 2
 420 396 l 1
EndSplineSet
Validated: 1
EndChar

StartChar: Z
Encoding: 90 90 59
Width: 667
VWidth: 1000
Flags: W
HStem: 0 55<233 463.587> 470 21G<49 124.262> 667.134 54.8665<213.886 425>
VStem: 49 51<470 532.485> 581 53<190.716 276>
LayerCount: 3
Fore
SplineSet
634 722 m 1
 634 666 l 1
 233 55 l 1
 322 55 l 2
 325.057142857 54.9714285714 328.060408163 54.9567346939 331.01161516 54.9567346939 c 0
 431.352653061 54.9567346939 471.514285714 71.9428571429 523 138 c 0
 554 181 572 223 581 276 c 1
 634 276 l 1
 617 0 l 1
 24 0 l 1
 24 58 l 1
 425 667 l 1
 351 667 l 2
 346.838772044 667.088536765 342.748092916 667.13352487 338.726137606 667.13352487 c 0
 206.467239131 667.13352487 148.524387249 618.484624983 100 470 c 1
 49 470 l 1
 61 722 l 1
 634 722 l 1
EndSplineSet
Validated: 1
EndChar

StartChar: bracketleft
Encoding: 91 91 60
Width: 389
VWidth: 1000
Flags: W
HStem: -108 50<207 339> 672 50<207 339>
VStem: 84 123<-58 672>
LayerCount: 3
Fore
SplineSet
339 722 m 1
 339 672 l 1
 207 672 l 1
 207 -58 l 1
 339 -58 l 1
 339 -108 l 1
 84 -108 l 1
 84 722 l 1
 339 722 l 1
EndSplineSet
Validated: 1
EndChar

StartChar: backslash
Encoding: 92 92 61
Width: 606
VWidth: 1000
Flags: W
HStem: 0 21G<469.304 555>
LayerCount: 3
Fore
SplineSet
124 737 m 1
 555 0 l 1
 481 0 l 1
 50 737 l 1
 124 737 l 1
EndSplineSet
Validated: 1
EndChar

StartChar: bracketright
Encoding: 93 93 62
Width: 389
VWidth: 1000
Flags: W
HStem: -108 50<31 163> 672 50<31 163>
VStem: 163 123<-58 672>
LayerCount: 3
Fore
SplineSet
31 -108 m 1
 31 -58 l 1
 163 -58 l 1
 163 672 l 1
 31 672 l 1
 31 722 l 1
 286 722 l 1
 286 -108 l 1
 31 -108 l 1
EndSplineSet
Validated: 1
EndChar

StartChar: asciicircum
Encoding: 94 94 63
Width: 606
VWidth: 1000
Flags: W
LayerCount: 3
Fore
SplineSet
554 318 m 1
 435 318 l 1
 304 568 l 1
 171 318 l 1
 52 318 l 1
 261 722 l 1
 346 722 l 1
 554 318 l 1
EndSplineSet
Validated: 1
EndChar

StartChar: underscore
Encoding: 95 95 64
Width: 500
VWidth: 1000
Flags: W
HStem: -155 90<0 500>
LayerCount: 3
Fore
SplineSet
0 -65 m 1
 500 -65 l 1
 500 -155 l 1
 0 -155 l 1
 0 -65 l 1
EndSplineSet
Validated: 1
EndChar

StartChar: grave
Encoding: 96 96 65
Width: 333
VWidth: 1000
Flags: W
HStem: 545 189
VStem: 2 247
LayerCount: 3
Fore
SplineSet
249 545 m 1
 185 545 l 1
 38 632 l 2
 14 646 2 663 2 684 c 0
 2 712 27 734 59 734 c 0
 89 734 101 726 136 683 c 2
 249 545 l 1
EndSplineSet
Validated: 1
EndChar

StartChar: a
Encoding: 97 97 66
Width: 611
VWidth: 1000
Flags: W
HStem: -15 85<461.5 563.965> -15 68<141 320.555> 436 52<206.132 343.755>
VStem: 36 167<65.6482 178.25> 63 140<326.247 424.075> 359 157<85.1025 235 282.942 421.15>
LayerCount: 3
Fore
SplineSet
359 235 m 1x74
 306 223 l 2
 234 206 203 176 203 122 c 0
 203 80 228 53 267 53 c 0
 324 53 359 102 359 179 c 2
 359 235 l 1x74
516 318 m 2
 516 142 l 2
 516 83 521 70 543 70 c 0
 550 70 553 71 562 77 c 0
 570 82 576 84 582 84 c 0
 592 84 597 78 597 68 c 0
 597 25 544 -15 487 -15 c 0xac
 436 -15 398 11 381 56 c 1
 328 4 276 -15 190 -15 c 0
 92 -15 36 28 36 102 c 0x74
 36 168 76 210 169 241 c 0
 212 256 235 262 297 275 c 0
 334 283 354 288 359 289 c 1
 359 341 l 2
 359 411 337 436 276 436 c 0
 236 436 203 421 203 404 c 0
 203 399 203 399 212 387 c 0
 221 375 226 361 226 349 c 0
 226 312 191 284 144 284 c 0
 97 284 63 316 63 359 c 0x6c
 63 437 153 488 291 488 c 0
 370 488 432 472 469 443 c 0
 504 414 516 383 516 318 c 2
EndSplineSet
Validated: 1
EndChar

StartChar: b
Encoding: 98 98 67
Width: 648
VWidth: 1000
Flags: W
HStem: -15 52<279.867 397.683> 413 75<293.931 401.2> 671 51<0 79.2158>
VStem: 83 157<81.7916 362.375 413 668.235> 439 173<121.879 364.713>
LayerCount: 3
Fore
SplineSet
345 413 m 0
 275 413 239 345 239 212 c 0
 239 98 274 37 340 37 c 0
 405 37 439 103 439 233 c 0
 439 353 408 413 345 413 c 0
240 737 m 1
 240 413 l 1
 281 465 328 488 394 488 c 0
 522 488 612 387 612 245 c 0
 612 91 508 -15 356 -15 c 0
 281 -15 230 9 183 66 c 1
 118 -14 l 1
 69 -14 l 1
 78 32 82 95 83 206 c 2
 83 578 l 2
 83.072595469 584.388401271 83.1188404274 590.339384066 83.1188404274 595.882790057 c 0
 83.1188404274 666.699604179 75.5716763917 671 19 671 c 2
 0 671 l 1
 0 722 l 1
 240 737 l 1
EndSplineSet
Validated: 1
EndChar

StartChar: c
Encoding: 99 99 68
Width: 556
VWidth: 1000
Flags: W
HStem: -15 68<260.634 411.965> 436 52<255.424 374.626>
VStem: 31 173<117.457 341.509> 375 140<320.318 426.029>
LayerCount: 3
Fore
SplineSet
475 177 m 1
 527 160 l 1
 512 113 496 83 467 53 c 0
 423 5 374 -15 300 -15 c 0
 139 -15 31 83 31 229 c 0
 31 380 150 488 316 488 c 0
 437 488 515 435 515 352 c 0
 515 300 480 267 426 267 c 0
 378 267 344 297 344 340 c 0
 344 359 347 367 364 390 c 0
 375 404 375 404 375 408 c 0
 375 424 352 436 323 436 c 0
 248 436 204 367 204 247 c 0
 204 123 250 53 332 53 c 0
 374 53 413 72 437 104 c 0
 452 124 461 140 475 177 c 1
EndSplineSet
Validated: 1
EndChar

StartChar: d
Encoding: 100 100 69
Width: 667
VWidth: 1000
Flags: W
HStem: -15 68<249.744 357.719> 0 21G<420 654> 11 54<570.14 654> 420 68<253.415 364.529> 671 51<315 407.098>
VStem: 37 173<106.424 349.502> 411 157
LayerCount: 3
Fore
SplineSet
311 420 m 0x9e
 247 420 210 351 210 231 c 0
 210 116 245 53 309 53 c 0
 371 53 413 128 413 237 c 0
 413 349 373 420 311 420 c 0x9e
568 737 m 1
 568 122 l 2
 568 74.8667910443 574.572601735 64.7044668485 613.781683531 64.7044668485 c 0
 617.830260159 64.7044668485 622.226801091 64.8128157291 627 65 c 2
 654 65 l 1
 654 11 l 1x3e
 420 0 l 1x5e
 420 72 l 1
 379 12 328 -15 256 -15 c 0
 126 -15 37 84 37 229 c 0
 37 375 136 488 266 488 c 0
 328 488 373 467 411 421 c 1
 411 578 l 2
 411 667 409 671 347 671 c 2
 315 671 l 1
 315 722 l 1
 568 737 l 1
EndSplineSet
Validated: 1
EndChar

StartChar: e
Encoding: 101 101 70
Width: 574
VWidth: 1000
Flags: W
HStem: -15 68<263.009 425.504> 228 55<206 382.81> 436 52<245.622 356.288>
VStem: 32 173<119.188 228 283 342.797> 383 157<283.006 366.616>
LayerCount: 3
Fore
SplineSet
206 283 m 1
 356 283 l 2
 376 283 383 291 383 315 c 0
 383 394 356 436 304 436 c 0
 244 436 206 378 206 283 c 1
540 228 m 1
 205 228 l 1
 206 171 213 140 230 113 c 0
 255 75 295 53 341 53 c 0
 407 53 451 86 491 164 c 1
 540 144 l 1
 496 37 419 -15 302 -15 c 0
 226 -15 159 7 113 46 c 0
 63 89 32 160 32 232 c 0
 32 298 59 364 104 411 c 0
 154 462 220 488 301 488 c 0
 448 488 540 393 540 244 c 2
 540 228 l 1
EndSplineSet
Validated: 1
EndChar

StartChar: f
Encoding: 102 102 71
Width: 389
VWidth: 1000
Flags: W
HStem: 0 50<21 94.663 259.794 351> 413 60<14 101 258 383> 681 52<280.807 338.522>
VStem: 101 157<64.2359 413 473 608.869> 339 125<593.351 680.027>
LayerCount: 3
Fore
SplineSet
383 473 m 1
 383 413 l 1
 258 413 l 1
 258 144 l 1
 258 94 l 2
 258 57 267 52 333 50 c 2
 351 50 l 1
 351 0 l 1
 21 0 l 1
 21 50 l 1
 25 50 l 2
 69 51 88 55 95 64 c 0
 99 69 100 76 101 89 c 2
 101 144 l 1
 101 413 l 1
 14 413 l 1
 14 473 l 1
 101 473 l 1
 101 486 l 2
 101 634 188 733 319 733 c 0
 402 733 464 686 464 624 c 0
 464 577 430 542 384 542 c 0
 342 542 309 572 309 611 c 0
 309 631 319 652 334 664 c 0
 338 668 339 670 339 673 c 0
 339 678 333 681 323 681 c 0
 303 681 280 664 270 641 c 0
 260 619 258 597 258 530 c 2
 258 473 l 1
 383 473 l 1
EndSplineSet
Validated: 1
EndChar

StartChar: g
Encoding: 103 103 72
Width: 611
VWidth: 1000
Flags: W
HStem: -202 52<176.771 412.739> -43 140<198.082 418.207> 159 48<236.051 338.617> 436 52<235.563 341.962> 463 75<473.967 571>
VStem: 30 130<-130.904 -48.5206> 45 153<56 138.063> 51 162<232.94 397.181> 363 162<236.643 400.727> 434 130<-115.946 -8>
LayerCount: 3
Fore
SplineSet
328 -43 m 2xe440
 197 -43 l 1
 172 -54 160 -70 160 -92 c 0
 160 -129 204 -150 281 -150 c 0
 384 -150 434 -130 434 -89 c 0
 434 -75 428 -62 419 -56 c 0
 402 -45 390 -43 328 -43 c 2xe440
290 436 m 0xf180
 239 436 213 400 213 326 c 0
 213 294 218 265 229 243 c 0
 240 218 259 207 289 207 c 0
 336 207 363 248 363 320 c 0
 363 396 338 436 290 436 c 0xf180
263 97 m 2
 332 97 l 2
 404 97 448 93 481 82 c 0
 531 67 564 20 564 -36 c 0
 564 -143 460 -202 274 -202 c 0
 110 -202 30 -170 30 -104 c 0xec40
 30 -57 69 -25 136 -15 c 1
 77 1 45 34 45 78 c 0xea
 45 130 82 161 161 176 c 1
 89 201 51 249 51 317 c 0
 51 416 150 488 287 488 c 0xf1
 338 488 383 478 421 459 c 1
 465 514 503 538 549 538 c 0
 593 538 623 512 623 473 c 0
 623 437 596 409 561 409 c 0
 533 409 507 431 507 454 c 2
 507 458 l 2
 507 462 505 463 502 463 c 0
 490 463 478 454 465 435 c 1
 509 399 525 369 525 322 c 0
 525 260 491 209 433 183 c 0
 395 165 358 159 292 159 c 2
 274 159 l 2
 216 159 198 151 198 126 c 0xea80
 198 102 210 97 263 97 c 2
EndSplineSet
Validated: 1
EndChar

StartChar: h
Encoding: 104 104 73
Width: 685
VWidth: 1000
Flags: W
HStem: 0 51<19 92.663 257.367 324 361 423.572 588.266 666> 395 93<321.885 452> 671 51<16 95.3232>
VStem: 99 157<64.2813 354.813 396 668.377> 430 157<64.2813 377.781>
LayerCount: 3
Fore
SplineSet
256 737 m 1
 256 396 l 1
 298 460 350 488 426 488 c 0
 478 488 522 471 549 440 c 0
 576 411 587 373 587 311 c 2
 587 144 l 1
 587 94 l 2
 587 57 596 52 662 51 c 2
 666 51 l 1
 666 0 l 1
 361 0 l 1
 361 51 l 2
 364.366663462 50.9009804864 367.586253963 50.8509852932 370.66459674 50.8509852932 c 0
 398.67449774 50.8509852932 414.990195136 54.9901951359 424 64 c 0
 428 70 429 76 430 90 c 2
 430 116 l 1
 430 144 l 1
 430 297 l 2
 430 361 405 395 359 395 c 0
 322 395 287 372 271 336 c 0
 260 312 256 286 256 241 c 2
 256 144 l 1
 256 94 l 2
 255 59 268 51 324 51 c 1
 324 0 l 1
 19 0 l 1
 19 51 l 1
 23 51 l 2
 67 51 86 55 93 64 c 0
 97 70 98 76 99 90 c 2
 99 144 l 1
 99 574 l 2
 99.0804754504 581.484216889 99.1350457084 588.392043246 99.1350457084 594.767779625 c 0
 99.1350457084 667.617898411 92.0105220739 671 35 671 c 2
 16 671 l 1
 16 722 l 1
 256 737 l 1
EndSplineSet
Validated: 33
EndChar

StartChar: i
Encoding: 105 105 74
Width: 370
VWidth: 1000
Flags: W
HStem: 0 51<28 99.7085 264.491 341> 415 51<28 101.834> 560 177<119.125 244>
VStem: 93 177<586.125 711> 106 157<64.2813 411.62>
LayerCount: 3
Fore
SplineSet
182 737 m 0xf0
 230 737 270 697 270 649 c 0
 270 599 231 560 180 560 c 0
 133 560 93 600 93 649 c 0
 93 697 133 737 182 737 c 0xf0
263 473 m 1xe8
 263 144 l 1
 263 94 l 2
 263 58 272 52 335 51 c 2
 341 51 l 1
 341 0 l 1
 28 0 l 1
 28 51 l 1
 32 51 l 2
 74 51 94 55 100 64 c 0
 104 70 105 76 106 90 c 2
 106 98 l 1
 106 144 l 1
 106 321 l 2
 106 410 103 414 42 415 c 2
 28 415 l 1
 28 466 l 1
 263 473 l 1xe8
EndSplineSet
Validated: 1
EndChar

StartChar: j
Encoding: 106 106 75
Width: 352
VWidth: 1000
Flags: W
HStem: -202 47<33.9402 96.6803> 415 51<15 106.57> 560 177<121 245.875>
VStem: -82 143<-142.037 -44.7761> 95 177<586.125 711> 111 157<-80.4473 411.627>
LayerCount: 3
Fore
SplineSet
268 473 m 1xf4
 268 109 l 2
 268 5 259 -51 233 -101 c 0
 202 -163 134 -202 58 -202 c 0
 -24 -202 -82 -160 -82 -102 c 0
 -82 -59 -49 -27 -4 -27 c 0
 34 -27 61 -55 61 -94 c 0
 61 -117 53 -130 32 -144 c 1
 38 -152 45 -155 57 -155 c 0
 94 -155 111 -124 111 -57 c 2
 111 329 l 2
 111 409 107 414 47 415 c 2
 15 415 l 1
 15 466 l 1
 268 473 l 1xf4
183 737 m 0
 232 737 272 697 272 649 c 0
 272 599 233 560 182 560 c 0
 135 560 95 600 95 649 c 0xf8
 95 697 135 737 183 737 c 0
EndSplineSet
Validated: 1
EndChar

StartChar: k
Encoding: 107 107 76
Width: 667
VWidth: 1000
Flags: W
HStem: 0 51<15 88.663 253.367 320 354 402.99 603.97 660> 422 51<329 400.936 519.844 623> 671 51<12 91.2158>
VStem: 95 157<64.2813 172 246 668.235>
LayerCount: 3
Fore
SplineSet
252 737 m 1
 252 246 l 1
 376 355 l 2
 394 371 401 382 401 395 c 0
 401 412 379 422 341 422 c 2
 329 422 l 1
 329 473 l 1
 623 473 l 1
 623 422 l 1
 600 422 l 2
 561 422 531 409 492 375 c 2
 415 311 l 1
 572 114 l 2
 617 57 625 51 660 51 c 1
 660 0 l 1
 354 0 l 1
 354 51 l 1
 364 51 l 2
 390 51 403 57 403 71 c 0
 403 80 398 92 390 101 c 2
 298 213 l 1
 252 172 l 1
 252 144 l 1
 252 94 l 2
 251 59 264 51 320 51 c 1
 320 0 l 1
 15 0 l 1
 15 51 l 1
 19 51 l 2
 63 51 82 55 89 64 c 0
 93 70 94 76 95 90 c 2
 95 97 l 1
 95 144 l 1
 95 578 l 2
 95.072595469 584.388401271 95.1188404274 590.339384066 95.1188404274 595.882790057 c 0
 95.1188404274 666.699604179 87.5716763917 671 31 671 c 2
 12 671 l 1
 12 722 l 1
 252 737 l 1
EndSplineSet
Validated: 33
EndChar

StartChar: l
Encoding: 108 108 77
Width: 352
VWidth: 1000
Flags: W
HStem: 0 51<19 92.663 257.359 331> 671 51<16 95.2158>
VStem: 99 157<64.2813 668.235>
LayerCount: 3
Fore
SplineSet
256 737 m 1
 256 144 l 1
 256 94 l 2
 256 58 264 53 324 51 c 2
 331 51 l 1
 331 0 l 1
 19 0 l 1
 19 51 l 1
 23 51 l 2
 67 51 86 55 93 64 c 0
 97 70 98 76 99 90 c 2
 99 97 l 1
 99 144 l 1
 99 578 l 2
 99.072595469 584.388401271 99.1188404274 590.339384066 99.1188404274 595.882790057 c 0
 99.1188404274 666.699604179 91.5716763917 671 35 671 c 2
 16 671 l 1
 16 722 l 1
 256 737 l 1
EndSplineSet
Validated: 1
EndChar

StartChar: m
Encoding: 109 109 78
Width: 963
VWidth: 1000
Flags: W
HStem: 0 51<20 93.663 258.447 315 346 401.208 561.827 618 648 699.623 864.266 942> 395 93<313.667 441.5 614.06 751> 415 51<20 96.3232>
VStem: 100 157<64.2813 365.372> 403.516 155.971<53.3956 363.125> 706 157<64.3267 386.831>
LayerCount: 3
Fore
SplineSet
248 473 m 1xbc
 248 394 l 1
 288 457 341 488 408 488 c 0
 475 488 527 455 549 398 c 1
 597 462 642 488 707 488 c 0
 795 488 863 425 863 343 c 2
 863 144 l 1
 863 94 l 2
 863 57 872 52 938 51 c 2
 942 51 l 1
 942 0 l 1
 648 0 l 1
 648 51 l 1
 681 51 692 54 700 64 c 0
 704 71 706 76 706 89 c 2
 706 116 l 1
 706 144 l 1
 706 306 l 2
 706 368 689 395 651 395 c 0
 596 395 560 349 560 278 c 2
 560 144 l 2
 559.712410469 130.914676319 559.486851741 119.710953692 559.486851741 110.112321265 c 0
 559.486851741 52.9586461307 567.483891178 52.7124104686 618 51 c 1
 618 0 l 1
 346 0 l 1
 346 51 l 1
 395.604334779 52.7104943027 403.516151233 52.9580932256 403.516151233 109.920672214 c 0
 403.516151233 119.561739782 403.289505697 130.827490774 403 144 c 2
 403 302 l 2
 403 369 387 395 348 395 c 0xdc
 292 395 257 350 257 278 c 2
 257 144 l 2
 256.691225822 129.95077492 256.430122391 118.070568799 256.430122391 108.017153368 c 0
 256.430122391 52.9523292536 264.263225328 52.6912258224 315 51 c 1
 315 0 l 1
 20 0 l 1
 20 51 l 1
 25 51 l 2
 68 51 87 55 94 64 c 0
 98 70 99 76 100 90 c 2
 100 98 l 1
 100 144 l 1
 100 321 l 2
 100.08047545 328.162315088 100.135045708 334.774144835 100.135045708 340.878226248 c 0
 100.135045708 410.624374709 93.0105220739 414.08047545 36 415 c 2
 20 415 l 1
 20 466 l 1
 248 473 l 1xbc
EndSplineSet
Validated: 1
EndChar

StartChar: n
Encoding: 110 110 79
Width: 685
VWidth: 1000
Flags: W
HStem: 0 51<20 92.663 257.375 325 363 425.572 590.18 668> 395 93<323.525 453.5> 415 51<20 95.3232>
VStem: 99 157<64.2813 353.36 385 411.781> 432 157<64.2813 377.147>
LayerCount: 3
Fore
SplineSet
249 473 m 1xb8
 249 385 l 1
 298 459 348 488 427 488 c 0
 480 488 524 471 551 440 c 0
 578 411 589 373 589 311 c 2
 589 144 l 1
 589 94 l 2
 589 57 597 52 664 51 c 2
 668 51 l 1
 668 0 l 1
 363 0 l 1
 363 51 l 2
 366.366663462 50.9009804864 369.586253963 50.8509852932 372.66459674 50.8509852932 c 0
 400.67449774 50.8509852932 416.990195136 54.9901951359 426 64 c 0
 430 70 431 76 432 90 c 2
 432 116 l 1
 432 144 l 1
 432 297 l 2
 432 361 406 395 359 395 c 0xd8
 323 395 288 372 272 336 c 0
 260 312 256 286 256 241 c 2
 256 144 l 1
 256 94 l 2
 255 59 268 51 325 51 c 1
 325 0 l 1
 20 0 l 1
 20 51 l 1
 24 51 l 2
 67 51 86 55 93 64 c 0
 97 70 98 76 99 90 c 2
 99 98 l 1
 99 144 l 1
 99 318 l 2
 99.0804754504 325.403741439 99.1350457084 332.237568643 99.1350457084 338.545782168 c 0
 99.1350457084 410.624374709 92.0105220739 414.08047545 35 415 c 2
 20 415 l 1
 20 466 l 1
 249 473 l 1xb8
EndSplineSet
Validated: 33
EndChar

StartChar: o
Encoding: 111 111 80
Width: 611
VWidth: 1000
Flags: W
HStem: -15 52<246.252 361.323> 436 52<248.154 363.744>
VStem: 31 173<123.296 346.276> 406 173<124.076 344.573>
LayerCount: 3
Fore
SplineSet
306 436 m 0
 238 436 204 369 204 236 c 0
 204 104 238 37 305 37 c 0
 370 37 406 108 406 235 c 0
 406 288 398 344 386 377 c 0
 373 412 341 436 306 436 c 0
308 488 m 0
 460 488 579 376 579 234 c 0
 579 91 462 -15 304 -15 c 0
 146 -15 31 90 31 235 c 0
 31 380 149 488 308 488 c 0
EndSplineSet
Validated: 1
EndChar

StartChar: p
Encoding: 112 112 81
Width: 667
VWidth: 1000
Flags: W
HStem: -202 50<18 90.7085 255.693 341> -15 68<299.47 415.414> 413 75<309.812 419.603> 415 51<18 93.3232>
VStem: 97 157<-137.719 50 98.625 362.488> 459 173<126.115 366.354>
LayerCount: 3
Fore
SplineSet
366 413 m 0xec
 293 413 253 348 253 229 c 0
 253 116 291 53 358 53 c 0
 422 53 459 119 459 232 c 0
 459 351 427 413 366 413 c 0xec
254 473 m 1
 254 409 l 1
 299 466 342 488 411 488 c 0xec
 539 488 632 387 632 249 c 0
 632 98 531 -15 396 -15 c 0
 339 -15 294 6 254 50 c 1
 254 -58 l 1
 254 -108 l 2
 254 -145 262 -150 330 -152 c 2
 341 -152 l 1
 341 -202 l 1
 18 -202 l 1
 18 -152 l 1
 22 -152 l 2
 65 -151 85 -147 91 -138 c 0
 95 -132 96 -126 97 -112 c 2
 97 -105 l 1
 97 -58 l 1
 97 318 l 2
 97.0804754504 325.403741439 97.1350457084 332.237568643 97.1350457084 338.545782168 c 0
 97.1350457084 410.624374709 90.0105220739 414.08047545 33 415 c 2
 18 415 l 1
 18 466 l 1xdc
 254 473 l 1
EndSplineSet
Validated: 1
EndChar

StartChar: q
Encoding: 113 113 82
Width: 648
VWidth: 1000
Flags: W
HStem: -202 50<317 397.708 562.794 640> -15 68<246.109 348.749> 436 52<249.809 363.741>
VStem: 34 173<108.043 347.54> 404 157<-137.719 58 103.311 393.941>
LayerCount: 3
Fore
SplineSet
308 436 m 0
 241 436 207 368 207 236 c 0
 207 116 240 53 303 53 c 0
 368 53 407 129 407 253 c 0
 407 307 402 342 390 372 c 0
 374 411 342 436 308 436 c 0
527 487 m 1
 576 487 l 1
 567.576340341 416.802836177 560.904731103 332.589268986 560.904731103 281.915033659 c 0
 560.904731103 278.447941295 560.935962184 275.137852969 561 272 c 2
 561 -58 l 1
 561 -108 l 2
 561 -145 570 -150 636 -152 c 2
 640 -152 l 1
 640 -202 l 1
 317 -202 l 1
 317 -152 l 1
 328 -152 l 2
 372 -151 392 -147 398 -138 c 0
 402 -132 403 -126 404 -112 c 2
 404 -58 l 1
 404 58 l 1
 361 8 313 -15 250 -15 c 0
 192 -15 130 12 94 53 c 0
 58 94 34 166 34 233 c 0
 34 379 143 488 289 488 c 0
 365 488 418 463 463 407 c 1
 527 487 l 1
EndSplineSet
Validated: 1
EndChar

StartChar: r
Encoding: 114 114 83
Width: 519
VWidth: 1000
Flags: W
HStem: 0 51<18 90.663 256.18 352> 301 187<375.869 482.251> 415 51<18 93.3232>
VStem: 97 158<64.2813 319.752> 356 161<324.398 420.252>
LayerCount: 3
Fore
SplineSet
241 473 m 1xb8
 241 352 l 1
 276 444 330 488 407 488 c 0
 471 488 517 445 517 387 c 0
 517 338 480 301 431 301 c 0xd8
 388 301 356 332 356 375 c 0
 356 393 360 404 373 422 c 1
 301 403 259 312 255 164 c 1
 255 144 l 1
 255 94 l 2
 255 57 263 52 330 51 c 2
 352 51 l 1
 352 0 l 1
 18 0 l 1
 18 51 l 1
 22 51 l 2
 65 51 84 55 91 64 c 0
 95 70 96 76 97 90 c 2
 97 144 l 1
 97 318 l 2
 97.0804754504 325.403741439 97.1350457084 332.237568643 97.1350457084 338.545782168 c 0
 97.1350457084 410.624374709 90.0105220739 414.08047545 33 415 c 2
 18 415 l 1
 18 466 l 1
 241 473 l 1xb8
EndSplineSet
Validated: 1
EndChar

StartChar: s
Encoding: 115 115 84
Width: 500
VWidth: 1000
Flags: W
HStem: -15 52<174.134 337.864> 436 52<165.205 319.416> 458 20G<362.364 439.506>
VStem: 38 45<137.982 175> 42 110<314.444 410.193> 351 115<67.0147 176>
LayerCount: 3
Fore
SplineSet
439 478 m 1xac
 443 320 l 1
 396 320 l 1
 347 402 300 436 236 436 c 0
 186 436 152 412 152 378 c 0xcc
 152 352 165 342 214 329 c 2
 304 307 l 2
 376 289 397 280 423 257 c 0
 451 232 466 197 466 155 c 0
 466 55 383 -15 265 -15 c 0
 213 -15 162 -2 124 20 c 1
 85 2 l 1
 43 2 l 1
 38 175 l 1
 83 175 l 1xd4
 131 80 188 37 265 37 c 0
 318 37 351 60 351 96 c 0
 351 126 331 143 281 154 c 2
 208 170 l 2
 143 184 114 198 84 227 c 0
 56 253 42 288 42 326 c 0
 42 421 122 488 235 488 c 0xcc
 284 488 321 478 359 456 c 1
 396 478 l 1
 439 478 l 1xac
EndSplineSet
Validated: 1
EndChar

StartChar: t
Encoding: 116 116 85
Width: 426
VWidth: 1000
Flags: W
HStem: -15 85<207.5 332.996> 413 60<23 93.4935 251 381>
VStem: 94 157<71.5153 413> 188 63<568.719 671> 351 54<86.9643 186>
LayerCount: 3
Fore
SplineSet
381 473 m 1xd8
 381 413 l 1
 251 413 l 1
 251 156 l 2
 251 88 259 70 288 70 c 0
 329 70 352 111 351 186 c 1
 404 186 l 1
 405 176 405 168 405 163 c 0
 405 119 390 72 365 39 c 0
 338 4 293 -15 236 -15 c 0
 179 -15 136 5 115 40 c 0
 98 68 94 92 94 174 c 2
 94 413 l 1xe8
 23 413 l 1
 23 465 l 1
 118 476 172 543 188 671 c 1
 251 671 l 1
 251 473 l 1
 381 473 l 1xd8
EndSplineSet
Validated: 33
EndChar

StartChar: u
Encoding: 117 117 86
Width: 685
VWidth: 1000
Flags: W
HStem: -15 93<222.5 356.251> 0 21G<434 667> 11 54<585.476 667> 415 51<13 89.3232 347 423.323>
VStem: 93 157<93.0251 411.781> 427.135 156.865<66.431 82 119.914 411.781>
LayerCount: 3
Fore
SplineSet
584 473 m 1x9c
 584 131 l 2
 583.924506715 126.39490962 583.877509611 122.10897646 583.877509611 118.120257564 c 0
 583.877509611 69.2735633312 590.925650815 65 639 65 c 2
 667 65 l 1
 667 11 l 1x3c
 434 0 l 1x5c
 434 82 l 1
 376 11 328 -15 257 -15 c 0
 188 -15 136 15 109 71 c 0
 95 99 93 117 93 191 c 2
 93 318 l 2
 93.0804754504 325.403741439 93.1350457084 332.237568643 93.1350457084 338.545782168 c 0
 93.1350457084 410.624374709 86.0105220739 414.08047545 29 415 c 2
 13 415 l 1
 13 466 l 1
 250 473 l 1
 250 185 l 2
 250 109 271 78 321 78 c 0
 359 78 394 101 410 135 c 0
 423 161 427 188 427 238 c 2
 427 318 l 2
 427.08047545 325.403741439 427.135045708 332.237568643 427.135045708 338.545782168 c 0
 427.135045708 410.624374709 420.010522074 414.08047545 363 415 c 2
 347 415 l 1
 347 466 l 1
 584 473 l 1x9c
EndSplineSet
Validated: 1
EndChar

StartChar: v
Encoding: 118 118 87
Width: 611
VWidth: 1000
Flags: W
HStem: -14 21G<254.417 357.851> 422.094 50.9065<12 64.8818 242.009 294 371 445.803 538.216 598>
LayerCount: 3
Fore
SplineSet
357 140 m 1
 430 323 l 2
 446 363 448 369 448 383 c 0
 448 410.803997883 427.777205039 422.062072616 377.637226355 422.062072616 c 0
 375.480431461 422.062072616 373.268279878 422.041241452 371 422 c 2
 371 473 l 1
 598 473 l 1
 598 422 l 2
 597.012590112 422.022441134 596.035755919 422.033802969 595.069203581 422.033802969 c 0
 552.965189822 422.033802969 530.371648253 400.474002901 503 334 c 2
 349 -14 l 1
 264 -14 l 1
 80 370 l 2
 59 413 49 421 12 422 c 1
 12 473 l 1
 294 473 l 1
 294 422 l 2
 291.634205565 422.062257748 289.361435783 422.093507279 287.179277527 422.093507279 c 0
 254.311047429 422.093507279 242 415.003876027 242 400 c 0
 242 394 245 385 250 374 c 2
 357 140 l 1
EndSplineSet
Validated: 1
EndChar

StartChar: w
Encoding: 119 119 88
Width: 889
VWidth: 1000
Flags: W
HStem: -14 21G<244.421 337.636 541.894 633.946> 422 51<19 73.4119 246.007 295 326 380.946 544.012 605 650 719.86 817.742 876>
LayerCount: 3
Fore
SplineSet
642 154 m 1
 712 324 l 2
 721 348 726 365 726 376 c 0
 726 404 699 422 657 422 c 2
 650 422 l 1
 650 473 l 1
 876 473 l 1
 876 422 l 1
 831 420 811 402 782 337 c 2
 625 -14 l 1
 550 -14 l 1
 443 250 l 1
 329 -14 l 1
 253 -14 l 1
 90 366 l 2
 72 409 58 420 19 422 c 1
 19 473 l 1
 295 473 l 1
 295 422 l 1
 255 422 246 417 246 399 c 0
 246 393 246 393 253 375 c 2
 340 154 l 1
 412 324 l 1
 387 385 l 2
 374 415 363 422 326 422 c 1
 326 473 l 1
 605 473 l 1
 605 422 l 1
 598 422 l 2
 560 422 544 416 544 399 c 0
 544 394 546 386 550 378 c 2
 642 154 l 1
EndSplineSet
Validated: 1
EndChar

StartChar: x
Encoding: 120 120 89
Width: 611
VWidth: 1000
Flags: W
HStem: 0 51<13 77.2656 187.209 247 284 330.991 537.349 598> 422 51<13 67.7505 265.009 309 342 404.989 506.517 588>
LayerCount: 3
Fore
SplineSet
370 272 m 1
 508 108 l 2
 550 59 561 52 598 51 c 1
 598 0 l 1
 284 0 l 1
 284 51 l 1
 291 51 l 2
 319 51 331 58 331 73 c 0
 331 81 328 87 320 96 c 2
 261 167 l 1
 201 108 l 2
 192 99 187 89 187 79 c 0
 187 61 205 51 234 51 c 2
 247 51 l 1
 247 0 l 1
 13 0 l 1
 13 51 l 1
 44 52 66 64 102 96 c 2
 223 212 l 1
 80 383 l 2
 54 414 43 421 13 422 c 1
 13 473 l 1
 309 473 l 1
 309 422 l 1
 298 422 l 2
 277 422 265 416 265 406 c 0
 265 401 268 395 276 385 c 2
 333 316 l 1
 384 365 l 2
 399 380 405 389 405 400 c 0
 405 414 390 422 365 422 c 2
 342 422 l 1
 342 473 l 1
 588 473 l 1
 588 422 l 1
 545 422 515 408 474 370 c 2
 370 272 l 1
EndSplineSet
Validated: 1
EndChar

StartChar: y
Encoding: 121 121 90
Width: 611
VWidth: 1000
Flags: W
HStem: -206 68<96.5 219.825> 422 51<14 67.2711 245.008 298 373 447.607 541.225 598>
LayerCount: 3
Fore
SplineSet
359 158 m 1
 442 342 l 2
 447 354 451 371 451 382 c 0
 451 408 427 422 384 422 c 2
 373 422 l 1
 373 473 l 1
 598 473 l 1
 598 422 l 1
 556 420 536 402 507 340 c 2
 332 -37 l 2
 277 -155 218 -206 134 -206 c 0
 59 -206 10 -170 10 -114 c 0
 10 -64 48 -27 97 -27 c 0
 141 -27 172 -55 172 -95 c 0
 172 -109 170 -119 164 -129 c 0
 163 -130 163 -131 163 -132 c 0
 163 -135 167 -138 171 -138 c 0
 200 -138 231 -110 257 -59 c 2
 280 -16 l 1
 75 382 l 2
 59 415 51 421 14 422 c 1
 14 473 l 1
 298 473 l 1
 298 422 l 1
 280 422 l 2
 256 422 245 416 245 401 c 0
 245 394 248 385 253 375 c 2
 359 158 l 1
EndSplineSet
Validated: 1
EndChar

StartChar: z
Encoding: 122 122 91
Width: 537
VWidth: 1000
Flags: W
HStem: 0 50<225 385.185> 423.155 49.8452<150.307 307>
VStem: 51 51<293 366.135>
LayerCount: 3
Fore
SplineSet
495 473 m 1
 495 425 l 1
 225 50 l 1
 287 50 l 2
 353 50 371 56 397 88 c 0
 419 117 433 145 446 190 c 1
 495 190 l 1
 485 0 l 1
 35 0 l 1
 35 44 l 1
 307 423 l 1
 256 423 l 2
 250.961427738 423.099773708 246.124440031 423.154750849 241.477366467 423.154750849 c 0
 152.97217276 423.154750849 133.353733815 403.213124927 102 293 c 1
 51 293 l 1
 63 473 l 1
 495 473 l 1
EndSplineSet
Validated: 1
EndChar

StartChar: braceleft
Encoding: 123 123 92
Width: 389
VWidth: 1000
Flags: W
HStem: -108 46<292.642 343> 676 46<292.642 343>
VStem: 160 123<-51.4482 263.652 350.348 665.448>
LayerCount: 3
Fore
SplineSet
84 285 m 1
 84 329 l 1
 145.688141252 343.020032103 160.201570465 363.155304655 160.201570465 444.113466391 c 0
 160.201570465 449.772255111 160.130662386 455.728205458 160 462 c 2
 160 572 l 2
 159.98451733 573.703093739 159.976705478 575.388208998 159.976705478 577.055512788 c 0
 159.976705478 683.076595533 191.563749706 717.077413352 291 722 c 1
 343 722 l 1
 343 676 l 1
 293.7931157 669.849139463 282.419316752 658.293552446 282.419316752 584.344006698 c 0
 282.419316752 574.135113626 282.636083087 562.737091938 283 550 c 2
 283 432 l 2
 282 354 258 324 181 307 c 1
 258 290 282 260 283 182 c 2
 283 64 l 2
 282.636083087 51.2629080621 282.419316752 39.864886374 282.419316752 29.6559933015 c 0
 282.419316752 -44.2935524463 293.7931157 -55.8491394625 343 -62 c 1
 343 -108 l 1
 291 -108 l 1
 191.563749706 -103.077413352 159.976705478 -69.0765955326 159.976705478 36.9444872123 c 0
 159.976705478 38.6117910024 159.98451733 40.2969062606 160 42 c 2
 160 152 l 2
 160.130662386 158.271794542 160.201570465 164.227744889 160.201570465 169.886533609 c 0
 160.201570465 250.844695345 145.688141252 270.979967897 84 285 c 1
EndSplineSet
Validated: 1
EndChar

StartChar: bar
Encoding: 124 124 93
Width: 606
VWidth: 1000
Flags: W
VStem: 243 119<-244 722>
LayerCount: 3
Fore
SplineSet
362 722 m 1
 362 -244 l 1
 243 -244 l 1
 243 722 l 1
 362 722 l 1
EndSplineSet
Validated: 1
EndChar

StartChar: braceright
Encoding: 125 125 94
Width: 389
VWidth: 1000
Flags: W
HStem: -108 46<31 83.0852> 676 46<31 83.0852>
VStem: 93.5772 122.446<-51.7063 264.984 349.016 665.448>
LayerCount: 3
Fore
SplineSet
290 329 m 1
 290 285 l 1
 230.197764215 270.983850988 215.797868531 250.8558485 215.797868531 169.953787906 c 0
 215.797868531 164.274940445 215.868819868 158.296646322 216 152 c 2
 216 42 l 2
 216.01548267 40.2969062606 216.023294522 38.6115512893 216.023294522 36.9437792072 c 0
 216.023294522 -69.1070814472 184.436250294 -104.061930681 85 -108 c 2
 31 -108 l 1
 31 -62 l 1
 82.0213487235 -55.8422510161 93.5771566313 -44.2676630968 93.5771566313 29.9046799592 c 0
 93.5771566313 40.0499020966 93.3609647212 51.366234758 93 64 c 2
 93 182 l 2
 94 260 118 290 195 307 c 1
 118 324 94 354 93 432 c 2
 93 550 l 2
 93.3609647212 562.633765242 93.5771566313 573.950097903 93.5771566313 584.095320041 c 0
 93.5771566313 658.267663097 82.0213487235 669.842251016 31 676 c 1
 31 722 l 1
 85 722 l 1
 184.436250294 717.077413352 216.023294522 683.076595533 216.023294522 577.055512788 c 0
 216.023294522 575.388208998 216.01548267 573.703093739 216 572 c 2
 216 462 l 2
 215.868819868 455.703353678 215.797868531 449.725059555 215.797868531 444.046212094 c 0
 215.797868531 363.1441515 230.197764215 343.016149012 290 329 c 1
EndSplineSet
Validated: 1
EndChar

StartChar: asciitilde
Encoding: 126 126 95
Width: 606
VWidth: 1000
Flags: W
HStem: 160 114<317.18 451.053> 221 114<155.238 288.062>
LayerCount: 3
Fore
SplineSet
135 169 m 1x40
 51 222 l 1
 92 298 140 335 196 335 c 0x40
 218 335 239 330 285 312 c 2
 337 293 l 2
 381 276 389 274 404 274 c 0
 428 274 443 286 471 326 c 1
 555 273 l 1
 515 198 466 160 411 160 c 0x80
 388 160 366 166 321 183 c 2
 268 202 l 2
 223 219 218 221 203 221 c 0
 178 221 163 209 135 169 c 1x40
EndSplineSet
Validated: 1
EndChar

StartChar: uni0591
Encoding: 1425 1425 96
Width: 0
Flags: W
HStem: -140 95<-27.5118 27.5118>
VStem: -92 54<-235 -142.651> -28 56<-123.452 -45> 38 54<-235 -142.495>
CounterMasks: 1 70
LayerCount: 3
Fore
SplineSet
-28 -116 m 1
 -28 -60 l 2
 -28 -52 -21 -45 -12 -45 c 2
 12 -45 l 2
 21 -45 28 -52 28 -60 c 2
 28 -116 l 1
 56 -121 92 -143 92 -175 c 2
 92 -220 l 2
 92 -228 86 -235 78 -235 c 2
 52 -235 l 2
 44 -235 38 -228 38 -220 c 2
 38 -178 l 2
 38 -157 21 -140 0 -140 c 0
 -21 -140 -38 -157 -38 -178 c 2
 -38 -220 l 2
 -38 -228 -44 -235 -52 -235 c 2
 -78 -235 l 2
 -86 -235 -92 -228 -92 -220 c 2
 -92 -175 l 2
 -92 -144 -60 -120 -28 -116 c 1
EndSplineSet
Validated: 1
EndChar

StartChar: uni0592
Encoding: 1426 1426 97
Width: 0
Flags: W
HStem: 665 75<-102.112 -31.8883 31.8883 102.112> 780 75<-36.0047 36.0047>
VStem: -104 74<666.701 738.293> -38 76<781.995 853.013> 30 74<666.701 738.293>
LayerCount: 3
Fore
SplineSet
67 665 m 0xc8
 46 665 30 682 30 702 c 0
 30 723 46 740 67 740 c 0
 88 740 104 723 104 702 c 0
 104 682 88 665 67 665 c 0xc8
0 780 m 0
 -21 780 -38 797 -38 818 c 0
 -38 838 -21 855 0 855 c 0
 21 855 38 838 38 818 c 0xd0
 38 797 21 780 0 780 c 0
-67 665 m 0
 -88 665 -104 682 -104 702 c 0
 -104 723 -88 740 -67 740 c 0
 -46 740 -30 723 -30 702 c 0xe0
 -30 682 -46 665 -67 665 c 0
EndSplineSet
Validated: 1
EndChar

StartChar: uni0593
Encoding: 1427 1427 98
Width: 0
Flags: W
HStem: 665 78<-50.4219 -3> 855 45<7 58.6586>
VStem: -78.0341 156.43<704.346 742.422 783.078 821.531>
LayerCount: 3
Fore
SplineSet
-28 674 m 2
 -63 701 l 2
 -73.0227272727 708.636363636 -78.0340909091 718.550619835 -78.0340909091 726.828935011 c 0
 -78.0340909091 735.895661157 -72.0227272727 743 -60 743 c 2
 -3 743 l 1
 -63 788 l 2
 -73.0227272727 795.636363636 -78.0340909091 803.728305785 -78.0340909091 810.101474455 c 0
 -78.0340909091 817.08161157 -72.0227272727 822 -60 822 c 2
 0 822 l 1
 -64 870 l 2
 -73.544511501 877.158383626 -78.5341380124 884.316767252 -78.5341380124 889.844870171 c 0
 -78.5341380124 895.900603509 -72.5465861988 900 -60 900 c 2
 13 900 l 2
 27 900 36 896 41 892 c 2
 55 881 l 2
 62.1531769122 874.740970202 65.908482813 868.881689934 65.908482813 864.315746421 c 0
 65.908482813 858.668731816 60.1643817457 855 48 855 c 2
 7 855 l 1
 65 813 l 2
 73.669696882 806.256902425 78.3956223183 799.049831739 78.3956223183 793.390041059 c 0
 78.3956223183 787.298990433 72.922053984 783 61 783 c 2
 0 783 l 1
 65 734 l 2
 73.669696882 727.256902425 78.3956223183 720.049831739 78.3956223183 714.390041059 c 0
 78.3956223183 708.298990433 72.922053984 704 61 704 c 2
 0 704 l 1
 19 690 l 2
 26.6906203956 684.232034703 31.1467134906 678.233031742 31.1467134906 673.557711219 c 0
 31.1467134906 668.506231493 25.9447331813 665 14 665 c 2
 2 665 l 2
 -13 665 -18 667 -28 674 c 2
EndSplineSet
Validated: 1
EndChar

StartChar: uni0594
Encoding: 1428 1428 99
Width: 0
Flags: W
HStem: 665 75<-36.0047 36.0047> 780 75<-36.0047 36.0047>
VStem: -38 76<666.987 738.005 781.995 853.013>
LayerCount: 3
Fore
SplineSet
0 855 m 0
 21 855 38 838 38 818 c 0
 38 797 21 780 0 780 c 0
 -21 780 -38 797 -38 818 c 0
 -38 838 -21 855 0 855 c 0
0 740 m 0
 21 740 38 723 38 702 c 0
 38 682 21 665 0 665 c 0
 -21 665 -38 682 -38 702 c 0
 -38 723 -21 740 0 740 c 0
EndSplineSet
Validated: 1
EndChar

StartChar: uni0595
Encoding: 1429 1429 100
Width: 0
Flags: W
HStem: 665 75<13.9953 86.0047> 780 75<13.9953 86.0047>
VStem: -88 56<668 852> 12 76<666.987 738.005 781.995 853.013>
LayerCount: 3
Fore
SplineSet
50 855 m 0
 71 855 88 838 88 818 c 0
 88 797 71 780 50 780 c 0
 29 780 12 797 12 818 c 0
 12 838 29 855 50 855 c 0
50 740 m 0
 71 740 88 723 88 702 c 0
 88 682 71 665 50 665 c 0
 29 665 12 682 12 702 c 0
 12 723 29 740 50 740 c 0
-48 668 m 2
 -72 668 l 2
 -81 668 -88 674 -88 682 c 2
 -88 838 l 2
 -88 846 -81 852 -72 852 c 2
 -48 852 l 2
 -39 852 -32 846 -32 838 c 2
 -32 682 l 2
 -32 674 -39 668 -48 668 c 2
EndSplineSet
Validated: 1
EndChar

StartChar: uni0596
Encoding: 1430 1430 101
Width: 0
Flags: W
HStem: -265 54<16.3103 67.7663>
VStem: -68 28<-114.574 -45.0044>
LayerCount: 3
Fore
SplineSet
-40 -57 m 0
 -24 -153 2 -184 55 -211 c 0
 63 -215 68 -225 68 -235 c 0
 68 -252 55 -265 38 -265 c 0
 32 -265 26 -263 21 -259 c 0
 -37 -217 -66 -136 -68 -59 c 0
 -68 -51 -62 -45 -54 -45 c 0
 -47 -45 -41 -50 -40 -57 c 0
EndSplineSet
Validated: 1
EndChar

StartChar: uni0597
Encoding: 1431 1431 102
Width: 0
Flags: W
VStem: -70 140<726.981 782.571>
LayerCount: 3
Fore
SplineSet
-61 738 m 0
 -67 741 -70 748 -70 755 c 0
 -70 762 -67 769 -61 772 c 0
 -39 783 -21 805 -13 834 c 0
 -9 848 8 849 13 833 c 0
 21 805 39 782 61 772 c 0
 67 769 70 762 70 755 c 0
 70 748 67 741 61 738 c 0
 39 727 21 705 13 676 c 0
 9 662 -9 661 -13 676 c 0
 -21 705 -39 727 -61 738 c 0
EndSplineSet
Validated: 1
EndChar

StartChar: uni0598
Encoding: 1432 1432 103
Width: 0
Flags: W
HStem: 665 48<48.3372 112.446> 665 32<-101.153 -52.0051> 771 49<-112.446 -47.2698> 787 33<52.0204 101.153>
VStem: -145 32<708.385 767.406> 113 32<716.841 775.929>
LayerCount: 3
Fore
SplineSet
-64 763 m 2x9c
 -69 768 -76 771 -84 771 c 0
 -100 771 -113 758 -113 742 c 0
 -113 717 -92 697 -68 697 c 0
 -59 697 -52 690 -52 681 c 0
 -52 672 -59 665 -68 665 c 0
 -110 665 -145 700 -145 742 c 0
 -145 785 -110 820 -68 820 c 0x6c
 -46 820 -27 811 -13 797 c 2
 64 721 l 2
 69 716 76 713 84 713 c 0
 100 713 113 726 113 742 c 0
 113 767 92 787 68 787 c 0
 59 787 52 795 52 803 c 0
 52 812 59 820 68 820 c 0
 110 820 145 785 145 742 c 0
 145 700 110 665 68 665 c 0
 46 665 27 674 13 688 c 2
 -64 763 l 2x9c
EndSplineSet
Validated: 1
EndChar

StartChar: uni0599
Encoding: 1433 1433 104
Width: 0
Flags: W
HStem: 831 54<-67.7663 -16.3103>
VStem: 40 28<665.004 734.574>
LayerCount: 3
Fore
SplineSet
40 677 m 0
 24 773 -2 804 -55 831 c 0
 -63 835 -68 845 -68 855 c 0
 -68 872 -55 885 -38 885 c 0
 -32 885 -26 883 -21 879 c 0
 37 837 66 756 68 679 c 0
 68 671 62 665 54 665 c 0
 47 665 41 670 40 677 c 0
EndSplineSet
Validated: 1
EndChar

StartChar: uni059A
Encoding: 1434 1434 105
Width: 0
Flags: W
HStem: -89 34<98 108.994>
LayerCount: 3
Fore
SplineSet
85 -56 m 2
 87 -55 89 -55 91 -55 c 0
 101 -55 109 -63 109 -72 c 0
 109 -80 104 -86 98 -89 c 2
 -12 -135 l 1
 95 -179 l 2
 105 -183 109 -189 109 -200 c 2
 109 -225 l 2
 109 -234 103 -237 95 -234 c 2
 -99 -153 l 2
 -112 -148 -112 -138 -99 -133 c 2
 85 -56 l 2
EndSplineSet
Validated: 1
EndChar

StartChar: uni059B
Encoding: 1435 1435 106
Width: 0
Flags: W
HStem: -265 54<-51.7266 0.66748> -155 75<-83.0047 -11.8883>
VStem: -85 75<-153.013 -81.9953> 56 29<-117.766 -45.0175>
LayerCount: 3
Fore
SplineSet
56 -57 m 0
 57 -50 63 -45 70 -45 c 0
 78 -45 85 -51 85 -59 c 0
 82 -136 54 -217 -4 -259 c 0
 -9 -263 -15 -265 -22 -265 c 0
 -38 -265 -52 -252 -52 -235 c 0
 -52 -225 -46 -215 -38 -211 c 0
 15 -184 41 -153 56 -57 c 0
-47 -80 m 0
 -26 -80 -10 -97 -10 -118 c 0
 -10 -138 -26 -155 -47 -155 c 0
 -68 -155 -85 -138 -85 -118 c 0
 -85 -97 -68 -80 -47 -80 c 0
EndSplineSet
Validated: 1
EndChar

StartChar: uni059C
Encoding: 1436 1436 107
Width: 0
Flags: W
HStem: 831 54<16.3103 67.7663>
VStem: -68 28<665.004 734.574>
LayerCount: 3
Fore
SplineSet
-40 677 m 0
 -41 670 -47 665 -54 665 c 0
 -62 665 -68 671 -68 679 c 0
 -66 756 -37 837 21 879 c 0
 26 883 32 885 38 885 c 0
 55 885 68 872 68 855 c 0
 68 845 63 835 55 831 c 0
 2 804 -24 773 -40 677 c 0
EndSplineSet
Validated: 1
EndChar

StartChar: uni059D
Encoding: 1437 1437 108
Width: 0
Flags: W
HStem: 831 54<16.3103 67.7663>
VStem: -68 28<665.004 734.574>
LayerCount: 3
Fore
SplineSet
-40 677 m 0
 -41 670 -47 665 -54 665 c 0
 -62 665 -68 671 -68 679 c 0
 -66 756 -37 837 21 879 c 0
 26 883 32 885 38 885 c 0
 55 885 68 872 68 855 c 0
 68 845 63 835 55 831 c 0
 2 804 -24 773 -40 677 c 0
EndSplineSet
Validated: 1
EndChar

StartChar: uni059E
Encoding: 1438 1438 109
Width: 0
Flags: W
HStem: 831 54<-43.6897 7.76625 76.3103 127.766>
VStem: -128 28<665.004 734.574> -8 28<665.004 734.574>
LayerCount: 3
Fore
SplineSet
-100 677 m 0
 -101 670 -107 665 -114 665 c 0
 -122 665 -128 671 -128 679 c 0
 -126 756 -97 837 -39 879 c 0
 -34 883 -28 885 -22 885 c 0
 -5 885 8 872 8 855 c 0
 8 845 3 835 -5 831 c 0
 -58 804 -84 773 -100 677 c 0
20 677 m 0
 19 670 13 665 6 665 c 0
 -2 665 -8 671 -8 679 c 0
 -6 756 23 837 81 879 c 0
 86 883 92 885 98 885 c 0
 115 885 128 872 128 855 c 0
 128 845 123 835 115 831 c 0
 62 804 36 773 20 677 c 0
EndSplineSet
Validated: 1
EndChar

StartChar: uni059F
Encoding: 1439 1439 110
Width: 0
Flags: W
HStem: 716.212 29.9342<-161.196 -96.0952 96.0952 161.196> 843.844 42.247<-166.172 -89.1094 89.1094 166.172>
VStem: -214.091 38.2371<756.791 833.196> -78.7462 33.8172<768.273 830.825> 44.929 33.8172<768.273 830.825> 175.854 38.2371<756.791 833.196>
LayerCount: 3
Fore
SplineSet
-60 737 m 2
 -33 693 l 2
 -29 686 -30 680 -38 677 c 2
 -67 667 l 2
 -75 664 -80 666 -83 674 c 2
 -96 713 l 2
 -98 718 -102 720 -110 719 c 0
 -116.742346142 717.202041029 -123.888774341 716.212246173 -131.166838488 716.212246173 c 0
 -140.080610226 716.212246173 -149.191835885 717.696938457 -158 721 c 0
 -192.501132679 733.545866429 -214.090647961 766.381417336 -214.090647961 801.186646073 c 0
 -214.090647961 810.769237257 -212.454133571 820.501132679 -209 830 c 0
 -196.454133571 864.501132679 -163.618582664 886.090647961 -128.813353927 886.090647961 c 0
 -119.230762743 886.090647961 -109.498867321 884.454133571 -100 881 c 0
 -65.1970549215 867.77488087 -44.9290496766 834.685343968 -44.9290496766 800.616781235 c 0
 -44.9290496766 785.740401728 -48.7935903424 770.677349429 -57 757 c 0
 -63 748 -64 744 -60 737 c 2
-111 841 m 0
 -116.347611389 842.9251401 -121.832488127 843.843667646 -127.239311302 843.843667646 c 0
 -147.109302306 843.843667646 -165.9251401 831.438484155 -173 811 c 0
 -174.935510083 805.623583103 -175.853533941 800.108418085 -175.853533941 794.67332215 c 0
 -175.853533941 774.835564254 -163.623583103 756.064489917 -144 749 c 0
 -138.623583103 747.064489917 -133.108418085 746.146466059 -127.67332215 746.146466059 c 0
 -107.835564254 746.146466059 -89.0644899172 758.376416897 -82 778 c 0
 -79.7836246784 783.540938304 -78.7462060527 789.229246195 -78.7462060527 794.836285252 c 0
 -78.7462060527 814.527484279 -91.540938304 833.216375322 -111 841 c 0
60 737 m 2
 64 744 63 748 57 757 c 0
 48.7935903424 770.677349429 44.9290496766 785.740401728 44.9290496766 800.616781235 c 0
 44.9290496766 834.685343968 65.1970549215 867.77488087 100 881 c 0
 109.498867321 884.454133571 119.230762743 886.090647961 128.813353927 886.090647961 c 0
 163.618582664 886.090647961 196.454133571 864.501132679 209 830 c 0
 212.454133571 820.501132679 214.090647961 810.769237257 214.090647961 801.186646073 c 0
 214.090647961 766.381417336 192.501132679 733.545866429 158 721 c 0
 149.191835885 717.696938457 140.080610226 716.212246173 131.166838488 716.212246173 c 0
 123.888774341 716.212246173 116.742346142 717.202041029 110 719 c 0
 102 720 98 718 96 713 c 2
 83 674 l 2
 80 666 75 664 67 667 c 2
 38 677 l 2
 30 680 29 686 33 693 c 2
 60 737 l 2
111 841 m 0
 91.540938304 833.216375322 78.7462060527 814.527484279 78.7462060527 794.836285252 c 0
 78.7462060527 789.229246195 79.7836246784 783.540938304 82 778 c 0
 89.0644899172 758.376416897 107.835564254 746.146466059 127.67332215 746.146466059 c 0
 133.108418085 746.146466059 138.623583103 747.064489917 144 749 c 0
 163.623583103 756.064489917 175.853533941 774.835564254 175.853533941 794.67332215 c 0
 175.853533941 800.108418085 174.935510083 805.623583103 173 811 c 0
 165.9251401 831.438484155 147.109302306 843.843667646 127.239311302 843.843667646 c 0
 121.832488127 843.843667646 116.347611389 842.9251401 111 841 c 0
EndSplineSet
Validated: 1
EndChar

StartChar: uni05A0
Encoding: 1440 1440 111
Width: 0
Flags: W
HStem: 716.212 29.9342<-25.9048 39.1964> 843.844 42.247<-23.0533 44.4753>
VStem: -77.5128 33.6593<768.271 830.809> 53.8535 38.2371<756.791 833.196>
LayerCount: 3
Fore
SplineSet
-63 737 m 2
 -59 744 -60 748 -65 757 c 0
 -73.5303737318 770.709529212 -77.5127927133 785.81128947 -77.5127927133 800.721780621 c 0
 -77.5127927133 834.753313039 -56.7671897646 867.788467889 -22 881 c 0
 -12.5011326786 884.454133571 -2.76923725704 886.090647961 6.81335392735 886.090647961 c 0
 41.6185826637 886.090647961 74.4541335714 864.501132679 87 830 c 0
 90.4541335714 820.501132679 92.0906479614 810.769237257 92.0906479614 801.186646073 c 0
 92.0906479614 766.381417336 70.5011326786 733.545866429 36 721 c 0
 27.1918358845 717.696938457 18.0806102258 716.212246173 9 716.212246173 c 0
 1.58571279793 716.212246173 -5.80816411547 717.202041029 -13 719 c 0
 -20 720 -24 718 -26 713 c 2
 -39 674 l 2
 -42 666 -47 664 -56 667 c 2
 -84 677 l 2
 -92 680 -94 686 -89 693 c 2
 -63 737 l 2
-12 841 m 0
 -31.6235831032 833.150566759 -43.8535339413 814.21068512 -43.8535339413 794.336624086 c 0
 -43.8535339413 788.891581915 -42.9355100828 783.376416897 -41 778 c 0
 -33.9355100828 758.376416897 -15.1644357459 746.146466059 5.15695400753 746.146466059 c 0
 10.724554107 746.146466059 16.4085264273 747.064489917 22 749 c 0
 41.6235831032 756.064489917 53.8535339413 774.835564254 53.8535339413 794.67332215 c 0
 53.8535339413 800.108418085 52.9355100828 805.623583103 51 811 c 0
 43.9251401001 831.438484155 25.1093023057 843.843667646 4.75354654377 843.843667646 c 0
 -0.785458078221 843.843667646 -6.43848415522 842.9251401 -12 841 c 0
EndSplineSet
Validated: 1
EndChar

StartChar: uni05A1
Encoding: 1441 1441 112
Width: 0
Flags: W
HStem: 730 25<-34 23.7134>
VStem: -89 55<668 730 755 852> 34 55<758.241 852>
LayerCount: 3
Fore
SplineSet
-34 755 m 1
 -15 755 l 2
 21 755 34 770 34 802 c 2
 34 838 l 2
 34 846 40 852 49 852 c 2
 74 852 l 2
 82 852 89 846 89 838 c 2
 89 791 l 2
 89 749 69 730 25 730 c 2
 -34 730 l 1
 -34 682 l 2
 -34 674 -40 668 -49 668 c 2
 -74 668 l 2
 -82 668 -89 674 -89 682 c 2
 -89 838 l 2
 -89 846 -82 852 -74 852 c 2
 -49 852 l 2
 -40 852 -34 846 -34 838 c 2
 -34 755 l 1
EndSplineSet
Validated: 1
EndChar

StartChar: uni05A3
Encoding: 1443 1443 113
Width: 0
Flags: W
HStem: -220 55<-115 80>
VStem: 80 35<-165 -46.5276>
LayerCount: 3
Fore
SplineSet
80 -165 m 1
 80 -60 l 2
 80 -52 87 -45 95 -45 c 2
 100 -45 l 2
 108 -45 115 -52 115 -60 c 2
 115 -205 l 2
 115 -213 108 -220 100 -220 c 2
 -100 -220 l 2
 -108 -220 -115 -213 -115 -205 c 2
 -115 -180 l 2
 -115 -172 -108 -165 -100 -165 c 2
 80 -165 l 1
EndSplineSet
Validated: 1
EndChar

StartChar: uni05A4
Encoding: 1444 1444 114
Width: 0
Flags: W
HStem: -89 34<98 108.994>
LayerCount: 3
Fore
SplineSet
85 -56 m 2
 87 -55 89 -55 91 -55 c 0
 101 -55 109 -63 109 -72 c 0
 109 -80 104 -86 98 -89 c 2
 -12 -135 l 1
 95 -179 l 2
 105 -183 109 -189 109 -200 c 2
 109 -225 l 2
 109 -234 103 -237 95 -234 c 2
 -99 -153 l 2
 -112 -148 -112 -138 -99 -133 c 2
 85 -56 l 2
EndSplineSet
Validated: 1
EndChar

StartChar: uni05A5
Encoding: 1445 1445 115
Width: 0
Flags: W
HStem: -265 54<-67.7663 -16.3103>
VStem: 40 28<-114.574 -45.0044>
LayerCount: 3
Fore
SplineSet
40 -57 m 0
 41 -50 47 -45 54 -45 c 0
 62 -45 68 -51 68 -59 c 0
 66 -136 37 -217 -21 -259 c 0
 -26 -263 -32 -265 -38 -265 c 0
 -55 -265 -68 -252 -68 -235 c 0
 -68 -225 -63 -215 -55 -211 c 0
 -2 -184 24 -153 40 -57 c 0
EndSplineSet
Validated: 1
EndChar

StartChar: uni05A6
Encoding: 1446 1446 116
Width: 0
Flags: W
HStem: -265 54<-127.766 -76.3103 -7.76625 43.6897>
VStem: -20 28<-114.574 -45.0044> 100 28<-114.574 -45.0044>
LayerCount: 3
Fore
SplineSet
100 -57 m 0
 101 -50 107 -45 114 -45 c 0
 122 -45 128 -51 128 -59 c 0
 126 -136 97 -217 39 -259 c 0
 34 -263 28 -265 22 -265 c 0
 5 -265 -8 -252 -8 -235 c 0
 -8 -225 -3 -215 5 -211 c 0
 58 -184 84 -153 100 -57 c 0
-20 -57 m 0
 -19 -50 -13 -45 -6 -45 c 0
 2 -45 8 -51 8 -59 c 0
 6 -136 -23 -217 -81 -259 c 0
 -86 -263 -92 -265 -98 -265 c 0
 -115 -265 -128 -252 -128 -235 c 0
 -128 -225 -123 -215 -115 -211 c 0
 -62 -184 -36 -153 -20 -57 c 0
EndSplineSet
Validated: 1
EndChar

StartChar: uni05A7
Encoding: 1447 1447 117
Width: 0
Flags: W
HStem: -264 50<-78 32> -105 50<-31 78>
VStem: -78 156<-264 -214.15 -104.556 -55>
LayerCount: 3
Fore
SplineSet
63 -199 m 2
 73 -210 78 -215 78 -232 c 2
 78 -247 l 2
 78 -256 72 -264 65 -264 c 2
 -65 -264 l 2
 -72 -264 -78 -256 -78 -247 c 2
 -78 -230 l 2
 -78 -221 -72 -214 -65 -214 c 2
 32 -214 l 1
 -61 -121 l 2
 -73 -109 -78 -103 -78 -87 c 2
 -78 -72 l 2
 -78 -62 -72 -55 -65 -55 c 2
 65 -55 l 2
 72 -55 78 -62 78 -72 c 2
 78 -88 l 2
 78 -98 72 -105 65 -105 c 2
 -31 -105 l 1
 63 -199 l 2
EndSplineSet
Validated: 1
EndChar

StartChar: uni05A8
Encoding: 1448 1448 118
Width: 0
Flags: W
HStem: 831 54<-67.7663 -16.3103>
VStem: 40 28<665.004 734.574>
LayerCount: 3
Fore
SplineSet
40 677 m 0
 24 773 -2 804 -55 831 c 0
 -63 835 -68 845 -68 855 c 0
 -68 872 -55 885 -38 885 c 0
 -32 885 -26 883 -21 879 c 0
 37 837 66 756 68 679 c 0
 68 671 62 665 54 665 c 0
 47 665 41 670 40 677 c 0
EndSplineSet
Validated: 1
EndChar

StartChar: uni05A9
Encoding: 1449 1449 119
Width: 0
Flags: W
HStem: 716.212 29.9342<-39.1964 25.9048> 843.844 42.247<-44.1722 34.3673>
VStem: -92.0906 38.2371<756.791 833.196> 43.8535 33.6593<768.271 830.809>
LayerCount: 3
Fore
SplineSet
63 737 m 2
 89 693 l 2
 94 686 92 680 84 677 c 2
 56 667 l 2
 47 664 42 666 39 674 c 2
 26 713 l 2
 24 718 20 720 13 719 c 0
 5.80816411547 717.202041029 -1.58571279793 716.212246173 -9 716.212246173 c 0
 -18.0806102258 716.212246173 -27.1918358845 717.696938457 -36 721 c 0
 -70.5011326786 733.545866429 -92.0906479614 766.381417336 -92.0906479614 801.186646073 c 0
 -92.0906479614 810.769237257 -90.4541335714 820.501132679 -87 830 c 0
 -74.4541335714 864.501132679 -41.6185826637 886.090647961 -6.81335392735 886.090647961 c 0
 2.76923725704 886.090647961 12.5011326786 884.454133571 22 881 c 0
 56.7671897646 867.788467889 77.5127927133 834.753313039 77.5127927133 800.721780621 c 0
 77.5127927133 785.81128947 73.5303737318 770.709529212 65 757 c 0
 60 748 59 744 63 737 c 2
12 841 m 0
 6.43848415522 842.9251401 0.785458078221 843.843667646 -4.75354654377 843.843667646 c 0
 -25.1093023057 843.843667646 -43.9251401001 831.438484155 -51 811 c 0
 -52.9355100828 805.623583103 -53.8535339413 800.108418085 -53.8535339413 794.67332215 c 0
 -53.8535339413 774.835564254 -41.6235831032 756.064489917 -22 749 c 0
 -16.4085264273 747.064489917 -10.724554107 746.146466059 -5.15695400753 746.146466059 c 0
 15.1644357459 746.146466059 33.9355100828 758.376416897 41 778 c 0
 42.9355100828 783.376416897 43.8535339413 788.891581915 43.8535339413 794.336624086 c 0
 43.8535339413 814.21068512 31.6235831032 833.150566759 12 841 c 0
EndSplineSet
Validated: 1
EndChar

StartChar: uni05AA
Encoding: 1450 1450 120
Width: 0
Flags: W
HStem: -235 95<-27.5118 27.5118>
VStem: -92 54<-137.349 -45> -28 56<-235 -156.548> 38 54<-137.505 -45>
CounterMasks: 1 70
LayerCount: 3
Fore
SplineSet
-28 -164 m 1
 -60 -160 -92 -136 -92 -105 c 2
 -92 -60 l 2
 -92 -52 -86 -45 -78 -45 c 2
 -52 -45 l 2
 -44 -45 -38 -52 -38 -60 c 2
 -38 -102 l 2
 -38 -123 -21 -140 0 -140 c 0
 21 -140 38 -123 38 -102 c 2
 38 -60 l 2
 38 -52 44 -45 52 -45 c 2
 78 -45 l 2
 86 -45 92 -52 92 -60 c 2
 92 -105 l 2
 92 -137 56 -159 28 -164 c 1
 28 -220 l 2
 28 -228 21 -235 12 -235 c 2
 -12 -235 l 2
 -21 -235 -28 -228 -28 -220 c 2
 -28 -164 l 1
EndSplineSet
Validated: 1
EndChar

StartChar: uni05AB
Encoding: 1451 1451 121
Width: 0
Flags: W
HStem: 810 34<98 108.948>
LayerCount: 3
Fore
SplineSet
85 843 m 2
 87 843 89 844 91 844 c 0
 101 844 109 836 109 826 c 0
 109 819 104 813 98 810 c 2
 -12 764 l 1
 95 720 l 2
 105 716 109 710 109 699 c 2
 109 674 l 2
 109 665 103 662 95 665 c 2
 -99 746 l 2
 -112 751 -112 761 -99 766 c 2
 85 843 l 2
EndSplineSet
Validated: 1
EndChar

StartChar: uni05AC
Encoding: 1452 1452 122
Width: 0
Flags: W
HStem: 665 55<-115 80>
VStem: 80 35<720 838.472>
LayerCount: 3
Fore
SplineSet
80 720 m 1
 80 825 l 2
 80 833 87 840 95 840 c 2
 100 840 l 2
 108 840 115 833 115 825 c 2
 115 680 l 2
 115 672 108 665 100 665 c 2
 -100 665 l 2
 -108 665 -115 672 -115 680 c 2
 -115 705 l 2
 -115 713 -108 720 -100 720 c 2
 80 720 l 1
EndSplineSet
Validated: 1
EndChar

StartChar: uni05AD
Encoding: 1453 1453 123
Width: 0
Flags: W
HStem: -265 54<16.3103 67.7663>
VStem: -68 28<-114.574 -45.0044>
LayerCount: 3
Fore
SplineSet
-40 -57 m 0
 -24 -153 2 -184 55 -211 c 0
 63 -215 68 -225 68 -235 c 0
 68 -252 55 -265 38 -265 c 0
 32 -265 26 -263 21 -259 c 0
 -37 -217 -66 -136 -68 -59 c 0
 -68 -51 -62 -45 -54 -45 c 0
 -47 -45 -41 -50 -40 -57 c 0
EndSplineSet
Validated: 1
EndChar

StartChar: uni05AE
Encoding: 1454 1454 124
Width: 0
Flags: W
HStem: 665 48<48.3372 112.446> 665 32<-101.153 -52.0051> 771 49<-112.446 -47.2698> 787 33<52.0204 101.153>
VStem: -145 32<708.385 767.406> 113 32<716.841 775.929>
LayerCount: 3
Fore
SplineSet
-64 763 m 2x9c
 -69 768 -76 771 -84 771 c 0
 -100 771 -113 758 -113 742 c 0
 -113 717 -92 697 -68 697 c 0
 -59 697 -52 690 -52 681 c 0
 -52 672 -59 665 -68 665 c 0
 -110 665 -145 700 -145 742 c 0
 -145 785 -110 820 -68 820 c 0x6c
 -46 820 -27 811 -13 797 c 2
 64 721 l 2
 69 716 76 713 84 713 c 0
 100 713 113 726 113 742 c 0
 113 767 92 787 68 787 c 0
 59 787 52 795 52 803 c 0
 52 812 59 820 68 820 c 0
 110 820 145 785 145 742 c 0
 145 700 110 665 68 665 c 0
 46 665 27 674 13 688 c 2
 -64 763 l 2x9c
EndSplineSet
Validated: 1
EndChar

StartChar: uni05AF
Encoding: 1455 1455 125
Width: 0
Flags: W
HStem: 665 40<-38.8828 38.8828> 803 40<-38.8828 38.8828>
VStem: -89 40<715.117 792.883> 49 40<715.117 792.883>
LayerCount: 3
Fore
SplineSet
0 843 m 0
 49 843 89 803 89 754 c 0
 89 705 49 665 0 665 c 0
 -49 665 -89 705 -89 754 c 0
 -89 803 -49 843 0 843 c 0
0 803 m 0
 -27 803 -49 781 -49 754 c 0
 -49 727 -27 705 0 705 c 0
 27 705 49 727 49 754 c 0
 49 781 27 803 0 803 c 0
EndSplineSet
Validated: 1
EndChar

StartChar: afii57799
Encoding: 1456 1456 126
Width: 0
Flags: W
HStem: -235 75<-36.0047 36.0047> -120 75<-36.0047 36.0047>
VStem: -38 76<-233.013 -161.995 -118.005 -46.9869>
LayerCount: 3
Fore
SplineSet
0 -45 m 0
 21 -45 38 -62 38 -82 c 0
 38 -103 21 -120 0 -120 c 0
 -21 -120 -38 -103 -38 -82 c 0
 -38 -62 -21 -45 0 -45 c 0
0 -160 m 0
 21 -160 38 -177 38 -198 c 0
 38 -218 21 -235 0 -235 c 0
 -21 -235 -38 -218 -38 -198 c 0
 -38 -177 -21 -160 0 -160 c 0
EndSplineSet
Validated: 1
EndChar

StartChar: afii57801
Encoding: 1457 1457 127
Width: 0
Flags: W
HStem: -235 75<-100.112 -29.8883 95.9953 168.005> -120 75<-168.005 -95.9953 -34.0047 38.0047 95.9953 168.005>
VStem: -170 76<-118.005 -46.9869> -102 74<-233.299 -161.707> -36 76<-118.005 -46.9869> 94 76<-233.013 -161.995 -118.005 -46.9869>
LayerCount: 3
Fore
SplineSet
132 -45 m 0xc4
 153 -45 170 -62 170 -82 c 0
 170 -103 153 -120 132 -120 c 0
 111 -120 94 -103 94 -82 c 0
 94 -62 111 -45 132 -45 c 0xc4
132 -160 m 0
 153 -160 170 -177 170 -198 c 0
 170 -218 153 -235 132 -235 c 0
 111 -235 94 -218 94 -198 c 0
 94 -177 111 -160 132 -160 c 0
2 -45 m 0
 23 -45 40 -62 40 -82 c 0
 40 -103 23 -120 2 -120 c 0
 -19 -120 -36 -103 -36 -82 c 0xcc
 -36 -62 -19 -45 2 -45 c 0
-65 -160 m 0
 -44 -160 -28 -177 -28 -198 c 0
 -28 -218 -44 -235 -65 -235 c 0
 -86 -235 -102 -218 -102 -198 c 0xd4
 -102 -177 -86 -160 -65 -160 c 0
-132 -45 m 0
 -111 -45 -94 -62 -94 -82 c 0
 -94 -103 -111 -120 -132 -120 c 0
 -153 -120 -170 -103 -170 -82 c 0xe4
 -170 -62 -153 -45 -132 -45 c 0
EndSplineSet
Validated: 1
EndChar

StartChar: afii57800
Encoding: 1458 1458 128
Width: 0
Flags: W
HStem: -235 75<94.9953 166.112> -120 75<94.9953 166.112> -110 55<-170 38>
VStem: 93 75<-233.013 -161.995 -118.005 -46.9869>
LayerCount: 3
Fore
SplineSet
131 -45 m 0xd0
 152 -45 168 -62 168 -82 c 0
 168 -103 152 -120 131 -120 c 0
 110 -120 93 -103 93 -82 c 0
 93 -62 110 -45 131 -45 c 0xd0
131 -160 m 0
 152 -160 168 -177 168 -198 c 0
 168 -218 152 -235 131 -235 c 0
 110 -235 93 -218 93 -198 c 0
 93 -177 110 -160 131 -160 c 0
-170 -70 m 2
 -170 -62 -164 -55 -155 -55 c 2
 23 -55 l 2
 32 -55 38 -62 38 -70 c 2
 38 -95 l 2
 38 -103 32 -110 23 -110 c 2
 -155 -110 l 2xb0
 -164 -110 -170 -103 -170 -95 c 2
 -170 -70 l 2
EndSplineSet
Validated: 1
EndChar

StartChar: afii57802
Encoding: 1459 1459 129
Width: 0
Flags: W
HStem: -235 75<94.9953 166.112> -120 75<94.9953 166.112> -110 55<-170 -85.0323 -47.9705 38>
VStem: -104 75<-233.013 -138.425> -85 37<-190.703 -112.034> 93 75<-233.013 -161.995 -118.005 -46.9869>
LayerCount: 3
Fore
SplineSet
131 -45 m 0xc4
 152 -45 168 -62 168 -82 c 0
 168 -103 152 -120 131 -120 c 0
 110 -120 93 -103 93 -82 c 0
 93 -62 110 -45 131 -45 c 0xc4
131 -160 m 0
 152 -160 168 -177 168 -198 c 0
 168 -218 152 -235 131 -235 c 0
 110 -235 93 -218 93 -198 c 0
 93 -177 110 -160 131 -160 c 0
-122 -110 m 2xac
 -155 -110 l 2
 -164 -110 -170 -103 -170 -95 c 2
 -170 -70 l 2
 -170 -62 -164 -55 -155 -55 c 2
 23 -55 l 2
 32 -55 38 -62 38 -70 c 2
 38 -95 l 2
 38 -103 32 -110 23 -110 c 2
 -10 -110 l 2
 -38 -110 -48 -117 -48 -138 c 0xac
 -48 -147 -49 -160 -38 -173 c 0
 -32 -179 -29 -188 -29 -198 c 0
 -29 -218 -45 -235 -66 -235 c 0
 -87 -235 -104 -218 -104 -198 c 0xb4
 -104 -188 -100 -179 -94 -172 c 0
 -83 -160 -85 -147 -85 -138 c 0
 -85 -117 -96 -110 -122 -110 c 2xac
EndSplineSet
Validated: 1
EndChar

StartChar: afii57793
Encoding: 1460 1460 130
Width: 0
Flags: W
HStem: -120 75<-36.0047 36.0047>
VStem: -38 76<-118.005 -46.9869>
LayerCount: 3
Fore
SplineSet
0 -45 m 0
 21 -45 38 -62 38 -82 c 0
 38 -103 21 -120 0 -120 c 0
 -21 -120 -38 -103 -38 -82 c 0
 -38 -62 -21 -45 0 -45 c 0
EndSplineSet
Validated: 1
EndChar

StartChar: afii57794
Encoding: 1461 1461 131
Width: 0
Flags: W
HStem: -120 75<-93.0131 -21.9953 21.9953 93.0131>
VStem: -95 75<-118.005 -46.9869> 20 75<-118.005 -46.9869>
LayerCount: 3
Fore
SplineSet
-95 -82 m 0
 -95 -62 -78 -45 -58 -45 c 0
 -37 -45 -20 -62 -20 -82 c 0
 -20 -103 -37 -120 -58 -120 c 0
 -78 -120 -95 -103 -95 -82 c 0
20 -82 m 0
 20 -62 37 -45 58 -45 c 0
 78 -45 95 -62 95 -82 c 0
 95 -103 78 -120 58 -120 c 0
 37 -120 20 -103 20 -82 c 0
EndSplineSet
Validated: 1
EndChar

StartChar: afii57795
Encoding: 1462 1462 132
Width: 0
Flags: W
HStem: -235 75<-36.0047 36.0047> -120 75<-102.112 -31.8883 31.8883 102.112>
VStem: -104 74<-118.293 -46.7007> -38 76<-233.013 -161.995> 30 74<-118.293 -46.7007>
LayerCount: 3
Fore
SplineSet
67 -45 m 0xc8
 88 -45 104 -62 104 -82 c 0
 104 -103 88 -120 67 -120 c 0
 46 -120 30 -103 30 -82 c 0
 30 -62 46 -45 67 -45 c 0xc8
0 -160 m 0
 21 -160 38 -177 38 -198 c 0
 38 -218 21 -235 0 -235 c 0
 -21 -235 -38 -218 -38 -198 c 0xd0
 -38 -177 -21 -160 0 -160 c 0
-67 -45 m 0
 -46 -45 -30 -62 -30 -82 c 0
 -30 -103 -46 -120 -67 -120 c 0
 -88 -120 -104 -103 -104 -82 c 0xe0
 -104 -62 -88 -45 -67 -45 c 0
EndSplineSet
Validated: 1
EndChar

StartChar: afii57798
Encoding: 1463 1463 133
Width: 0
Flags: W
HStem: -110 55<-115 115>
VStem: -115 230<-110 -55>
LayerCount: 3
Fore
SplineSet
-115 -70 m 2
 -115 -62 -108 -55 -100 -55 c 2
 100 -55 l 2
 108 -55 115 -62 115 -70 c 2
 115 -95 l 2
 115 -103 108 -110 100 -110 c 2
 -100 -110 l 2
 -108 -110 -115 -103 -115 -95 c 2
 -115 -70 l 2
EndSplineSet
Validated: 1
EndChar

StartChar: afii57797
Encoding: 1464 1464 134
Width: 0
Flags: W
HStem: -110.31 55<-115.11 -18.1456 17.9192 114.89>
VStem: -38.1104 76<-233.323 -173.593> -18.1104 36<-172.405 -112.574>
LayerCount: 3
Fore
SplineSet
28 -173 m 1xa0
 27.8896484375 -173.309570312 l 1
 33.8896484375 -179.309570312 37.8896484375 -188.309570312 37.8896484375 -198.309570312 c 0
 37.8896484375 -218.309570312 20.8896484375 -235.309570312 -0.1103515625 -235.309570312 c 0
 -21.1103515625 -235.309570312 -38.1103515625 -218.309570312 -38.1103515625 -198.309570312 c 0xc0
 -38.1103515625 -188.309570312 -34.1103515625 -179.309570312 -28.1103515625 -172.309570312 c 0
 -17.1103515625 -160.309570312 -18.1103515625 -147.309570312 -18.1103515625 -138.309570312 c 0
 -18.1103515625 -117.309570312 -30.1103515625 -110.309570312 -56.1103515625 -110.309570312 c 2
 -100.110351562 -110.309570312 l 2
 -108.110351562 -110.309570312 -115.110351562 -103.309570312 -115.110351562 -95.3095703125 c 2
 -115.110351562 -70.3095703125 l 2
 -115.110351562 -62.3095703125 -108.110351562 -55.3095703125 -100.110351562 -55.3095703125 c 2
 99.8896484375 -55.3095703125 l 2
 107.889648438 -55.3095703125 114.889648438 -62.3095703125 114.889648438 -70.3095703125 c 2
 114.889648438 -95.3095703125 l 2
 114.889648438 -103.309570312 107.889648438 -110.309570312 99.8896484375 -110.309570312 c 2
 55.8896484375 -110.309570312 l 2
 27.8896484375 -110.309570312 17.8896484375 -117.309570312 17.8896484375 -138.309570312 c 0
 17.8896484375 -147.309570312 16.8896484375 -160.309570312 28 -173 c 1xa0
EndSplineSet
Validated: 1
EndChar

StartChar: afii57806
Encoding: 1465 1465 135
Width: 0
Flags: W
HStem: 645 75<-36.0047 36.0047>
VStem: -38 76<646.987 718.005>
LayerCount: 3
Fore
SplineSet
0 720 m 0
 21 720 38 703 38 682 c 0
 38 662 21 645 0 645 c 0
 -21 645 -38 662 -38 682 c 0
 -38 703 -21 720 0 720 c 0
EndSplineSet
Validated: 1
EndChar

StartChar: afii57796
Encoding: 1467 1467 136
Width: 0
Flags: W
HStem: -235 75<69.8883 140.112> -178 76<-36.0047 36.0047> -120 75<-140.112 -69.8883>
VStem: -142 74<-118.293 -46.7007> -38 76<-176.005 -103.995> 68 74<-233.299 -161.707>
CounterMasks: 1 1c
LayerCount: 3
Fore
SplineSet
-142 -82 m 0x3c
 -142 -62 -126 -45 -105 -45 c 0
 -84 -45 -68 -62 -68 -82 c 0
 -68 -103 -84 -120 -105 -120 c 0
 -126 -120 -142 -103 -142 -82 c 0x3c
-38 -140 m 0
 -38 -119 -21 -102 0 -102 c 0
 21 -102 38 -119 38 -140 c 0
 38 -161 21 -178 0 -178 c 0x5c
 -21 -178 -38 -161 -38 -140 c 0
105 -160 m 0x9c
 126 -160 142 -177 142 -198 c 0
 142 -218 126 -235 105 -235 c 0
 84 -235 68 -218 68 -198 c 0
 68 -177 84 -160 105 -160 c 0x9c
EndSplineSet
Validated: 1
EndChar

StartChar: afii57807
Encoding: 1468 1468 137
Width: 0
Flags: W
HStem: 262.5 75.5108<-36.0047 36.0047>
LayerCount: 3
Fore
SplineSet
0 338 m 2
 0 338.5 l 1
 21 338.5 38 321.5 38 300.5 c 0
 38 279.5 21 262.5 0 262.5 c 0
 -21 262.5 -38 279.5 -38 300.5 c 0
 -38 321.198328466 -21.4849124213 338.010753973 -0.902499716675 338.010753973 c 0
 -0.602517618396 338.010753973 -0.301671533525 338 0 338 c 2
EndSplineSet
Validated: 1
EndChar

StartChar: afii57839
Encoding: 1469 1469 138
Width: 0
Flags: W
HStem: -230 185<-28 28>
VStem: -28 56<-230 -45>
LayerCount: 3
Fore
SplineSet
-12 -230 m 2
 -21 -230 -28 -223 -28 -215 c 2
 -28 -60 l 2
 -28 -52 -21 -45 -12 -45 c 2
 12 -45 l 2
 21 -45 28 -52 28 -60 c 2
 28 -215 l 2
 28 -223 21 -230 12 -230 c 2
 -12 -230 l 2
EndSplineSet
Validated: 1
EndChar

StartChar: afii57645
Encoding: 1470 1470 139
Width: 433
Flags: W
HStem: 440 160<36 399>
VStem: 36 363<440.116 599.884>
LayerCount: 3
Fore
SplineSet
36 574 m 2
 36 594 46 600 62 600 c 2
 369 600 l 2
 390 600 399 590 399 575 c 2
 399 465 l 2
 399 450 390 440 369 440 c 2
 62 440 l 2
 46 440 36 446 36 466 c 2
 36 574 l 2
EndSplineSet
Validated: 1
EndChar

StartChar: afii57841
Encoding: 1471 1471 140
Width: 0
Flags: W
HStem: 654 55<-100 100>
VStem: -100 200<654 709>
LayerCount: 3
Fore
SplineSet
-100 694 m 2
 -100 702 -93 709 -85 709 c 2
 85 709 l 2
 93 709 100 702 100 694 c 2
 100 669 l 2
 100 661 93 654 85 654 c 2
 -85 654 l 2
 -93 654 -100 661 -100 669 c 2
 -100 694 l 2
EndSplineSet
Validated: 1
EndChar

StartChar: afii57842
Encoding: 1472 1472 141
Width: 155
Flags: W
HStem: -15 21G<61 94>
VStem: 50 55<-15 660>
LayerCount: 3
Fore
SplineSet
65 -15 m 2
 57 -15 50 -8 50 0 c 2
 50 645 l 2
 50 653 57 660 65 660 c 2
 90 660 l 2
 98 660 105 653 105 645 c 2
 105 0 l 2
 105 -8 98 -15 90 -15 c 2
 65 -15 l 2
EndSplineSet
Validated: 1
EndChar

StartChar: afii57804
Encoding: 1473 1473 142
Width: 0
Flags: W
HStem: 630 75<607.995 680.005>
VStem: 606 76<631.995 703.013>
LayerCount: 3
Fore
SplineSet
644 705 m 0
 665 705 682 688 682 668 c 0
 682 647 665 630 644 630 c 0
 623 630 606 647 606 668 c 0
 606 688 623 705 644 705 c 0
EndSplineSet
Validated: 1
EndChar

StartChar: afii57803
Encoding: 1474 1474 143
Width: 0
Flags: W
HStem: 630 74.9992<136.487 207.505>
VStem: 134.5 75<631.995 702.952>
LayerCount: 3
Fore
SplineSet
172 705 m 2
 171.5 705 l 2
 171.584374756 705 171.668684939 704.999177134 171.75292971 704.999177134 c 0
 192.636332318 704.863344346 209.500000003 687.919642613 209.5 668 c 0
 209.5 647 192.5 630 171.5 630 c 0
 151.5 630 134.5 647 134.5 668 c 0
 134.5 687.919596467 151.363588746 704.863265509 171.75292971 704.999177134 c 0
 171.835229321 704.999177134 171.917586376 705 172 705 c 2
EndSplineSet
Validated: 5
EndChar

StartChar: afii57658
Encoding: 1475 1475 144
Width: 400
Flags: W
HStem: 599.75 20G<196.062 203.688>
VStem: 100.25 199.5<125.186 173.868 495.186 543.868>
LayerCount: 3
Fore
SplineSet
113 501 m 0
 104.5 504.5 100.25 512.5 100.25 520.25 c 0
 100.25 528 104.5 535.5 113 538 c 0
 144 551 169 576 181 607 c 0
 184.5 615.5 192.25 619.75 199.875 619.75 c 0
 207.5 619.75 215 615.5 218 607 c 0
 231 576 256 550 287 538 c 0
 295.5 535 299.75 527.5 299.75 519.875 c 0
 299.75 512.25 295.5 504.5 287 501 c 0
 256 489 230 464 218 433 c 0
 215 424.5 207.5 420.25 200 420.25 c 0
 192.5 420.25 185 424.5 182 433 c 0
 170 464 144 489 113 501 c 0
113 131 m 0
 104.5 134.5 100.25 142.5 100.25 150.25 c 0
 100.25 158 104.5 165.5 113 168 c 0
 144 181 169 206 181 237 c 0
 184.5 245.5 192.25 249.75 199.875 249.75 c 0
 207.5 249.75 215 245.5 218 237 c 0
 231 206 256 180 287 168 c 0
 295.5 165 299.75 157.5 299.75 149.875 c 0
 299.75 142.25 295.5 134.5 287 131 c 0
 256 119 230 94 218 63 c 0
 215 54.5 207.5 50.25 200 50.25 c 0
 192.5 50.25 185 54.5 182 63 c 0
 170 94 144 119 113 131 c 0
EndSplineSet
Validated: 1
EndChar

StartChar: uni05C4
Encoding: 1476 1476 145
Width: 0
Flags: W
HStem: 645 75<-36.0047 36.0047>
VStem: -38 76<646.987 718.005>
LayerCount: 3
Fore
SplineSet
0 720 m 0
 21 720 38 703 38 682 c 0
 38 662 21 645 0 645 c 0
 -21 645 -38 662 -38 682 c 0
 -38 703 -21 720 0 720 c 0
EndSplineSet
Validated: 1
EndChar

StartChar: afii57664
Encoding: 1488 1488 146
Width: 593
Flags: W
HStem: 0 20.9337G<61 165.5 470.347 480.884> 624.407 19.3615G<130.236 136.674 414.745 422.769>
VStem: 51.8511 92.6263<535.844 602.253> 346.923 206.858<466.577 537.463>
LayerCount: 3
Fore
SplineSet
144.477457514 615.206947683 m 0
 144.477457514 605.206947683 145.545084972 594.364745084 149 584 c 0
 171 520 203 484 257 440 c 2
 357 355 l 1
 357 355 368 348 374 359 c 2
 374 359 398 404 404 416 c 0
 409 426 406 437 398 443 c 0
 369 468 355 483 348 521 c 0
 347.251666148 525.490003109 346.923334962 530.365008661 346.923334962 535.402385923 c 0
 346.923334962 557.290837294 353.122500777 582.245001555 358 592 c 0
 369 615 382 627 396 636 c 0
 405.723226248 641.773165585 412.307391583 644.407270257 417.183205356 644.407270257 c 0
 428.354127175 644.407270257 430.557762304 630.580624572 441 609 c 0
 446 598 456 590 467 583 c 0
 491 568 536 545 548 502 c 0
 552.066965197 487.630056303 553.781545553 474.730353132 553.781545553 462.842468514 c 0
 553.781545553 430.884817054 541.390772777 406.239283527 529 380 c 0
 523.808608126 368.133961432 513.667115308 357.917956511 505.917782636 357.917956511 c 0
 503.218023808 357.917956511 500.808608126 359.157901516 499 362 c 0
 489 378 475 391 458 401 c 0
 449 406 437 404 432 394 c 2
 402 338 l 1
 402 338 397 326 406 319 c 0
 488 252 538 207 544 124 c 0
 544.227589857 120.813742 544.340074952 117.598707809 544.340074952 114.366685932 c 0
 544.340074952 74.9954663811 527.648238143 33.1034178571 499 10 c 0
 490.182914789 2.8973480242 483.465316234 -0.0663159716175 478.303616993 -0.0663159716175 c 0
 462.390191267 -0.0663159716175 461.265242899 28.1026519758 459 50 c 0
 454 102 345 185 259 257 c 0
 225 286 183 324 163 340 c 1
 163 340 153 346 146 338 c 0
 137.444796742 328.494218602 119.853605485 309.048850405 119.853605485 285.676484274 c 0
 119.853605485 284.461322929 119.90115628 283.235546505 120 282 c 0
 126 232 190 203 229 148 c 0
 237.5 136 244.5 113.75 244.5 90.125 c 0
 244.5 66.5 237.5 41.5 218 24 c 0
 198 6 179 0 152 0 c 2
 63 0 l 2
 59 0 42 -1 56 15 c 0
 60 20 64 28 68 34 c 0
 74 44 74 57 66 69 c 0
 54.6702438636 86.430394056 41.0618479501 110.696707443 41.0618479501 155.038136571 c 0
 41.0618479501 161.574993941 41.357598514 168.548142762 42 176 c 0
 49 257 63 288 124 358 c 1
 124 358 129 368 122 377 c 0
 89 415 62 440 56 474 c 0
 53.2982759353 488.859482356 51.851121279 502.464395303 51.851121279 515.431011636 c 0
 51.851121279 540.859482356 57.4165946537 563.833189307 70 589 c 0
 77 604 97 627 113 637 c 0
 120.680245889 641.446458146 127.543508719 643.768760337 132.929301037 643.768760337 c 0
 140.418133735 643.768760337 145.050376684 639.278745422 145.050376684 629.76601963 c 0
 145.050376684 624.993277795 144.477457514 620.364782592 144.477457514 615.206947683 c 0
EndSplineSet
Validated: 1
EndChar

StartChar: afii57665
Encoding: 1489 1489 147
Width: 498
Flags: W
HStem: 0 160<69.5 419.036> 624.509 20G<80.9598 86.1971>
VStem: 419.224 28.3365<174 321.285>
LayerCount: 3
Fore
SplineSet
477 160 m 2
 493 160 499 151 493 138 c 2
 445 21 l 2
 440 7 430 0 414 0 c 2
 40 0 l 2
 24 0 18 9 23 22 c 2
 71 139 l 2
 77 153 86 160 102 160 c 2
 403 160 l 2
 412 160 419 161 419 176 c 0
 419.146800806 180.771026186 419.223562563 185.843759045 419.223562563 191.161648737 c 0
 419.223562563 258.294174629 406.990583482 364.495613698 369 396 c 0
 290 462 184 429 122 446 c 0
 65 462 58 496 53 518 c 0
 50.3960623817 529.862382483 49.2151908009 541.473635666 49.2151908009 552.736881765 c 0
 49.2151908009 580.402838186 56.3398960305 605.969118463 67 628 c 0
 72.6377587839 639.275517568 78.2755175677 644.509386752 83.6440166184 644.509386752 c 0
 88.7501568387 644.509386752 93.6127117322 639.774576536 98 631 c 0
 115 596 150 602 188 600 c 0
 239 597 336 601 388 538 c 0
 435.924427539 480.328231267 447.56006119 374.491336103 447.56006119 256.933116593 c 0
 447.56006119 229.764830075 446.938607836 201.970513504 446 174 c 1
 446 174 447 160 461 160 c 2
 477 160 l 2
EndSplineSet
Validated: 1
EndChar

StartChar: afii57666
Encoding: 1490 1490 148
Width: 339
Flags: W
HStem: 0 160<57.5 188.734> 623.999 20G<120.812 128.537>
VStem: 80 195.127<468.463 568.932>
LayerCount: 3
Fore
SplineSet
187 21 m 2
 181 7 172 0 156 0 c 2
 28 0 l 2
 12 0 6 9 11 22 c 2
 59 139 l 2
 65 153 74 160 90 160 c 2
 196 160 l 2
 217 160 228 172 228 194 c 0
 228 280 229 322 236 400 c 1
 236 400 238 422 215 425 c 0
 176 431 140 436 113 461 c 0
 102 472 91 488 86 505 c 0
 80 523 80 543 80 558 c 0
 82 581 90 607 97 618 c 0
 108.27319011 635.178194454 116.664638378 643.999337564 124.9588954 643.999337564 c 0
 132.115402161 643.999337564 139.199552957 637.432261276 148 624 c 0
 160 604 188 598 201 594 c 0
 242 584 268 558 274 526 c 0
 274.78778555 521.667179477 275.127355603 517.23092461 275.127355603 512.68897195 c 0
 275.127355603 484.297332933 261.858755509 451.775583733 261.858755509 414.570866013 c 0
 261.858755509 412.396607769 261.904071483 410.20635588 262 408 c 0
 266 321 309 208 314 163 c 0
 315.855502319 146.609729518 316.945918225 132.419082471 316.945918225 119.038014656 c 0
 316.945918225 89.1497175763 311.505741884 63.3004791315 297 26 c 0
 289.425991679 6.46703117145 282.328705812 -0.512246349597 276.278252901 -0.512246349597 c 0
 267.150665278 -0.512246349597 260.405471932 15.3712723551 258 28 c 0
 253 58 246 100 240 120 c 0
 236 134 229 128 224 116 c 2
 187 21 l 2
EndSplineSet
Validated: 1
EndChar

StartChar: afii57667
Encoding: 1491 1491 149
Width: 523
Flags: W
HStem: -4.68636 21G<400.888 412.211> 440 160<84.8772 391.949> 624.509 20G<65.4599 70.6969>
VStem: 31.599 453.731<467.282 589.182> 385 77.4613<18.4359 333.223> 385 52<-4.22442 129.382>
LayerCount: 3
Fore
SplineSet
173 600 m 2xf0
 417 600 l 2
 477 600 484 563 485 523 c 0
 485.20806272 519.15083968 485.329545249 515.290856835 485.329545249 511.456079687 c 0xf0
 485.329545249 478.429114879 476.3185888 447.27178048 436 441 c 0
 422 439 423 426 423 426 c 1
 430 377 455 210 461 155 c 0
 461.802171606 149.11740822 462.461347816 140.803894693 462.461347816 130.690347078 c 0xe8
 462.461347816 102.980762331 457.513065007 61.758739479 437 20 c 0xe4
 429.201893407 3.02765035668 417.405866876 -4.68635837629 407.017083026 -4.68635837629 c 0
 394.758148057 -4.68635837629 384.458712153 6.05492533827 385 25 c 2xe8
 392 426 l 2
 391 440 384 440 376 440 c 2
 108 440 l 2
 63 440 38 492 34 514 c 0
 32.3607897696 521.961878262 31.5989706182 530.746310661 31.5989706182 539.929533461 c 0
 31.5989706182 569.961878262 39.746766241 604.259359592 52 628 c 0
 57.125235258 639.275517568 62.7758312451 644.509386752 68.1440087617 644.509386752 c 0
 73.2498431613 644.509386752 78.1001882064 639.774576536 82 631 c 0
 96.6511627907 602.511627907 122.565170362 599.861546782 152.192372999 599.861546782 c 0
 158.96430503 599.861546782 165.930232558 600 173 600 c 2xf0
EndSplineSet
Validated: 1
EndChar

StartChar: afii57668
Encoding: 1492 1492 150
Width: 561
Flags: W
HStem: -5.40254 21G<58.4081 67.7388 448.388 459.711> 440 160<95.6423 426.594> 624.509 20G<74.4598 79.6971>
VStem: 40.2201 480.378<467.282 590.031> 426.5 32<342.981 426> 432.5 77.4613<18.4359 292.75> 432.5 52<-4.22442 129.382>
LayerCount: 3
Fore
SplineSet
47.5 27 m 0xe0
 55.5 113 49.5 174 58.5 239 c 0
 63.5 274 79.5 304 98.5 325 c 0
 107.331115494 334.812350549 114.771487763 338.633807204 120.611171267 338.633807204 c 0
 130.225401524 338.633807204 135.500954831 328.275724936 135.500954831 317.240616077 c 0
 135.500954831 314.485729817 135.172162168 311.688648671 134.5 309 c 0
 131.849545417 298.398181668 130.955318208 287.406090586 130.955318208 275.851326721 c 0
 130.955318208 261.248848114 132.383484861 245.747727085 133.5 229 c 0
 133.809016994 218.647930688 134.022542486 208.462971507 134.022542486 198.360285526 c 0
 134.022542486 143.077014326 127.628677107 90.2573542138 95.5 26 c 0
 84.8229160308 4.64583206161 72.4970699653 -5.40253864518 62.9806103915 -5.40253864518 c 0
 53.835544353 -5.40253864518 47.2848629739 3.87683209707 47.2848629739 21.3196950196 c 0
 47.2848629739 23.1259998521 47.3551108225 25.0198479078 47.5 27 c 0xe0
182 600 m 2
 452.5 600 l 2
 512.5 600 519.5 563 520.5 523 c 0
 520.5625 520.6875 520.59765625 518.37109375 520.59765625 516.05859375 c 0xf0
 520.59765625 481.37109375 512.6875 447.5625 470.5 441 c 0
 457.5 439 458.5 426 458.5 426 c 1xe8
 465.5 377 502.5 210 508.5 155 c 0
 509.302171606 149.11740822 509.961347816 140.803894693 509.961347816 130.690347078 c 0xe4
 509.961347816 102.980762331 505.013065007 61.758739479 484.5 20 c 0xe2
 476.701893407 3.02765035668 464.905866876 -4.68635837629 454.517083026 -4.68635837629 c 0
 442.258148057 -4.68635837629 431.958712153 6.05492533827 432.5 25 c 2xe4
 426.5 426 l 2xe8
 426.5 440 419.5 440 411.5 440 c 2
 117.5 440 l 2
 71.5 440 46.5 492 42.5 514 c 0
 40.9353956202 521.599506987 40.2200928059 529.948397709 40.2200928059 538.678175599 c 0xf0
 40.2200928059 569.005200836 48.8527236709 603.928962253 60.5 628 c 0
 66.1377587839 639.275517568 71.7755175677 644.509386752 77.1440166184 644.509386752 c 0
 82.2501568387 644.509386752 87.1127117322 639.774576536 91.5 631 c 0
 105.337209302 602.511627907 131.099783667 599.861546782 160.96844303 599.861546782 c 0
 167.79556517 599.861546782 174.837209302 600 182 600 c 2
EndSplineSet
Validated: 1
EndChar

StartChar: afii57669
Encoding: 1493 1493 151
Width: 266
Flags: W
HStem: -4.68636 21G<159.888 171.211> 623.999 20G<71.313 79.0357>
VStem: 31.6622 191.775<461.82 568.711> 144 77.4613<18.4359 299.489> 155.076 68.3617<261.366 501.148>
LayerCount: 3
Fore
SplineSet
221 523 m 0xe0
 222.620823482 514.201243954 223.437442242 505.456101557 223.437442242 496.83905703 c 0xe0
 223.437442242 468.240875869 214.442890919 441.053613648 196 418 c 0
 192 412 185 401 187 390 c 0
 198 322 214 210 220 155 c 0
 220.802171606 149.11740822 221.461347816 140.803894693 221.461347816 130.690347078 c 0
 221.461347816 102.980762331 216.513065007 61.758739479 196 20 c 0
 188.201893407 3.02765035668 176.405866876 -4.68635837629 166.017083026 -4.68635837629 c 0
 153.758148057 -4.68635837629 143.458712153 6.05492533827 144 25 c 2xd0
 144 25 155.0757674 270.859962981 155.0757674 394.123701063 c 0xc8
 155.0757674 407.296906477 146.339946049 419.203093523 134 423 c 0
 118 427 91 435 75 446 c 0
 58 458 44 476 38 496 c 0
 33.2915026221 510.910241697 31.6621646272 531.362970283 31.6621646272 546.726162245 c 0
 31.6621646272 550.940161131 31.784749563 554.771243445 32 558 c 0
 33 581 41 607 48 618 c 0
 58.7363715335 635.178194454 67.1673495929 643.999337564 75.4586957543 643.999337564 c 0
 82.6126909458 643.999337564 89.6627343802 637.432261276 98 624 c 0
 111 604 138 598 152 594 c 0
 193 584 215 554 221 523 c 0xe0
EndSplineSet
Validated: 1
EndChar

StartChar: afii57670
Encoding: 1494 1494 152
Width: 291
Flags: W
HStem: -7.17111 21G<133.915 141.92> 624.245 20G<70.6958 78.9636>
VStem: 30.6515 227.432<469.688 554.35> 96.5235 93.8212<69.5284 317.945> 127.768 28.0783<-6.0115 46.3252 362.22 424.778>
LayerCount: 3
Fore
SplineSet
99 292 m 0xd0
 106 343 116 365 126 406 c 0
 127.202041029 410.327347704 127.768324898 414.307918775 127.768324898 417.900029241 c 0xc8
 127.768324898 429.24963199 122.115101531 436.721224617 113 439 c 0
 94 444 77 452 64 463 c 0
 51 473 42 488 36 505 c 0
 32.123724357 518.954592315 30.6515307717 534.111225659 30.6515307717 547.208290378 c 0
 30.6515307717 551.005102572 30.7752551286 554.628826929 31 558 c 0
 32 581 41 607 48 618 c 0
 58.7114735222 635.138357636 66.2677162565 644.24521872 75.1238098401 644.24521872 c 0
 82.8034310958 644.24521872 91.460489255 637.397216041 104 623 c 0
 114 610 145 602 162 600 c 0
 203 595 228 578 244 555 c 0
 253.388888889 541.277777778 258.083333333 517.645061728 258.083333333 493.143004115 c 0xe0
 258.083333333 483.719135802 257.388888889 474.166666667 256 465 c 0
 251.131043674 431.728798439 242.969485167 421.505812147 234.187247182 421.505812147 c 0
 232.147160138 421.505812147 230.073580069 422.057463605 228 423 c 0
 218.162353167 427.099019514 206.980549457 430.525960588 193.352643814 430.525960588 c 0
 190.357176968 430.525960588 187.243529751 430.360392195 184 430 c 0
 169 430 161 418 158 400 c 0
 156.503332297 388.96207569 155.846669924 379.254159819 155.846669924 370.437538883 c 0xc8
 155.846669924 332.127488119 168.245001555 310.645826856 178 270 c 0
 185.562391868 239.750432527 190.344725435 216.252435215 190.344725435 184.739227977 c 0
 190.344725435 166.247292207 188.698006777 144.995449469 185 118 c 0
 180 82 174 59 163 26 c 0
 156.272336462 6.33452196538 146.06302241 -7.17111285207 137.777451662 -7.17111285207 c 0
 130.052646875 -7.17111285207 124 4.56826737136 124 34 c 0
 124 72 120 106 115 136 c 0
 106.376373263 183.037964022 96.5235409366 214.710858188 96.5235409366 255.591897003 c 0
 96.5235409366 266.857297344 97.2717285363 278.821930089 99 292 c 0xd0
EndSplineSet
Validated: 1
EndChar

StartChar: afii57671
Encoding: 1495 1495 153
Width: 559
Flags: W
HStem: -5.40254 21G<65.9081 75.2388 446.888 458.211> 440 160<139.123 425.094> 624.509 20G<72.9598 78.1971>
VStem: 38.7201 480.378<460.72 590.031> 56.92 68.7528<162.61 385.71> 58.4444 76.582<39.0534 219.039> 425 32<342.981 426> 431 77.4613<18.4359 292.75> 431 52<-4.22442 129.382>
LayerCount: 3
Fore
SplineSet
158 440 m 1xe2
 143 427 132 402 129 383 c 0
 126.572620372 368.705431077 125.672840855 351.93760483 125.672840855 334.619221833 c 0xea
 125.672840855 287.726203716 132.269708848 236.796696505 133 220 c 0
 133.919321742 199.468481106 135.026455142 180.439455483 135.026455142 161.733084298 c 0
 135.026455142 119.395415054 129.355257941 78.7105158819 103 26 c 0
 92.3229160308 4.64583206161 79.9970699653 -5.40253864518 70.4806103915 -5.40253864518 c 0
 61.335544353 -5.40253864518 54.7848629739 3.87683209707 54.7848629739 21.3196950196 c 0
 54.7848629739 23.1259998521 54.8551108225 25.0198479078 55 27 c 0
 57.6666666667 55.6666666667 58.4444444444 83.6666666667 58.4444444444 110.703703704 c 0xe4
 58.4444444444 148.555555556 56.92 184.52 56.92 217.784 c 0xe8
 56.92 232.04 57.2 245.8 58 259 c 0
 61 306 65 371 113 440 c 1
 47 451 45 492 41 514 c 0
 39.4353956202 521.599506987 38.7200928059 529.948397709 38.7200928059 538.678175599 c 0
 38.7200928059 569.005200836 47.3527236709 603.928962253 59 628 c 0
 64.6377587839 639.275517568 70.2755175677 644.509386752 75.6440166184 644.509386752 c 0
 80.7501568387 644.509386752 85.6127117322 639.774576536 90 631 c 0
 103.837209302 602.511627907 129.599783667 599.861546782 159.198812683 599.861546782 c 0
 165.96430503 599.861546782 172.930232558 600 180 600 c 2
 451 600 l 2
 511 600 518 563 519 523 c 0
 519.0625 520.6875 519.09765625 518.37109375 519.09765625 516.05859375 c 0xf0
 519.09765625 481.37109375 511.1875 447.5625 469 441 c 0
 456 439 457 426 457 426 c 1xe2
 464 377 501 210 507 155 c 0
 507.802171606 149.11740822 508.461347816 140.803894693 508.461347816 130.690347078 c 0xe1
 508.461347816 102.980762331 503.513065007 61.758739479 483 20 c 0xe080
 475.201893407 3.02765035668 463.405866876 -4.68635837629 453.017083026 -4.68635837629 c 0
 440.758148057 -4.68635837629 430.458712153 6.05492533827 431 25 c 2xe1
 425 426 l 2
 425 440 418 440 410 440 c 2
 158 440 l 1xe2
EndSplineSet
Validated: 1
EndChar

StartChar: afii57672
Encoding: 1496 1496 154
Width: 576
Flags: W
HStem: 0 160<135.003 498> 623.999 20G<72.9687 80.5868>
VStem: 32.6515 197.411<468.399 553.346> 72.8731 49.1269<182.467 372.331> 256 30<265.052 344.246> 524.136 33.1996<172.926 328.091>
LayerCount: 3
Fore
SplineSet
102 440 m 0xdc
 85 445 79 448 66 461 c 0
 54 472 44 488 38 505 c 0
 34.123724357 518.954592315 32.6515307717 534.111225659 32.6515307717 547.208290378 c 0
 32.6515307717 551.005102572 32.7752551286 554.628826929 33 558 c 0
 34 581 43 607 50 618 c 0
 60.7363715335 635.178194454 68.8791754087 643.999337564 77.0582649678 643.999337564 c 0
 84.115402161 643.999337564 91.1995529568 637.432261276 100 624 c 0
 112 604 140 598 154 594 c 0
 181 587 203 573 215 554 c 0
 225.169341063 540.198751414 230.062381225 516.900161207 230.062381225 492.535965629 c 0xec
 230.062381225 483.358289027 229.368092477 474.029410351 228 465 c 0
 222.678332313 428.635270803 209.489957133 411.150639589 198.900875227 411.150639589 c 0
 197.551126081 411.150639589 196.24360924 411.434723073 195 412 c 0
 183 416 180 420 164 421 c 0
 154 422 147 415 144 408 c 0
 128 374 122 346 122 310 c 0
 123 262 126 233 135 180 c 1
 135 180 139 160 160 160 c 2
 498 160 l 1
 498 160 518 161 521 181 c 0
 523.022703843 199.429079454 524.136223055 216.999484536 524.136223055 233.779326772 c 0
 524.136223055 291.661220452 510.886480787 340.136223055 476 382 c 0
 451.248188463 411.3927762 412.137341589 437.195793566 377.641284374 437.195793566 c 0
 367.539642984 437.195793566 357.833729689 434.983129568 349 430 c 0
 319 413 298 354 286 284 c 0
 284 270 278 263 268 265 c 0
 260 266 254 274 256 287 c 0
 267 399 291 506 323 596 c 1
 323 596 329 616 351 614 c 0
 446 605 510 529 544 383 c 0
 553.471036395 342.409844022 557.33578964 299.645823148 557.33578964 256.952575924 c 0
 557.33578964 173.428282381 542.543717505 90.174870018 526 24 c 1
 526 24 522 0 496 0 c 2
 106 0 l 1
 106 0 84 1 83 20 c 0
 77 117 77 157 73 250 c 0
 72.914695868 252.089951233 72.8730525057 254.218105639 72.8730525057 256.380738775 c 0
 72.8730525057 304.922170871 93.8530413196 370.834038837 113 412 c 0
 118 421 119 435 102 440 c 0xdc
EndSplineSet
Validated: 1
EndChar

StartChar: afii57673
Encoding: 1497 1497 155
Width: 266
Flags: W
HStem: 301.471 343.515
VStem: 169.593 64.9123<365.287 479.814>
LayerCount: 3
Fore
SplineSet
229 419 m 0
 223 390 206 357 182 324 c 0
 174.763750658 314.351667544 165.588119666 301.471032338 156.552195793 301.471032338 c 0
 154.349795638 301.471032338 152.155695248 302.236249342 150 304 c 0
 145.041522987 307.814213087 143.283654698 313.228730536 143.283654698 318.967281963 c 0
 143.283654698 328.273908389 147.907106544 338.432791778 151 344 c 0
 160.957550765 361.923591378 169.593063967 376.321749253 169.593063967 391.290019985 c 0
 169.593063967 398.869870399 167.378612517 406.595917942 162 415 c 0
 148 436 127 433 100 445 c 0
 76 456 53 473 38 508 c 0
 31.4460180984 524.020844648 29.1344736058 545.344736058 29.1344736058 562.317209647 c 0
 29.1344736058 568.651523381 29.4564404226 574.379743592 30 579 c 0
 33 604 39 619 49 631 c 0
 57.5357407531 640.816101866 64.2500097512 644.985641291 70.0756636355 644.985641291 c 0
 77.9000351042 644.985641291 84.1214444519 637.464259247 91 626 c 0
 104 606 118 598 145 592 c 0
 170 587 200 571 216 541 c 0
 229.665257283 516.640193539 234.505407921 491.927382811 234.505407921 467.700505925 c 0
 234.505407921 451.151116633 232.246867032 434.828476781 229 419 c 0
EndSplineSet
Validated: 1
EndChar

StartChar: afii57674
Encoding: 1498 1498 156
Width: 496
Flags: W
HStem: 440 160<84.8772 363.995> 624.509 20G<65.4599 70.6969>
VStem: 31.599 426.499<467.282 589.182> 356 77.0328<-262.326 117.726> 356 52<-284.188 -149.582> 364 32<199.303 426>
LayerCount: 3
Fore
SplineSet
173 600 m 2xe0
 390 600 l 2
 450 600 457 563 458 523 c 0
 458.0625 520.6875 458.09765625 518.37109375 458.09765625 516.05859375 c 0xe0
 458.09765625 481.37109375 450.1875 447.5625 408 441 c 0xc8
 395 439 396 426 396 426 c 1xc4
 403 377 425 -70 432 -125 c 0
 432.516397779 -130.680375574 433.032795559 -138.627417816 433.032795559 -148.273089166 c 0xd0
 433.032795559 -175.984942318 428.770431087 -217.717336716 408 -260 c 0xc8
 399.743181255 -276.972349643 387.909276248 -284.686358376 377.613885319 -284.686358376 c 0
 365.465155523 -284.686358376 355.458712153 -273.945074662 356 -255 c 2xd0
 364 426 l 2xc4
 364 440 357 440 349 440 c 2
 108 440 l 2
 63 440 38 492 34 514 c 0
 32.3607897696 521.961878262 31.5989706182 530.746310661 31.5989706182 539.929533461 c 0
 31.5989706182 569.961878262 39.746766241 604.259359592 52 628 c 0
 57.125235258 639.275517568 62.7758312451 644.509386752 68.1440087617 644.509386752 c 0
 73.2498431613 644.509386752 78.1001882064 639.774576536 82 631 c 0
 96.6511627907 602.511627907 122.565170362 599.861546782 152.192372999 599.861546782 c 0
 158.96430503 599.861546782 165.930232558 600 173 600 c 2xe0
EndSplineSet
Validated: 1
EndChar

StartChar: afii57675
Encoding: 1499 1499 157
Width: 501
Flags: W
HStem: 0 160<66.7305 414.043> 624.509 20G<88.1902 93.4276>
VStem: 451.505 27.4945<160.316 300.073>
LayerCount: 3
Fore
SplineSet
479 185 m 1
 479.23046875 185 l 1
 478.23046875 162 470.23046875 144 470.23046875 144 c 1
 412.23046875 21 l 2
 405.23046875 8 397.23046875 0 381.23046875 0 c 2
 36.23046875 0 l 2
 20.23046875 0 14.23046875 9 20.23046875 22 c 2
 68.23046875 139 l 2
 73.23046875 153 82.23046875 160 98.23046875 160 c 2
 435.23046875 160 l 2
 444.23046875 160 451.23046875 161 451.23046875 176 c 0
 451.414598553 182.076283515 451.50549295 188.016951892 451.50549295 193.827467491 c 0
 451.50549295 251.130206659 442.66536542 295.774660972 427.23046875 333 c 0
 411.23046875 372 380.23046875 404 346.23046875 421 c 0
 309.189346287 439.244134944 261.756260891 440.677741613 218.463248365 440.677741613 c 0
 210.390741652 440.677741613 202.462177493 440.627897803 194.771766163 440.627897803 c 0
 169.104150147 440.627897803 146.089475649 441.183140886 129.23046875 446 c 0
 72.23046875 462 65.23046875 496 60.23046875 518 c 0
 57.6265311317 529.862382483 56.4456595509 541.473635666 56.4456595509 552.736881765 c 0
 56.4456595509 580.402838186 63.5703647805 605.969118463 74.23046875 628 c 0
 79.8682275339 639.275517568 85.5059863177 644.509386752 90.8744853684 644.509386752 c 0
 95.9806255887 644.509386752 100.843180482 639.774576536 105.23046875 631 c 0
 122.23046875 596 157.23046875 602 196.23046875 600 c 0
 245.23046875 596 365.23046875 604 421.23046875 532 c 0
 468.374273944 471.386536179 480.082199544 368.250016843 480.082199544 251.825630572 c 0
 480.082199544 229.954739144 479.669033132 207.614926021 479 185 c 1
EndSplineSet
Validated: 1
EndChar

StartChar: afii57676
Encoding: 1500 1500 158
Width: 510
Flags: W
HStem: -5 21G<238 267> 440 160<78.5625 418.268>
VStem: 32.6263 44.2487<601.607 736.332> 78.0303 63.9697<769.269 814.935> 200.615 94.3848<2.29774 93.8775> 200.615 82.7066<25.5467 127.595> 425.097 49.9027<316.51 432.894>
LayerCount: 3
Fore
SplineSet
41 874 m 0xfa
 42.7920739019 888.336591215 45.3870300213 899.461653561 60.2954625044 899.461653561 c 0
 62.025219403 899.461653561 63.9207390192 899.311889147 66 899 c 0
 117 891 142 833 142 812 c 0
 142 787 99 756 87 737 c 0
 78 722.75 76.875 707.9375 76.875 682.015625 c 0
 76.875 673.375 77 663.5 77 652 c 0
 77 646.074074074 76.8285322359 640.559670782 76.8285322359 635.507595387 c 0
 76.8285322359 613.278463649 80.1481481481 600 116 600 c 2
 386 600 l 2
 430 600 463 586 470 544 c 0
 475.260869565 513.391304348 476.633270321 488.958412098 476.633270321 465.559792882 c 0
 476.633270321 440.034026465 475 415.739130435 475 386 c 0
 475 319 409 268 345 209 c 0
 327 193 294 155 284 101 c 0
 283.529411765 98.7647058824 283.321799308 96.6401384083 283.321799308 94.593730918 c 0xf6
 283.321799308 79.2456747405 295 68.2941176471 295 48 c 0
 295 20 282 -5 252 -5 c 0
 224 -5 204 17 201 45 c 0
 200.7399948 47.3400468019 200.615195008 49.7368798753 200.615195008 52.1809373024 c 0
 200.615195008 96.7370442018 242.092021841 156.988019761 262 175 c 0
 394.617886898 293.097680304 425.097251347 318.427344804 425.097251347 368.909126922 c 0
 425.097251347 370.577204162 425.063972454 372.272743741 425 374 c 0
 423 418 416 440 359 440 c 2
 116 440 l 2
 58 440 33 472 33 516 c 0
 33 553.411764706 32.6262975779 585.716262976 32.6262975779 613.265214736 c 0
 32.6262975779 663.771626298 33.8823529412 698.294117647 41 719 c 0
 54.7159662412 759.168186849 78.0302860502 767.661806925 78.0302860502 783.035706182 c 0
 78.0302860502 799.932628319 48.0731708031 813.853658394 42 826 c 0
 40 829.5 39.25 837.5 39.25 846.625 c 0
 39.25 855.75 40 866 41 874 c 0xfa
EndSplineSet
Validated: 1
EndChar

StartChar: afii57677
Encoding: 1501 1501 159
Width: 542
Flags: W
HStem: 0 160<116.5 465.422> 440 160<141.459 434.375> 624.509 20G<76.4598 81.6971>
VStem: 53.5 63<160 370.841> 465.5 33<161.438 398.259>
LayerCount: 3
Fore
SplineSet
153.5 440 m 1
 138.5 411 116.5 366 116.5 297 c 2
 116.5 185 l 2
 116.5 169 124.5 160 142.5 160 c 2
 438.5 160 l 2
 453.5 160 465.5 167 465.5 189 c 2
 465.5 344 l 2
 465.5 394 427.5 440 369.5 440 c 2
 153.5 440 l 1
184 600 m 2
 378.5 600 l 2
 466.5 600 498.5 522 498.5 440 c 2
 498.5 25 l 2
 498.5 10 489.5 0 468.5 0 c 2
 78.5 0 l 2
 62.5 0 52.5 6 52.5 26 c 2
 53.5 240 l 2
 53.5 341 92.5 405 118.5 440 c 1
 65.5 440 48.5 492 44.5 514 c 0
 43.2177978871 521.265811973 42.6206133818 529.216641554 42.6206133818 537.530434034 c 0
 42.6206133818 568.120613382 50.7055052823 603.624710917 62.5 628 c 0
 68.1377587839 639.275517568 73.7755175677 644.509386752 79.1440166184 644.509386752 c 0
 84.2501568387 644.509386752 89.1127117322 639.774576536 93.5 631 c 0
 107.337209302 602.511627907 133.099783667 599.861546782 162.96844303 599.861546782 c 0
 169.79556517 599.861546782 176.837209302 600 184 600 c 2
EndSplineSet
Validated: 1
EndChar

StartChar: afii57678
Encoding: 1502 1502 160
Width: 581
Flags: W
HStem: 0.5 160<191.29 509.384> 617.341 20G<108.232 115.579>
VStem: 53.9356 69.0131<11.7037 275.751> 535.79 32<160.535 281.42>
LayerCount: 3
Fore
SplineSet
101 378 m 1
 100.790039062 378.5 l 1
 71.7900390625 406.5 44.7900390625 448.5 41.7900390625 478.5 c 0
 40.4312239125 490.72933635 39.4186047523 501.92008473 39.4186047523 512.97387649 c 0
 39.4186047523 534.45958581 43.2444110249 555.427855287 55.7900390625 582.5 c 0
 66.7900390625 605.5 80.7900390625 619.5 93.7900390625 630.5 c 0
 99.8318567795 635.120213548 105.621054695 637.340538982 110.843398116 637.340538982 c 0
 120.315281221 637.340538982 127.922445315 630.036578114 131.790039062 616.5 c 0
 136.790039062 599.5 157.790039062 588.5 169.790039062 583.5 c 0
 193.790039062 573.5 215.790039062 541.5 229.790039062 481.5 c 0
 231.790039062 474.5 238.790039062 466.5 247.790039062 472.5 c 0
 281.790039062 496.5 289.790039062 560.5 293.790039062 601.5 c 0
 295.790039062 617.5 304.790039062 625.5 317.790039062 624.5 c 0
 403.790039062 618.5 450.790039062 579.5 483.790039062 537.5 c 0
 548.790039062 456.5 565.790039062 326.5 567.790039062 185.5 c 0
 567.790039062 169.5 558.790039062 144.5 558.790039062 144.5 c 1
 507.790039062 21.5 l 2
 500.790039062 8.5 492.790039062 0.5 476.790039062 0.5 c 2
 160.790039062 0.5 l 2
 144.790039062 0.5 138.790039062 9.5 144.790039062 22.5 c 2
 192.790039062 139.5 l 2
 197.790039062 153.5 207.790039062 160.5 223.790039062 160.5 c 2
 519.790039062 160.5 l 2
 528.790039062 160.5 535.790039062 167.5 535.790039062 176.5 c 0
 534.790039062 226.5 524.790039062 323.5 458.790039062 388.5 c 0
 399.790039062 446.5 342.790039062 449.5 301.790039062 449.5 c 0
 242.790039062 449.5 166.790039062 407.5 143.790039062 354.5 c 0
 127.099761507 315.409613095 122.948783617 278.827086123 122.948783617 243.142539148 c 0
 122.948783617 207.825399558 127.014724769 173.387843989 127.014724769 138.269208159 c 0
 127.014724769 128.082801971 126.672644683 117.839094415 125.790039062 107.5 c 0
 123.790039062 78.5 117.790039062 55.5 108.790039062 33.5 c 0
 100.960678053 14.7095335781 90.4069217636 0.550539133057 80.8260177186 0.550539133057 c 0
 72.0512014809 0.550539133057 64.092422457 12.4272310395 59.7900390625 43.5 c 0
 56.377663236 69.6615480028 53.9356464747 93.5589248538 53.9356464747 120.34293249 c 0
 53.9356464747 140.653399199 55.3398734978 162.623758265 58.7900390625 188.5 c 0
 66.7900390625 246.5 87.7900390625 304.5 107.790039062 344.5 c 0
 113.790039062 356.5 110.790039062 368.5 101 378 c 1
EndSplineSet
Validated: 1
EndChar

StartChar: afii57679
Encoding: 1503 1503 161
Width: 273
Flags: W
HStem: 623.929 20G<72.9687 80.5868>
VStem: 31.6716 205.249<466.284 568.296> 104.478 49.0898<90.868 360.626> 111.245 82.6501<-212.791 161.926>
LayerCount: 3
Fore
SplineSet
82 447 m 1xa0
 82 446.9296875 l 1
 63 455.9296875 46 476.9296875 39 495.9296875 c 0
 33.4497474683 512.580445095 31.6715728753 527.973843377 31.6715728753 541.61140651 c 0
 31.6715728753 545.173590846 31.7928932188 548.615979001 32 551.9296875 c 0
 33 573.9296875 43 606.9296875 50 617.9296875 c 0
 60.7363715335 635.107881954 68.8791754087 643.929025064 77.0582649678 643.929025064 c 0
 84.115402161 643.929025064 91.1995529568 637.361948776 100 623.9296875 c 0
 112 603.9296875 140 599.9296875 154 595.9296875 c 0
 182 589.9296875 200 584.9296875 216 568.9296875 c 0
 230.686160511 555.502340747 236.921056608 535.736545684 236.921056608 515.025465214 c 0xc0
 236.921056608 486.377980119 224.992257833 455.921945333 207 437.9296875 c 0
 194 424.9296875 187 411.9296875 187 411.9296875 c 1
 171 376.9296875 159 353.9296875 155 321.9296875 c 0
 154.008918629 312.811738884 153.567892937 303.025865514 153.567892937 292.78233951 c 0xa0
 153.567892937 251.347333857 160.783946468 202.424224964 168 159.9296875 c 0
 179.407443861 92.3625200149 193.894882407 -46.0445252269 193.894882407 -110.022288813 c 0
 193.894882407 -118.954016323 193.612521592 -126.435113855 193 -132.0703125 c 0
 188 -173.0703125 172 -213.0703125 138 -264.0703125 c 0
 130.353308645 -275.115533347 121.804273328 -280.024815257 114.652875973 -280.024815257 c 0
 105.660525519 -280.024815257 98.8780073642 -272.262655073 98.8780073642 -259.177100493 c 0
 98.8780073642 -192.49602822 109.983935761 -114.500029775 111 -24.0703125 c 0
 111.168607015 -15.6399617399 111.244821972 -7.52232256106 111.244821972 0.335330402758 c 0x90
 111.244821972 74.3746384321 104.478086121 125.331101451 104.478086121 197.313812417 c 0
 104.478086121 208.309413794 104.635978366 219.795633036 105 231.9296875 c 0
 107 298.9296875 118 345.9296875 151 413.9296875 c 0
 154 419.9296875 155 427.9296875 144 429.9296875 c 0
 123 432.9296875 105 435.9296875 82 447 c 1xa0
EndSplineSet
Validated: 1
EndChar

StartChar: afii57680
Encoding: 1504 1504 162
Width: 347
Flags: W
HStem: 0 160<54.5 233.719> 623.999 20G<128.655 137.268>
VStem: 86.6515 208.582<469.188 566.015> 229.901 40.0803<299.224 397.689> 234.121 80.7318<160 302.636>
LayerCount: 3
Fore
SplineSet
217 0 m 2xc8
 24 0 l 2
 8 0 3 9 8 22 c 2
 56 139 l 2
 62 153 71 160 87 160 c 2
 212 160 l 2
 228.566586652 160 234.121218634 168.470734361 234.121218634 180.734497923 c 0xc8
 234.121218634 222.062502137 229.900826446 254.880063361 229.900826446 279.58527423 c 0xd0
 229.900826446 322.595041322 233.545454545 350.363636364 238 400 c 1
 238 400 239 422 217 425 c 0
 177 431 146 436 120 461 c 0
 108 472 98 488 92 505 c 0
 88.123724357 518.954592315 86.6515307717 534.111225659 86.6515307717 547.208290378 c 0
 86.6515307717 551.005102572 86.7752551286 554.628826929 87 558 c 0
 88 581 97 607 104 618 c 0
 114.736371534 635.178194454 124.031872146 643.999337564 133.278777135 643.999337564 c 0
 141.257254037 643.999337564 149.199552957 637.432261276 158 624 c 0
 170 604 204 598 217 594 c 0
 258 584 285 558 292 526 c 0
 294.279069767 515.581395349 295.233098972 506.169821525 295.233098972 497.592715107 c 0xe0
 295.233098972 451.701192806 269.981102902 431.804159676 269.981102902 405.234805962 c 0xd0
 269.981102902 333.401076302 308.063239867 270.785794555 313 176 c 0
 313.979820833 158.689831959 314.852969569 142.979745357 314.852969569 128.172943249 c 0
 314.852969569 97.6445117627 311.141254172 70.9559014004 297 42 c 0
 276 0 234 0 217 0 c 2xc8
EndSplineSet
Validated: 1
EndChar

StartChar: afii57681
Encoding: 1505 1505 163
Width: 512
Flags: W
HStem: 0 160<106.501 430.938> 440.361 159.639<146.962 388.446> 624.509 20G<76.4598 81.6971>
VStem: 46.487 51.9155<161.379 341.452> 455.593 32.8354<161.29 368.331>
LayerCount: 3
Fore
SplineSet
163.5 440 m 1
 126.740168243 387.762344345 98.4024743507 343.011033459 98.4024743507 275.872733302 c 0
 98.4024743507 273.607685184 98.4347279872 271.317156454 98.5 269 c 0
 100.5 235 101.5 223 106.5 185 c 0
 109.5 162 120.5 160 134.5 160 c 2
 430.5 160 l 2
 448.5 160 455.5 170 455.5 185 c 0
 455.5 196.470588235 455.593425606 208.875432526 455.593425606 221.758396092 c 0
 455.593425606 281.878892734 453.558823529 352.411764706 430.5 387 c 0
 415.5 410 376.5 433 338.5 436 c 0
 301.83126292 439.05572809 246.48757752 440.360679775 201.4475506 440.360679775 c 0
 187.529416855 440.360679775 174.595194942 440.236067977 163.5 440 c 1
184 600 m 2
 184.5 600 l 1
 233.5 596 376.5 612 432.5 540 c 0
 479.508692466 479.795885087 488.428815719 376.061976789 488.428815719 260.771379329 c 0
 488.428815719 236.267319451 488.025858291 211.241197981 487.5 186 c 0
 486.5 169 482.5 150 475.5 134 c 2
 429.5 22 l 2
 424.5 10 411.5 0 394.5 0 c 2
 88.5 0 l 2
 72.5 0 63.5 8 63.5 25 c 0
 62.5 48 61.5 82 59.5 108 c 0
 50.4536734291 208.514739676 46.4870100661 170.864985526 46.4870100661 244.574248503 c 0
 46.4870100661 304.954927757 102.708314999 416.208314999 126.5 440 c 1
 74.5 450 53.5 496 48.5 518 c 0
 45.8960623817 529.862382483 44.7151908009 541.473635666 44.7151908009 552.736881765 c 0
 44.7151908009 580.402838186 51.8398960305 605.969118463 62.5 628 c 0
 68.1377587839 639.275517568 73.7755175677 644.509386752 79.1440166184 644.509386752 c 0
 84.2501568387 644.509386752 89.1127117322 639.774576536 93.5 631 c 0
 110.5 596 145.5 602 184 600 c 2
EndSplineSet
Validated: 1
EndChar

StartChar: afii57682
Encoding: 1506 1506 164
Width: 552
Flags: W
HStem: 621.732 20G<64.4077 73.6549 358.39 366.257>
VStem: 139.046 31.7378<326.464 431.679>
LayerCount: 3
Fore
SplineSet
138 404 m 0
 138.71453118 407.572655899 139.046146254 410.858124719 139.046146254 413.856406461 c 0
 139.046146254 427.64273441 132.035039256 435.35726559 123 437 c 0
 102 439 85 446 71 456 c 0
 58 465 47 479 40 496 c 0
 33 514 31 533 30 548 c 0
 29.9262397541 549.696485657 29.8905635253 551.409293035 29.8905635253 553.131600068 c 0
 29.8905635253 574.759364755 35.5163217216 597.885122951 42 609 c 0
 51.8677578671 628.735515734 59.0400791855 641.732440097 69.7752969455 641.732440097 c 0
 77.5345238585 641.732440097 87.1550593891 634.942658885 101 619 c 0
 112 606 140 602 157 601 c 0
 198 600 224 585 242 564 c 0
 255.476798574 546.929388473 263.303069599 515.328848961 263.303069599 485.153833614 c 0
 263.303069599 481.743333253 263.203093523 478.351043137 263 475 c 0
 260.468850372 440.407621752 252.24283991 430.018402051 243.126816907 430.018402051 c 0
 241.438236062 430.018402051 239.719118031 430.374866171 238 431 c 0
 230 433.666666667 220.666666667 435.444444444 210.296296296 435.444444444 c 0
 205.111111111 435.444444444 199.666666667 435 194 434 c 0
 179 432 172 419 171 402 c 0
 170.854169101 399.18060262 170.783952962 396.413190387 170.783952962 393.695810609 c 0
 170.783952962 340.511873231 197.680544195 306.493080711 211 277 c 0
 230.891316315 233.758008011 241.807257248 183.784484486 241.807257248 127.079429425 c 0
 241.807257248 118.21736737 241.540640641 109.190890895 241 100 c 1
 331 166 l 2
 343 179 350 179 356 205 c 0
 366 240 379 281 392 309 c 0
 418 370 417 362 430 402 c 0
 434 417 431 424 415 427 c 0
 396 432 375 438 351 461 c 0
 339 472 329 488 323 505 c 0
 317 523 317 543 317 558 c 0
 319 581 327 607 335 618 c 0
 345.736371534 635.178194454 354.167349593 643.999337564 362.61339301 643.999337564 c 0
 369.90086513 643.999337564 377.199552957 637.432261276 386 624 c 0
 399 604 428 598 441 594 c 0
 483 584 509 561 517 526 c 0
 518.592667262 518.036663688 520.083870964 508.24698329 520.083870964 497.729823103 c 0
 520.083870964 475.229540052 513.258661901 449.399596783 486 431 c 0
 476 425 465 412 462 402 c 0
 436 323 429 299 416 232 c 0
 403 162 399 111 394 38 c 0
 392 21 389 11 372 -2 c 2
 81 -219 l 2
 74 -224 62 -224 62 -209 c 2
 72 -51 l 2
 73 -33 76 -23 93 -11 c 2
 192 61 l 2
 203.527767497 69.8675134595 210.337567297 79.5213548685 210.337567297 94.1451884327 c 0
 210.337567297 96.0128252576 210.226497308 97.9615242271 210 100 c 0
 203 166 172 195 155 236 c 0
 138.287674125 276.852352139 132.302990791 312.340883008 132.302990791 345.31136813 c 0
 132.302990791 365.607143189 134.570775292 384.94875162 138 404 c 0
EndSplineSet
Validated: 1
EndChar

StartChar: afii57683
Encoding: 1507 1507 165
Width: 493
Flags: W
HStem: 114.844 154.19<111.511 244.24> 440 160<121.883 390.51> 624.509 20G<89.4599 94.6969>
VStem: 38.1385 62.9869<242.402 383.246> 390 78.3107<-249.417 -2.04236>
LayerCount: 3
Fore
SplineSet
104 440 m 1
 72 463 62 492 58 514 c 0
 56.3607897696 521.961878262 55.5989706182 530.746310661 55.5989706182 539.929533461 c 0
 55.5989706182 569.961878262 63.746766241 604.259359592 76 628 c 0
 81.125235258 639.275517568 86.7758312451 644.509386752 92.1440087617 644.509386752 c 0
 97.2498431613 644.509386752 102.100188206 639.774576536 106 631 c 0
 120.651162791 602.511627907 146.565170362 599.861546782 176.192372999 599.861546782 c 0
 182.96430503 599.861546782 189.930232558 600 197 600 c 2
 336 600 l 2
 392 600 430 557 433 504 c 2
 468 -160 l 2
 468.208497378 -163.405457172 468.310731929 -166.748122673 468.310731929 -170.028667883 c 0
 468.310731929 -213.950805655 449.984525347 -246.737478149 423 -270 c 0
 414.877514045 -276.317489076 407.162279807 -280.395093711 401.23258743 -280.395093711 c 0
 394.02166456 -280.395093711 389.45124922 -274.365021848 390 -259 c 2
 409 346 l 2
 409.166838488 348.836254299 409.250171733 351.647766303 409.250171733 354.428516061 c 0
 409.250171733 401.649713495 385.219358531 440 338 440 c 2
 144 440 l 1
 122.562676857 424.565127337 101.125353714 381.189078204 101.125353714 337.614270785 c 0
 101.125353714 330.372557026 101.717436331 323.125353714 103 316 c 0
 110.864812147 274.054335214 150.802727317 268.76364531 192.784110954 268.76364531 c 0
 198.84360174 268.76364531 204.945664786 268.873868016 211 269 c 0
 211.707851528 269.02283392 212.413096116 269.034197306 213.11556709 269.034197306 c 0
 243.177457483 269.034197306 268.159837442 248.223646711 275 215 c 0
 276.905411215 206.289548731 278.069885308 197.430910037 278.069885308 188.726610326 c 0
 278.069885308 165.453509312 269.745145526 143.283766354 245 128 c 0
 228.914388345 118.064769272 204.547085179 114.844423552 179.94612038 114.844423552 c 0
 152.548266539 114.844423552 124.860600795 118.838637351 108 122 c 1
 98 115 88 103 72 91 c 0
 63 84 51 81 43 89 c 0
 35 97 39 110 47 117 c 0
 62 130 61 128 74 141 c 1
 45.04509728 184.061137378 38.1384888802 224.917445325 38.1384888802 259.885811048 c 0
 38.1384888802 272.017111878 38.9697336123 283.439769526 40 294 c 0
 46 356 73 415 104 440 c 1
EndSplineSet
Validated: 1
EndChar

StartChar: afii57684
Encoding: 1508 1508 166
Width: 491
Flags: W
HStem: -0.30957 160<64.5 410.594> 216.535 153.716<126.754 261.24> 624.2 20G<100.96 106.197>
VStem: 437.115 30.9823<160.257 334.791>
LayerCount: 3
Fore
SplineSet
154 443 m 1
 154 442.690429688 l 1
 132.56663522 432.439690011 125.896248018 419.583718996 125.896248018 403.313257607 c 0
 125.896248018 373.743418129 159.286375765 370.250429688 199.152 370.250429688 c 0
 208.64 370.250429688 218.4 370.490429688 228 370.690429688 c 0
 228.707851528 370.713263608 229.413096116 370.724626994 230.11556709 370.724626994 c 0
 260.177457483 370.724626994 285.159837442 349.914076399 292 316.690429688 c 0
 293.905411215 307.979978419 295.069885308 299.121339725 295.069885308 290.417040014 c 0
 295.069885308 267.143939 286.745145526 244.974196042 262 229.690429688 c 0
 245.914388345 219.75519896 221.547085179 216.53485324 196.94612038 216.53485324 c 0
 169.548266539 216.53485324 141.860600795 220.529067039 125 223.690429688 c 1
 115 216.690429688 105 204.690429688 89 192.690429688 c 0
 80 185.690429688 68 182.690429688 60 190.690429688 c 0
 52 198.690429688 56 211.690429688 64 218.690429688 c 0
 79 231.690429688 78 229.690429688 91 242.690429688 c 1
 63.0769230769 268.075045073 53.0532544379 292.027707795 53.0532544379 323.635809752 c 0
 53.0532544379 329.38273738 53.3846153846 335.38273738 54 341.690429688 c 0
 59 392.690429688 94 426.690429688 125 451.690429688 c 1
 83 468.690429688 77 497.690429688 73 517.690429688 c 0
 70.3960623817 529.552812171 69.2151908009 541.164065354 69.2151908009 552.427311453 c 0
 69.2151908009 580.093267874 76.3398960305 605.659548151 87 627.690429688 c 0
 92.6377587839 638.965947256 98.2755175677 644.19981644 103.644016618 644.19981644 c 0
 108.750156839 644.19981644 113.612711732 639.465006224 118 630.690429688 c 0
 135 595.690429688 170 601.690429688 208 599.690429688 c 0
 259 596.690429688 369 599.690429688 419 528.690429688 c 0
 458.032047957 473.879468727 468.097580638 371.48066124 468.097580638 256.432187177 c 0
 468.097580638 232.946339729 467.678123578 208.933347605 467 184.690429688 c 0
 466 161.690429688 464 154.690429688 460 143.690429688 c 2
 409 20.6904296875 l 2
 403 7.6904296875 394 -0.3095703125 378 -0.3095703125 c 2
 34 -0.3095703125 l 2
 18 -0.3095703125 13 8.6904296875 18 21.6904296875 c 2
 66 138.690429688 l 2
 72 152.690429688 81 159.690429688 97 159.690429688 c 2
 420 159.690429688 l 2
 429 159.690429688 436 165.690429688 437 175.690429688 c 0
 437.074165739 180.659534179 437.115328137 185.788154818 437.115328137 191.042839469 c 0
 437.115328137 256.638722004 430.700862101 341.879556451 402 381.690429688 c 0
 344 461.690429688 217 431.690429688 154 443 c 1
EndSplineSet
Validated: 1
EndChar

StartChar: afii57685
Encoding: 1509 1509 167
Width: 537
Flags: W
HStem: 625.624 20G<69.9433 77.6743 382.952 391.077>
VStem: 31.652 202.521<466.811 572.846> 117.788 45.8602<216.871 383.14> 133.772 39.1173<-279.103 -227.596> 136.93 85.1124<-218.782 98.4106> 322.827 181.312<463.561 561.192>
LayerCount: 3
Fore
SplineSet
190 134 m 2xa4
 189.889648438 134.5 l 2
 205.066348266 54.8223259007 222.042518546 -72.5413151408 222.042518546 -120.428629091 c 0x8c
 222.042518546 -123.026402931 221.992560959 -125.39029331 221.889648438 -127.5 c 0
 218.889648438 -169.5 203.889648438 -210.5 172.889648438 -262.5 c 0
 165.414611545 -274.372117418 156.586172452 -279.670567007 149.209811288 -279.670567007 c 0
 140.472367055 -279.670567007 133.772313961 -272.23638319 133.772313961 -259.487407352 c 0x94
 133.772313961 -216.147187844 136.930166793 -168.050755657 136.930166793 -114.141814242 c 0x8c
 136.930166793 -85.3013452944 136.598145816 -55.0281333153 135.889648438 -23.5 c 0
 132.889648438 75.5 119.889648438 131.5 117.889648438 231.5 c 0
 117.823528532 235.930033712 117.78801152 240.277002427 117.78801152 244.552179709 c 0xa4
 117.78801152 304.934947831 124.873245623 350.996153619 152.889648438 414.5 c 0
 155.889648438 421.5 155.889648438 429.5 144.889648438 430.5 c 0
 123.889648438 433.5 108.889648438 434.5 85.8896484375 445.5 c 0
 66.8896484375 454.5 47.8896484375 473.5 40.8896484375 492.5 c 0
 34.1272527445 510.251288694 31.6520441305 526.573515028 31.6520441305 540.25869336 c 0
 31.6520441305 542.763254822 31.7349478991 545.179491924 31.8896484375 547.5 c 0
 31.8896484375 570.5 39.8896484375 603.5 45.8896484375 614.5 c 0
 57.0249455013 633.840252795 65.4124344609 645.624033304 74.4742219726 645.624033304 c 0
 80.874434418 645.624033304 87.6110137678 639.745815472 95.8896484375 626.5 c 0
 108.889648438 606.5 134.889648438 603.5 148.889648438 600.5 c 0
 177.889648438 595.5 193.889648438 588.5 211.889648438 573.5 c 0
 227.516319592 559.659234121 234.172641104 538.442847425 234.172641104 516.347918891 c 0xc4
 234.172641104 488.955500372 223.941835196 460.212757802 207.889648438 442.5 c 0
 194.889648438 428.5 188.889648438 415.5 188.889648438 415.5 c 1
 173.889648438 379.5 166.889648438 356.5 163.889648438 323.5 c 0
 163.731336043 319.22556533 163.648212091 314.775690959 163.648212091 310.178151166 c 0
 163.648212091 285.734757128 165.997835204 257.117378564 171.889648438 228.5 c 0
 174.889648438 212.5 182.889648438 207.5 192.889648438 220.5 c 2
 361.889648438 432.5 l 2
 367.889648438 439.5 370.889648438 444.5 358.889648438 454.5 c 0
 332.93672787 475.262336454 322.827434817 500.123569982 322.827434817 536.057855872 c 0
 322.827434817 570.982875909 334.006942597 599.741437954 359.889648438 628.5 c 0
 369.389648438 640 378.889648438 645.75 387.014648438 645.75 c 0
 395.139648438 645.75 401.889648438 640 405.889648438 628.5 c 0
 409.889648438 620.5 423.889648438 600.5 443.889648438 588.5 c 0
 477.889648438 569.5 501.889648438 539.5 503.889648438 503.5 c 0
 504.055740385 500.344253003 504.139072728 497.285058879 504.139072728 494.311535611 c 0
 504.139072728 461.479310099 493.979591045 439.091666766 472.889648438 412.5 c 0
 464.548551776 401.12577728 452.182519126 388.026581992 441.895619603 388.026581992 c 0
 438.616449898 388.026581992 435.548551776 389.357659691 432.889648438 392.5 c 0
 425.889648438 400.5 420.889648438 406.5 412.889648438 412.5 c 0
 407.889648438 416.5 399.889648438 419.5 390.889648438 408.5 c 2
 201.889648438 176.5 l 2
 193.889648438 161.5 187.889648438 144.5 190 134 c 2xa4
EndSplineSet
Validated: 33
EndChar

StartChar: afii57686
Encoding: 1510 1510 168
Width: 561
Flags: W
HStem: 0 160<84.5 413.324> 623.999 20G<77.9687 85.5868 395.562 403.688>
VStem: 37.6622 197.761<467.688 566.73> 335.932 180.318<465.626 560.958>
LayerCount: 3
Fore
SplineSet
54 0 m 2
 38 0 33 9 38 22 c 2
 86 139 l 2
 92 153 101 160 117 160 c 2
 406 160 l 2
 421 160 420 166 413 172 c 2
 228 312 l 2
 220 319 216 326 215 336 c 0
 211 368 209 388 204 402 c 0
 200 415 198 426 176 428 c 0
 136 431 97 436 70 461 c 0
 59 472 49 488 44 505 c 0
 39.2915026221 519.125492134 37.6621646272 534.48264802 37.6621646272 547.688551088 c 0
 37.6621646272 551.310823136 37.784749563 554.771243445 38 558 c 0
 39 581 48 607 55 618 c 0
 65.7363715335 635.178194454 73.8791754087 643.999337564 82.0582649678 643.999337564 c 0
 89.115402161 643.999337564 96.1995529568 637.432261276 105 624 c 0
 118 604 145 598 158 594 c 0
 199 584 223 560 232 526 c 0
 234.480816412 516.386836405 235.423020306 507.15832594 235.423020306 498.22500731 c 0
 235.423020306 478.350652504 230.759591794 459.937346662 228 442 c 0
 226 433 228 424 234 414 c 0
 239 405 326 339 326 339 c 2
 335 331 342 336 346 343 c 2
 382 428 l 2
 386 435 390 441 377 451 c 0
 351.117189693 471.49055816 335.932371442 499.12531958 335.932371442 535.942700808 c 0
 335.932371442 570.694276696 346.212424513 599.347138348 372 628 c 0
 382 639.5 391.5 645.25 399.625 645.25 c 0
 407.75 645.25 414.5 639.5 419 628 c 0
 422 620 436 600 456 588 c 0
 490 569 514 539 516 503 c 0
 516.166666667 499.833333333 516.25 496.763888889 516.25 493.780671296 c 0
 516.25 460.965277778 506.166666667 438.583333333 486 412 c 0
 476.900621824 400.62577728 464.351298514 387.526581992 454.456099187 387.526581992 c 0
 451.301792315 387.526581992 448.417184853 388.857659691 446 392 c 0
 438 400 438 403 431 409 c 0
 426 414 417 421 412 408 c 2
 374 321 l 2
 368 309 370 304 380 296 c 2
 486 212 l 2
 508.785839599 193.905362671 523.038205808 159.192908742 523.038205808 122.611361801 c 0
 523.038205808 104.607577769 519.586049683 86.1510688488 512 69 c 0
 490 21 448 0 397 0 c 2
 54 0 l 2
EndSplineSet
Validated: 1
EndChar

StartChar: afii57687
Encoding: 1511 1511 169
Width: 544
Flags: W
HStem: -16.3385 21G<190.787 198.361> 624.509 20G<78.4598 83.6971>
VStem: 44.1749 61.1073<-29.8928 303.002> 46.4286 84.0967<-247.587 203.649> 492.02 32.0097<209.036 371.74>
LayerCount: 3
Fore
SplineSet
133.5 346 m 0xe8
 108.5 299 105.5 276 105.5 242 c 0
 105.352333693 237.077789762 105.282197477 232.053821278 105.282197477 226.940020156 c 0xe8
 105.282197477 129.923880399 130.525294718 0.575599309675 130.525294718 -79.6754771732 c 0
 130.525294718 -153.963287166 128.049339477 -222.240275192 80.5 -288 c 0
 67.4384041357 -305.899223962 57.8872051135 -314.905442591 51.9596162292 -314.905442591 c 0
 47.1717821766 -314.905442591 44.7480353407 -309.029676292 44.7480353407 -297.218484073 c 0
 44.7480353407 -293.425187941 44.9980314656 -289.019685344 45.5 -284 c 0
 48.8913441998 -244.660407282 49.9824453033 -213.83171402 49.9824453033 -186.131288118 c 0
 49.9824453033 -136.138871268 46.4285848736 -96.335634455 46.4285848736 -35.080755788 c 0xd8
 46.4285848736 -30.1956238176 46.4511881607 -25.1740549699 46.5 -20 c 0
 46.5609154428 -14.1521174908 46.5884346651 -8.34134189335 46.5884346651 -2.57015962996 c 0
 46.5884346651 51.4773113717 44.1748789444 102.052274427 44.1748789444 147.112490081 c 0
 44.1748789444 176.227687287 45.1825302455 203.040496218 48.5 227 c 0
 55.5 274 73.5 323 104.5 358 c 0
 114.821764774 369.850915111 123.53594778 374.686927963 129.581038796 374.686927963 c 0
 135.336859873 374.686927963 138.67292022 370.302667686 138.67292022 363.414972658 c 0
 138.67292022 358.613984023 137.052053014 352.596669883 133.5 346 c 0xe8
186 600 m 1
 185.5 600 l 1
 217.5 596 395.5 612 466.5 538 c 0
 508.732713311 494.560637737 524.029395306 391.425206073 524.029395306 300.625904573 c 0
 524.029395306 240.926916792 517.416888103 186.560637737 507.5 158 c 0
 496.5 126 460.5 82 411.5 61 c 0
 344.5 33 238.5 41 211.5 -5 c 0
 207.033224043 -12.816857924 201.180886459 -16.3384748006 195.541810532 -16.3384748006 c 0
 186.031500912 -16.3384748006 177.12776867 -6.32198542741 176.5 10 c 0
 176.5 18 177.5 31 184.5 48 c 0
 201.5 88 237.5 115 317.5 141 c 0
 381.5 162 429.5 152 464.5 191 c 0
 483.000345782 211.447750601 492.019727739 250.146356562 492.019727739 289.44031151 c 0
 492.019727739 330.856755472 481.999654218 372.934601806 462.5 395 c 0
 408.5 456 181.5 429 119.5 446 c 0
 62.5 462 55.5 496 50.5 518 c 0
 47.8960623817 529.862382483 46.7151908009 541.473635666 46.7151908009 552.736881765 c 0
 46.7151908009 580.402838186 53.8398960305 605.969118463 64.5 628 c 0
 70.1377587839 639.275517568 75.7755175677 644.509386752 81.1440166184 644.509386752 c 0
 86.2501568387 644.509386752 91.1127117322 639.774576536 95.5 631 c 0
 112.5 596 148.5 604 186 600 c 1
EndSplineSet
Validated: 1
EndChar

StartChar: afii57688
Encoding: 1512 1512 170
Width: 502
Flags: W
HStem: -4.74098 21G<427.372 436.997> 440 160<86.5744 387.703> 624.509 20G<65.9598 71.1971>
VStem: 427 44.7754<54.2245 382.521>
LayerCount: 3
Fore
SplineSet
427 344 m 0
 427 394 389 440 331 440 c 2
 108 440 l 2
 63 440 38 492 34 514 c 0
 32.4353956202 521.599506987 31.7200928059 529.948397709 31.7200928059 538.678175599 c 0
 31.7200928059 569.005200836 40.3527236709 603.928962253 52 628 c 0
 57.6377587839 639.275517568 63.2755175677 644.509386752 68.6440166184 644.509386752 c 0
 73.7501568387 644.509386752 78.6127117322 639.774576536 83 631 c 0
 96.8372093023 602.511627907 122.599783667 599.861546782 152.198812683 599.861546782 c 0
 158.96430503 599.861546782 165.930232558 600 173 600 c 2
 306 600 l 2
 394 600 440 539 452 440 c 0
 460 372 465 208 470 154 c 0
 470.747877538 145.773347079 471.775415483 132.233146442 471.775415483 115.784643053 c 0
 471.775415483 88.2459893284 468.895163386 52.555184005 457 20 c 0
 450.798234994 2.72365462687 441.260489804 -4.74098432115 432.733185683 -4.74098432115 c 0
 422.010766929 -4.74098432115 412.885966429 7.06142929965 414 26 c 2
 414 26 419 215 427 344 c 0
EndSplineSet
Validated: 1
EndChar

StartChar: afii57689
Encoding: 1513 1513 171
Width: 716
Flags: W
HStem: 0 160<160.7 211.25 251.641 459.826> 625.25 20G<80.8679 89.1749 338.125 346.375 562.125 570.375>
VStem: 33.25 200.894<452.782 558.142> 79 43.4065<237.55 371.387> 277.938 180.581<462.701 560.997> 501.593 181.677<465.327 560.921>
LayerCount: 3
Fore
SplineSet
492 227 m 0xdc
 530 319 584 399 584 399 c 2
 588 406 590 414 582 420 c 0
 564 434 517 460 506 506 c 0
 503.031904065 518.119725067 501.593251443 529.444139612 501.593251443 540.185088576 c 0
 501.593251443 572.869753341 514.914922493 600.151629132 539 628 c 0
 548.5 639.5 558 645.25 566.25 645.25 c 0
 574.5 645.25 581.5 639.5 586 628 c 0
 589 620 604 600 624 588 c 0
 657 569 681 539 683 503 c 0
 683.179618446 499.587249519 683.27051423 496.287418789 683.27051423 493.086744707 c 0
 683.27051423 460.648828804 673.934387867 438.395532527 653 412 c 0
 641 397 635 393 630 394 c 0
 626 395 622 400 616 390 c 0
 580 341 550 265 520 149 c 0
 504 88 490 0 377 0 c 2
 114 0 l 2
 104 0 99 5 99 15 c 0
 99 37 98 79 95 108 c 0
 86 208 80 196 79 268 c 0xdc
 80 308 95 353 107 392 c 0
 109.080128411 398.240385234 110.078523271 403.879807383 110.078523271 408.709919717 c 0
 110.078523271 417.811963613 106.533119315 424.040064206 100 426 c 0
 82 433 68 443 57 455 c 0
 47 466 39 482 36 499 c 0
 34 508.5 33.25 518 33.25 527 c 0
 33.25 536 34 544.5 35 552 c 0
 38 575 48 604 55 615 c 0
 66.7062090103 634.510348351 76.2372540621 644.69856545 85.4985240208 644.69856545 c 0
 92.851229514 644.69856545 100.033893437 638.276844271 108 625 c 0
 116 611 132 597 156 591 c 0
 192 581 213 558 225 531 c 0
 231.02325267 518.351169392 234.144139522 499.53481142 234.144139522 479.57690985 c 0xec
 234.144139522 466.400054069 232.783723131 452.725591455 230 440 c 0
 222.979557724 408.798034327 215.350638783 398.892751882 207.587884879 398.892751882 c 0
 205.399017163 398.892751882 203.199508582 399.680294851 201 401 c 0
 191 407 179 412 162 412 c 0
 149 412 142 401 137 384 c 0
 127.07808689 351.588417175 122.406539634 337.553114838 122.406539634 321.346032769 c 0
 122.406539634 313.051163618 123.630226118 304.187408537 126 292 c 0
 134 249 154 225 163 175 c 0
 164 166 169 160 180 160 c 2
 186 160 l 2
 196 160 202 165 206 174 c 2
 318 432 l 2
 321 440 323 447 314 454 c 0
 288.051989515 473.720487969 277.937786379 499.705057725 277.937786379 535.557855872 c 0
 277.937786379 570.482875909 289.117294159 599.241437954 315 628 c 0
 324.5 639.5 334 645.25 342.25 645.25 c 0
 350.5 645.25 357.5 639.5 362 628 c 0
 364 620 379 600 399 588 c 0
 433 569 456 539 458 503 c 0
 458.346153846 498.615384615 458.519230769 494.417159763 458.519230769 490.376137915 c 0
 458.519230769 459.394970414 448.346153846 437.653846154 428 412 c 0
 419.658903338 400.62577728 407.292870688 387.526581992 397.005971165 387.526581992 c 0
 393.72680146 387.526581992 390.658903338 388.857659691 388 392 c 0
 381 400 376 406 368 412 c 0
 362 416 352 423 346 408 c 2
 247 174 l 2
 243 163 245 160 257 160 c 2
 377 160 l 2
 427 160 473 181 492 227 c 0xdc
EndSplineSet
Validated: 1
EndChar

StartChar: afii57690
Encoding: 1514 1514 172
Width: 571
Flags: W
HStem: 0 16.259G<18.6699 151.17 496.042 505.667> 440 160<152.895 456.373> 624.509 20G<117.63 122.867>
VStem: 77.9112 56.9287<245.107 402.164> 495.67 44.7754<54.2245 382.521>
LayerCount: 3
Fore
SplineSet
131 448 m 1
 130.669921875 448 l 1
 100.669921875 462 88.669921875 496 85.669921875 514 c 0
 84.3877197621 521.265811973 83.7905352568 529.216641554 83.7905352568 537.530434034 c 0
 83.7905352568 568.120613382 91.8754271573 603.624710917 103.669921875 628 c 0
 109.307680659 639.275517568 114.945439443 644.509386752 120.313938493 644.509386752 c 0
 125.420078714 644.509386752 130.282633607 639.774576536 134.669921875 631 c 0
 148.507131177 602.511627907 174.269705542 599.861546782 204.407995252 599.861546782 c 0
 211.296747186 599.861546782 218.414107922 600 225.669921875 600 c 2
 374.669921875 600 l 2
 462.669921875 600 508.669921875 539 520.669921875 440 c 0
 528.669921875 372 533.669921875 208 538.669921875 154 c 0
 539.417799413 145.773347079 540.445337358 132.233146442 540.445337358 115.784643053 c 0
 540.445337358 88.2459893284 537.565085261 52.555184005 525.669921875 20 c 0
 519.468156869 2.72365462687 509.930411679 -4.74098432115 501.403107558 -4.74098432115 c 0
 490.680688804 -4.74098432115 481.555888304 7.06142929965 482.669921875 26 c 2
 482.669921875 26 487.669921875 215 495.669921875 344 c 0
 495.669921875 394 457.669921875 440 399.669921875 440 c 2
 167.669921875 440 l 1
 158.669921875 425 151.669921875 414 145.669921875 397 c 0
 138.449921875 378 134.839921875 358.4224 134.839921875 338.54156 c 0
 134.839921875 306.1044 144.449921875 272.86 163.669921875 240 c 0
 183.562261253 205.78517627 204.087728896 162.706556823 204.087728896 114.290574311 c 0
 204.087728896 101.859034578 202.734518248 89.0756111925 199.669921875 76 c 0
 193.669921875 54 175.669921875 0 126.669921875 0 c 2
 26.669921875 0 l 2
 10.669921875 0 4.669921875 9 10.669921875 22 c 2
 58.669921875 139 l 2
 63.669921875 153 73.669921875 160 89.669921875 160 c 0
 93.669921875 160 100.669921875 161 105.669921875 167 c 0
 106.698757862 168.337486784 107.156001966 170.013694684 107.156001966 172.030801753 c 0
 107.156001966 188.162471443 77.9111887231 226.097664612 77.9111887231 286.950469384 c 0
 77.9111887231 292.446435268 78.1497366839 298.129338557 78.669921875 304 c 0
 83.669921875 364 110.669921875 426 131 448 c 1
EndSplineSet
Validated: 1
EndChar

StartChar: afii57716
Encoding: 1520 1520 173
Width: 532
Flags: W
HStem: -4.68636 21G<159.888 171.211 425.888 437.211> 623.999 20G<71.313 79.0357 337.313 345.036>
VStem: 31.6622 191.775<461.82 568.711> 144 77.4613<18.4359 299.489> 155.076 68.3617<261.366 501.148> 297.662 191.775<461.82 568.711> 410 77.4613<18.4359 299.489> 421.076 68.3617<261.366 501.148>
LayerCount: 3
Fore
SplineSet
221 523 m 0xe0
 222.620823482 514.201243954 223.437442242 505.456101557 223.437442242 496.83905703 c 0xe0
 223.437442242 468.240875869 214.442890919 441.053613648 196 418 c 0
 192 412 185 401 187 390 c 0
 198 322 214 210 220 155 c 0
 220.802171606 149.11740822 221.461347816 140.803894693 221.461347816 130.690347078 c 0
 221.461347816 102.980762331 216.513065007 61.758739479 196 20 c 0
 188.201893407 3.02765035668 176.405866876 -4.68635837629 166.017083026 -4.68635837629 c 0
 153.758148057 -4.68635837629 143.458712153 6.05492533827 144 25 c 2xd0
 144 25 155.0757674 270.859962981 155.0757674 394.123701063 c 0xc8
 155.0757674 407.296906477 146.339946049 419.203093523 134 423 c 0
 118 427 91 435 75 446 c 0
 58 458 44 476 38 496 c 0
 33.2915026221 510.910241697 31.6621646272 531.362970283 31.6621646272 546.726162245 c 0
 31.6621646272 550.940161131 31.784749563 554.771243445 32 558 c 0
 33 581 41 607 48 618 c 0
 58.7363715335 635.178194454 67.1673495929 643.999337564 75.4586957543 643.999337564 c 0
 82.6126909458 643.999337564 89.6627343802 637.432261276 98 624 c 0
 111 604 138 598 152 594 c 0
 193 584 215 554 221 523 c 0xe0
487 523 m 0
 488.620823482 514.201243954 489.437442242 505.456101557 489.437442242 496.83905703 c 0xc4
 489.437442242 468.240875869 480.442890919 441.053613648 462 418 c 0
 458 412 451 401 453 390 c 0
 464 322 480 210 486 155 c 0
 486.802171606 149.11740822 487.461347816 140.803894693 487.461347816 130.690347078 c 0
 487.461347816 102.980762331 482.513065007 61.758739479 462 20 c 0
 454.201893407 3.02765035668 442.405866876 -4.68635837629 432.017083026 -4.68635837629 c 0
 419.758148057 -4.68635837629 409.458712153 6.05492533827 410 25 c 2xc2
 410 25 421.0757674 270.859962981 421.0757674 394.123701063 c 0xc1
 421.0757674 407.296906477 412.339946049 419.203093523 400 423 c 0
 384 427 357 435 341 446 c 0
 324 458 310 476 304 496 c 0
 299.291502622 510.910241697 297.662164627 531.362970283 297.662164627 546.726162245 c 0xc4
 297.662164627 550.940161131 297.784749563 554.771243445 298 558 c 0
 299 581 307 607 314 618 c 0
 324.736371534 635.178194454 333.167349593 643.999337564 341.458695754 643.999337564 c 0
 348.612690946 643.999337564 355.66273438 637.432261276 364 624 c 0
 377 604 404 598 418 594 c 0
 459 584 481 554 487 523 c 0
EndSplineSet
Validated: 1
EndChar

StartChar: afii57717
Encoding: 1521 1521 174
Width: 532
Flags: W
HStem: -4.68636 21G<425.888 437.211> 623.999 20.9863G<67.1628 73.9878 337.313 345.036>
VStem: 169.593 64.9123<365.287 479.814> 297.662 191.775<461.82 568.711> 410 77.4613<18.4359 299.489> 421.076 68.3617<261.366 501.148>
LayerCount: 3
Fore
SplineSet
487 523 m 0xf0
 488.620823482 514.201243954 489.437442242 505.456101557 489.437442242 496.83905703 c 0xf0
 489.437442242 468.240875869 480.442890919 441.053613648 462 418 c 0
 458 412 451 401 453 390 c 0
 464 322 480 210 486 155 c 0
 486.802171606 149.11740822 487.461347816 140.803894693 487.461347816 130.690347078 c 0
 487.461347816 102.980762331 482.513065007 61.758739479 462 20 c 0
 454.201893407 3.02765035668 442.405866876 -4.68635837629 432.017083026 -4.68635837629 c 0
 419.758148057 -4.68635837629 409.458712153 6.05492533827 410 25 c 2xe8
 410 25 421.0757674 270.859962981 421.0757674 394.123701063 c 0xe4
 421.0757674 407.296906477 412.339946049 419.203093523 400 423 c 0
 384 427 357 435 341 446 c 0
 324 458 310 476 304 496 c 0
 299.291502622 510.910241697 297.662164627 531.362970283 297.662164627 546.726162245 c 0
 297.662164627 550.940161131 297.784749563 554.771243445 298 558 c 0
 299 581 307 607 314 618 c 0
 324.736371534 635.178194454 333.167349593 643.999337564 341.458695754 643.999337564 c 0
 348.612690946 643.999337564 355.66273438 637.432261276 364 624 c 0
 377 604 404 598 418 594 c 0
 459 584 481 554 487 523 c 0xf0
229 419 m 0
 223 390 206 357 182 324 c 0
 174.763750658 314.351667544 165.588119666 301.471032338 156.552195793 301.471032338 c 0
 154.349795638 301.471032338 152.155695248 302.236249342 150 304 c 0
 145.041522987 307.814213087 143.283654698 313.228730536 143.283654698 318.967281963 c 0
 143.283654698 328.273908389 147.907106544 338.432791778 151 344 c 0
 160.957550765 361.923591378 169.593063967 376.321749253 169.593063967 391.290019985 c 0
 169.593063967 398.869870399 167.378612517 406.595917942 162 415 c 0
 148 436 127 433 100 445 c 0
 76 456 53 473 38 508 c 0
 31.4460180984 524.020844648 29.1344736058 545.344736058 29.1344736058 562.317209647 c 0
 29.1344736058 568.651523381 29.4564404226 574.379743592 30 579 c 0
 33 604 39 619 49 631 c 0
 57.5357407531 640.816101866 64.2500097512 644.985641291 70.0756636355 644.985641291 c 0
 77.9000351042 644.985641291 84.1214444519 637.464259247 91 626 c 0
 104 606 118 598 145 592 c 0
 170 587 200 571 216 541 c 0
 229.665257283 516.640193539 234.505407921 491.927382811 234.505407921 467.700505925 c 0
 234.505407921 451.151116633 232.246867032 434.828476781 229 419 c 0
EndSplineSet
Validated: 1
EndChar

StartChar: afii57718
Encoding: 1522 1522 175
Width: 532
Flags: W
HStem: 301.471 343.515
VStem: 140.593 64.9123<365.287 479.814> 406.593 64.9123<365.287 479.814>
LayerCount: 3
Fore
SplineSet
200 419 m 0
 194 390 177 357 153 324 c 0
 145.763750658 314.351667544 136.588119666 301.471032338 127.552195793 301.471032338 c 0
 125.349795638 301.471032338 123.155695248 302.236249342 121 304 c 0
 116.041522987 307.814213087 114.283654698 313.228730536 114.283654698 318.967281963 c 0
 114.283654698 328.273908389 118.907106544 338.432791778 122 344 c 0
 131.957550765 361.923591378 140.593063967 376.321749253 140.593063967 391.290019985 c 0
 140.593063967 398.869870399 138.378612517 406.595917942 133 415 c 0
 119 436 98 433 71 445 c 0
 47 456 24 473 9 508 c 0
 2.44601809837 524.020844648 0.134473605818 545.344736058 0.134473605818 562.317209647 c 0
 0.134473605818 568.651523381 0.456440422584 574.379743592 1 579 c 0
 4 604 10 619 20 631 c 0
 28.5357407531 640.816101866 35.2500097512 644.985641291 41.0756636355 644.985641291 c 0
 48.9000351042 644.985641291 55.1214444519 637.464259247 62 626 c 0
 75 606 89 598 116 592 c 0
 141 587 171 571 187 541 c 0
 200.665257283 516.640193539 205.505407921 491.927382811 205.505407921 467.700505925 c 0
 205.505407921 451.151116633 203.246867032 434.828476781 200 419 c 0
466 419 m 0
 460 390 443 357 419 324 c 0
 411.763750658 314.351667544 402.588119666 301.471032338 393.552195793 301.471032338 c 0
 391.349795638 301.471032338 389.155695248 302.236249342 387 304 c 0
 382.041522987 307.814213087 380.283654698 313.228730536 380.283654698 318.967281963 c 0
 380.283654698 328.273908389 384.907106544 338.432791778 388 344 c 0
 397.957550765 361.923591378 406.593063967 376.321749253 406.593063967 391.290019985 c 0
 406.593063967 398.869870399 404.378612517 406.595917942 399 415 c 0
 385 436 364 433 337 445 c 0
 313 456 290 473 275 508 c 0
 268.446018098 524.020844648 266.134473606 545.344736058 266.134473606 562.317209647 c 0
 266.134473606 568.651523381 266.456440423 574.379743592 267 579 c 0
 270 604 276 619 286 631 c 0
 294.535740753 640.816101866 301.250009751 644.985641291 307.075663636 644.985641291 c 0
 314.900035104 644.985641291 321.121444452 637.464259247 328 626 c 0
 341 606 355 598 382 592 c 0
 407 587 437 571 453 541 c 0
 466.665257283 516.640193539 471.505407921 491.927382811 471.505407921 467.700505925 c 0
 471.505407921 451.151116633 469.246867032 434.828476781 466 419 c 0
EndSplineSet
Validated: 1
EndChar

StartChar: uniE801
Encoding: 59393 59393 180
Width: 266
Flags: W
HStem: -4.68636 21G<159.888 171.211> 623.999 20G<71.313 79.0357> 645 75<-36.0047 36.0047>
VStem: -38 76<646.987 718.005> 31.6622 191.775<461.82 568.711> 144 77.4613<18.4359 299.489> 155.076 68.3617<261.366 501.148>
LayerCount: 3
Fore
SplineSet
221 523 m 0xe8
 222.620823482 514.201243954 223.437442242 505.456101557 223.437442242 496.83905703 c 0xe8
 223.437442242 468.240875869 214.442890919 441.053613648 196 418 c 0
 192 412 185 401 187 390 c 0
 198 322 214 210 220 155 c 0
 220.802171606 149.11740822 221.461347816 140.803894693 221.461347816 130.690347078 c 0
 221.461347816 102.980762331 216.513065007 61.758739479 196 20 c 0
 188.201893407 3.02765035668 176.405866876 -4.68635837629 166.017083026 -4.68635837629 c 0
 153.758148057 -4.68635837629 143.458712153 6.05492533827 144 25 c 2xe4
 144 25 155.0757674 270.859962981 155.0757674 394.123701063 c 0
 155.0757674 407.296906477 146.339946049 419.203093523 134 423 c 0
 118 427 91 435 75 446 c 0
 58 458 44 476 38 496 c 0xf2
 33.2915026221 510.910241697 31.6621646272 531.362970283 31.6621646272 546.726162245 c 0
 31.6621646272 550.940161131 31.784749563 554.771243445 32 558 c 0
 33 581 41 607 48 618 c 0
 58.7363715335 635.178194454 67.1673495929 643.999337564 75.4586957543 643.999337564 c 0
 82.6126909458 643.999337564 89.6627343802 637.432261276 98 624 c 0
 111 604 138 598 152 594 c 0
 193 584 215 554 221 523 c 0xe8
0 720 m 0
 21 720 38 703 38 682 c 0
 38 662 21 645 0 645 c 0
 -21 645 -38 662 -38 682 c 0xf0
 -38 703 -21 720 0 720 c 0
EndSplineSet
Validated: 1
EndChar

StartChar: uniE802
Encoding: 59394 59394 181
Width: 496
Flags: W
HStem: 107 75<224.995 297.005> 222 75<224.995 297.005> 440 160<84.8772 363.995> 624.509 20G<65.4599 70.6969>
VStem: 31.599 426.499<467.282 589.182> 223 76<108.987 180.005 223.995 295.013> 356 77.0328<-262.326 117.726> 356 52<-284.188 -149.582> 364 32<199.303 426>
LayerCount: 3
Fore
SplineSet
173 600 m 2xf8
 390 600 l 2
 450 600 457 563 458 523 c 0
 458.0625 520.6875 458.09765625 518.37109375 458.09765625 516.05859375 c 0xf8
 458.09765625 481.37109375 450.1875 447.5625 408 441 c 0xf1
 395 439 396 426 396 426 c 1xf080
 403 377 425 -70 432 -125 c 0
 432.516397779 -130.680375574 433.032795559 -138.627417816 433.032795559 -148.273089166 c 0xf2
 433.032795559 -175.984942318 428.770431087 -217.717336716 408 -260 c 0xf1
 399.743181255 -276.972349643 387.909276248 -284.686358376 377.613885319 -284.686358376 c 0
 365.465155523 -284.686358376 355.458712153 -273.945074662 356 -255 c 2xf2
 364 426 l 2xf080
 364 440 357 440 349 440 c 2
 108 440 l 2
 63 440 38 492 34 514 c 0
 32.3607897696 521.961878262 31.5989706182 530.746310661 31.5989706182 539.929533461 c 0
 31.5989706182 569.961878262 39.746766241 604.259359592 52 628 c 0
 57.125235258 639.275517568 62.7758312451 644.509386752 68.1440087617 644.509386752 c 0
 73.2498431613 644.509386752 78.1001882064 639.774576536 82 631 c 0
 96.6511627907 602.511627907 122.565170362 599.861546782 152.192372999 599.861546782 c 0
 158.96430503 599.861546782 165.930232558 600 173 600 c 2xf8
261 297 m 0
 282 297 299 280 299 260 c 0
 299 239 282 222 261 222 c 0
 240 222 223 239 223 260 c 0xf4
 223 280 240 297 261 297 c 0
261 182 m 0
 282 182 299 165 299 144 c 0
 299 124 282 107 261 107 c 0
 240 107 223 124 223 144 c 0
 223 165 240 182 261 182 c 0
EndSplineSet
Validated: 1
EndChar

StartChar: uniE803
Encoding: 59395 59395 182
Width: 496
Flags: W
HStem: 234.69 55<97.8896 194.854 230.919 327.89> 439.69 159.862<84.7669 363.885> 624.2 20G<65.3496 70.5866>
VStem: 31.4886 426.499<466.972 588.873> 174.89 76<111.677 171.407> 194.89 36<172.595 232.426> 355.89 77.0328<-262.635 117.416> 355.89 52<-284.497 -149.892> 363.89 32<198.994 425.69>
LayerCount: 3
Fore
SplineSet
172.889648438 599.690429688 m 2xf0
 389.889648438 599.690429688 l 2
 449.889648438 599.690429688 456.889648438 562.690429688 457.889648438 522.690429688 c 0
 457.952148438 520.377929688 457.987304688 518.061523438 457.987304688 515.749023438 c 0xf0
 457.987304688 481.061523438 450.077148438 447.252929688 407.889648438 440.690429688 c 0xe1
 394.889648438 438.690429688 395.889648438 425.690429688 395.889648438 425.690429688 c 1xe080
 402.889648438 376.690429688 424.889648438 -70.3095703125 431.889648438 -125.309570312 c 0
 432.406046217 -130.989945886 432.922443997 -138.936988128 432.922443997 -148.582659478 c 0xe2
 432.922443997 -176.29451263 428.660079525 -218.026907028 407.889648438 -260.309570312 c 0xe1
 399.632829693 -277.281919955 387.798924686 -284.995928688 377.503533757 -284.995928688 c 0
 365.354803961 -284.995928688 355.348360591 -274.254644974 355.889648438 -255.309570312 c 2xe2
 363.889648438 425.690429688 l 2xe080
 363.889648438 439.690429688 356.889648438 439.690429688 348.889648438 439.690429688 c 2
 107.889648438 439.690429688 l 2
 62.8896484375 439.690429688 37.8896484375 491.690429688 33.8896484375 513.690429688 c 0
 32.2504382071 521.65230795 31.4886190557 530.436740349 31.4886190557 539.619963149 c 0
 31.4886190557 569.65230795 39.6364146785 603.94978928 51.8896484375 627.690429688 c 0
 57.0148836955 638.965947256 62.6654796826 644.19981644 68.0336571992 644.19981644 c 0
 73.1394915988 644.19981644 77.9898366439 639.465006224 81.8896484375 630.690429688 c 0
 96.5408112282 602.202057595 122.4548188 599.55197647 152.082021437 599.55197647 c 0
 158.853953468 599.55197647 165.819880996 599.690429688 172.889648438 599.690429688 c 2xf0
241 172 m 1
 240.889648438 171.690429688 l 1
 246.889648438 165.690429688 250.889648438 156.690429688 250.889648438 146.690429688 c 0
 250.889648438 126.690429688 233.889648438 109.690429688 212.889648438 109.690429688 c 0
 191.889648438 109.690429688 174.889648438 126.690429688 174.889648438 146.690429688 c 0xe8
 174.889648438 156.690429688 178.889648438 165.690429688 184.889648438 172.690429688 c 0
 195.889648438 184.690429688 194.889648438 197.690429688 194.889648438 206.690429688 c 0
 194.889648438 227.690429688 182.889648438 234.690429688 156.889648438 234.690429688 c 2
 112.889648438 234.690429688 l 2
 104.889648438 234.690429688 97.8896484375 241.690429688 97.8896484375 249.690429688 c 2
 97.8896484375 274.690429688 l 2
 97.8896484375 282.690429688 104.889648438 289.690429688 112.889648438 289.690429688 c 2
 312.889648438 289.690429688 l 2
 320.889648438 289.690429688 327.889648438 282.690429688 327.889648438 274.690429688 c 2
 327.889648438 249.690429688 l 2
 327.889648438 241.690429688 320.889648438 234.690429688 312.889648438 234.690429688 c 2
 268.889648438 234.690429688 l 2
 240.889648438 234.690429688 230.889648438 227.690429688 230.889648438 206.690429688 c 0xe4
 230.889648438 197.690429688 229.889648438 184.690429688 241 172 c 1
EndSplineSet
Validated: 1
EndChar

StartChar: uniFB1D
Encoding: 64285 64285 183
Width: 266
Flags: W
HStem: 159 75<83.9953 156.005> 624.986 20G<67.1628 73.9878>
VStem: 82 76<160.995 232.013> 169.593 64.9123<365.287 479.814>
LayerCount: 3
Fore
SplineSet
229 419 m 0
 223 390 206 357 182 324 c 0
 174.763750658 314.351667544 165.588119666 301.471032338 156.552195793 301.471032338 c 0
 154.349795638 301.471032338 152.155695248 302.236249342 150 304 c 0
 145.041522987 307.814213087 143.283654698 313.228730536 143.283654698 318.967281963 c 0
 143.283654698 328.273908389 147.907106544 338.432791778 151 344 c 0
 160.957550765 361.923591378 169.593063967 376.321749253 169.593063967 391.290019985 c 0
 169.593063967 398.869870399 167.378612517 406.595917942 162 415 c 0
 148 436 127 433 100 445 c 0
 76 456 53 473 38 508 c 0
 31.4460180984 524.020844648 29.1344736058 545.344736058 29.1344736058 562.317209647 c 0
 29.1344736058 568.651523381 29.4564404226 574.379743592 30 579 c 0
 33 604 39 619 49 631 c 0
 57.5357407531 640.816101866 64.2500097512 644.985641291 70.0756636355 644.985641291 c 0
 77.9000351042 644.985641291 84.1214444519 637.464259247 91 626 c 0
 104 606 118 598 145 592 c 0
 170 587 200 571 216 541 c 0
 229.665257283 516.640193539 234.505407921 491.927382811 234.505407921 467.700505925 c 0
 234.505407921 451.151116633 232.246867032 434.828476781 229 419 c 0
120 234 m 0
 141 234 158 217 158 197 c 0
 158 176 141 159 120 159 c 0
 99 159 82 176 82 197 c 0
 82 217 99 234 120 234 c 0
EndSplineSet
Validated: 1
EndChar

StartChar: uniFB1E
Encoding: 64286 64286 184
Width: 0
Flags: W
HStem: 651.726 55.8969<-100.129 100.142>
VStem: -105 210
LayerCount: 3
Fore
SplineSet
-92 717 m 2
 -88 724 -79 726 -72 723 c 0
 -49.2803627731 712.627991701 -24.8531294168 707.622714094 -0.525565362225 707.622714094 c 0
 24.4024082195 707.622714094 49.2257320698 712.878103142 72 723 c 0
 79 726 88 724 92 717 c 2
 105 696 l 2
 109 688 106 680 99 675 c 0
 76.2557126904 659.030606783 39.6948324846 651.725856568 2.91628726438 651.725856568 c 0
 -36.3063014187 651.725856568 -75.7764452964 660.033709191 -99 675 c 0
 -106 680 -109 688 -105 696 c 2
 -92 717 l 2
EndSplineSet
Validated: 1
EndChar

StartChar: afii57705
Encoding: 64287 64287 185
Width: 532
Flags: W
HStem: 160 55<143 373> 624.986 20G<67.1628 73.9878 333.163 339.988>
VStem: 169.593 64.9123<365.287 479.814> 435.593 64.9123<365.287 479.814>
LayerCount: 3
Fore
SplineSet
495 419 m 0
 489 390 472 357 448 324 c 0
 440.763750658 314.351667544 431.588119666 301.471032338 422.552195793 301.471032338 c 0
 420.349795638 301.471032338 418.155695248 302.236249342 416 304 c 0
 411.041522987 307.814213087 409.283654698 313.228730536 409.283654698 318.967281963 c 0
 409.283654698 328.273908389 413.907106544 338.432791778 417 344 c 0
 426.957550765 361.923591378 435.593063967 376.321749253 435.593063967 391.290019985 c 0
 435.593063967 398.869870399 433.378612517 406.595917942 428 415 c 0
 414 436 393 433 366 445 c 0
 342 456 319 473 304 508 c 0
 297.446018098 524.020844648 295.134473606 545.344736058 295.134473606 562.317209647 c 0
 295.134473606 568.651523381 295.456440423 574.379743592 296 579 c 0
 299 604 305 619 315 631 c 0
 323.535740753 640.816101866 330.250009751 644.985641291 336.075663636 644.985641291 c 0
 343.900035104 644.985641291 350.121444452 637.464259247 357 626 c 0
 370 606 384 598 411 592 c 0
 436 587 466 571 482 541 c 0
 495.665257283 516.640193539 500.505407921 491.927382811 500.505407921 467.700505925 c 0
 500.505407921 451.151116633 498.246867032 434.828476781 495 419 c 0
229 419 m 0
 223 390 206 357 182 324 c 0
 174.763750658 314.351667544 165.588119666 301.471032338 156.552195793 301.471032338 c 0
 154.349795638 301.471032338 152.155695248 302.236249342 150 304 c 0
 145.041522987 307.814213087 143.283654698 313.228730536 143.283654698 318.967281963 c 0
 143.283654698 328.273908389 147.907106544 338.432791778 151 344 c 0
 160.957550765 361.923591378 169.593063967 376.321749253 169.593063967 391.290019985 c 0
 169.593063967 398.869870399 167.378612517 406.595917942 162 415 c 0
 148 436 127 433 100 445 c 0
 76 456 53 473 38 508 c 0
 31.4460180984 524.020844648 29.1344736058 545.344736058 29.1344736058 562.317209647 c 0
 29.1344736058 568.651523381 29.4564404226 574.379743592 30 579 c 0
 33 604 39 619 49 631 c 0
 57.5357407531 640.816101866 64.2500097512 644.985641291 70.0756636355 644.985641291 c 0
 77.9000351042 644.985641291 84.1214444519 637.464259247 91 626 c 0
 104 606 118 598 145 592 c 0
 170 587 200 571 216 541 c 0
 229.665257283 516.640193539 234.505407921 491.927382811 234.505407921 467.700505925 c 0
 234.505407921 451.151116633 232.246867032 434.828476781 229 419 c 0
143 200 m 2
 143 208 150 215 158 215 c 2
 358 215 l 2
 366 215 373 208 373 200 c 2
 373 175 l 2
 373 167 366 160 358 160 c 2
 158 160 l 2
 150 160 143 167 143 175 c 2
 143 200 l 2
EndSplineSet
Validated: 1
EndChar

StartChar: uniFB20
Encoding: 64288 64288 186
Width: 552
Flags: W
HStem: 0 160<89.5 226.643 259.546 362.879> 621.732 20G<64.4077 73.6549 358.39 366.257>
VStem: 132.445 38.519<332.461 433.069> 226.651 33.9444<161.806 212.092>
LayerCount: 3
Fore
SplineSet
349 0 m 2
 59 0 l 2
 43 0 37 9 43 22 c 2
 91 139 l 2
 96 153 106 160 122 160 c 2
 196 160 l 2
 215.824077469 160 226.651412956 168.996741982 226.651412956 181.75995879 c 0
 226.651412956 188.955285913 223.210272601 197.347672879 216 206 c 0
 190 239 169 240 148 281 c 0
 136.184021097 301.946508054 132.445079401 326.643069098 132.445079401 349.976927707 c 0
 132.445079401 370.088042522 135.222539701 389.186878404 138 404 c 0
 138.71453118 407.572655899 139.046146254 410.858124719 139.046146254 413.856406461 c 0
 139.046146254 427.64273441 132.035039256 435.35726559 123 437 c 0
 102 439 85 446 71 456 c 0
 58 465 47 479 40 496 c 0
 33 514 31 533 30 548 c 0
 29.9262397541 549.696485657 29.8905635253 551.409293035 29.8905635253 553.131600068 c 0
 29.8905635253 574.759364755 35.5163217216 597.885122951 42 609 c 0
 51.8677578671 628.735515734 59.0400791855 641.732440097 69.7752969455 641.732440097 c 0
 77.5345238585 641.732440097 87.1550593891 634.942658885 101 619 c 0
 112 606 140 602 157 601 c 0
 198 600 224 585 242 564 c 0
 255.476798574 546.929388473 263.303069599 515.328848961 263.303069599 485.153833614 c 0
 263.303069599 481.743333253 263.203093523 478.351043137 263 475 c 0
 260.468850372 440.407621752 252.24283991 430.018402051 243.126816907 430.018402051 c 0
 241.438236062 430.018402051 239.719118031 430.374866171 238 431 c 0
 230 433.666666667 220.666666667 435.444444444 210.296296296 435.444444444 c 0
 205.111111111 435.444444444 199.666666667 435 194 434 c 0
 177.455936845 431.794124913 170.964094464 417.588025771 170.964094464 398.715299596 c 0
 170.964094464 354.563363531 190.648041812 325.423962834 217 302 c 0
 242.527398992 278.942994458 260.595766671 238.933645022 260.595766671 201.515466047 c 0
 260.595766671 193.493702293 259.765355164 185.591027204 258 178 c 0
 255 168 259 160 270 160 c 2
 332 160 l 2
 360 160 364 182 369 206 c 0
 376 241 386 278 397 309 c 0
 406 333 417 362 430 402 c 0
 434 417 431 424 415 427 c 0
 396 432 375 438 351 461 c 0
 339 472 329 488 323 505 c 0
 317 523 317 543 317 558 c 0
 319 581 327 607 335 618 c 0
 345.736371534 635.178194454 354.167349593 643.999337564 362.61339301 643.999337564 c 0
 369.90086513 643.999337564 377.199552957 637.432261276 386 624 c 0
 399 604 428 598 441 594 c 0
 483 584 509 561 517 526 c 0
 518.592667262 518.036663688 520.083870964 508.24698329 520.083870964 497.729823103 c 0
 520.083870964 475.229540052 513.258661901 449.399596783 486 431 c 0
 476 425 465 412 462 402 c 0
 446 352 432 292 426 236 c 0
 421 193 420 116 417 73 c 0
 414 22 394 0 349 0 c 2
EndSplineSet
Validated: 1
EndChar

StartChar: uniFB29
Encoding: 64297 64297 187
Width: 570
Flags: W
HStem: 209 88<33 241 329 537>
VStem: 241 88<297 506>
LayerCount: 3
Fore
SplineSet
241 297 m 1
 241 506 l 1
 329 506 l 1
 329 297 l 1
 537 297 l 1
 537 209 l 1
 33 209 l 1
 33 297 l 1
 241 297 l 1
EndSplineSet
Validated: 1
EndChar

StartChar: afii57694
Encoding: 64298 64298 188
Width: 716
Flags: W
HStem: 0 160<160.7 211.25 251.641 459.826> 625.25 20G<80.8679 89.1749 338.125 346.375 562.125 570.375> 630 75<607.995 680.005>
VStem: 33.25 200.894<452.782 558.142> 79 43.4065<237.55 371.387> 277.938 180.581<462.701 560.997> 501.593 181.677<465.327 560.921> 606 76<631.995 703.013>
LayerCount: 3
Fore
SplineSet
492 227 m 0xcc
 530 319 584 399 584 399 c 2
 588 406 590 414 582 420 c 0
 564 434 517 460 506 506 c 0
 503.031904065 518.119725067 501.593251443 529.444139612 501.593251443 540.185088576 c 0
 501.593251443 572.869753341 514.914922493 600.151629132 539 628 c 0
 548.5 639.5 558 645.25 566.25 645.25 c 0
 574.5 645.25 581.5 639.5 586 628 c 0
 589 620 604 600 624 588 c 0
 657 569 681 539 683 503 c 0
 683.179618446 499.587249519 683.27051423 496.287418789 683.27051423 493.086744707 c 0
 683.27051423 460.648828804 673.934387867 438.395532527 653 412 c 0
 641 397 635 393 630 394 c 0
 626 395 622 400 616 390 c 0
 580 341 550 265 520 149 c 0
 504 88 490 0 377 0 c 2
 114 0 l 2
 104 0 99 5 99 15 c 0
 99 37 98 79 95 108 c 0
 86 208 80 196 79 268 c 0xce
 80 308 95 353 107 392 c 0
 109.080128411 398.240385234 110.078523271 403.879807383 110.078523271 408.709919717 c 0
 110.078523271 417.811963613 106.533119315 424.040064206 100 426 c 0
 82 433 68 443 57 455 c 0
 47 466 39 482 36 499 c 0
 34 508.5 33.25 518 33.25 527 c 0
 33.25 536 34 544.5 35 552 c 0
 38 575 48 604 55 615 c 0
 66.7062090103 634.510348351 76.2372540621 644.69856545 85.4985240208 644.69856545 c 0
 92.851229514 644.69856545 100.033893437 638.276844271 108 625 c 0
 116 611 132 597 156 591 c 0
 192 581 213 558 225 531 c 0
 231.02325267 518.351169392 234.144139522 499.53481142 234.144139522 479.57690985 c 0xd4
 234.144139522 466.400054069 232.783723131 452.725591455 230 440 c 0
 222.979557724 408.798034327 215.350638783 398.892751882 207.587884879 398.892751882 c 0
 205.399017163 398.892751882 203.199508582 399.680294851 201 401 c 0
 191 407 179 412 162 412 c 0
 149 412 142 401 137 384 c 0
 127.07808689 351.588417175 122.406539634 337.553114838 122.406539634 321.346032769 c 0
 122.406539634 313.051163618 123.630226118 304.187408537 126 292 c 0
 134 249 154 225 163 175 c 0
 164 166 169 160 180 160 c 2
 186 160 l 2
 196 160 202 165 206 174 c 2
 318 432 l 2
 321 440 323 447 314 454 c 0
 288.051989515 473.720487969 277.937786379 499.705057725 277.937786379 535.557855872 c 0
 277.937786379 570.482875909 289.117294159 599.241437954 315 628 c 0
 324.5 639.5 334 645.25 342.25 645.25 c 0
 350.5 645.25 357.5 639.5 362 628 c 0
 364 620 379 600 399 588 c 0
 433 569 456 539 458 503 c 0
 458.346153846 498.615384615 458.519230769 494.417159763 458.519230769 490.376137915 c 0
 458.519230769 459.394970414 448.346153846 437.653846154 428 412 c 0
 419.658903338 400.62577728 407.292870688 387.526581992 397.005971165 387.526581992 c 0
 393.72680146 387.526581992 390.658903338 388.857659691 388 392 c 0
 381 400 376 406 368 412 c 0
 362 416 352 423 346 408 c 2
 247 174 l 2
 243 163 245 160 257 160 c 2
 377 160 l 2
 427 160 473 181 492 227 c 0xcc
644 705 m 0xa5
 665 705 682 688 682 668 c 0
 682 647 665 630 644 630 c 0
 623 630 606 647 606 668 c 0
 606 688 623 705 644 705 c 0xa5
EndSplineSet
Validated: 1
EndChar

StartChar: afii57695
Encoding: 64299 64299 189
Width: 716
Flags: W
HStem: 0 160<160.2 210.75 251.141 459.326> 625.25 20G<80.3679 88.6749 337.625 345.875 561.625 569.875> 630 74.9992<136.487 207.505>
VStem: 32.75 200.894<452.782 558.142> 78.5 43.4065<237.55 371.387> 134.5 75<631.995 702.952> 277.438 180.581<462.701 560.997> 501.093 181.677<465.327 560.921>
LayerCount: 3
Fore
SplineSet
491.5 227 m 0xcb
 529.5 319 583.5 399 583.5 399 c 2
 587.5 406 589.5 414 581.5 420 c 0
 563.5 434 516.5 460 505.5 506 c 0
 502.531904065 518.119725067 501.093251443 529.444139612 501.093251443 540.185088576 c 0
 501.093251443 572.869753341 514.414922493 600.151629132 538.5 628 c 0
 548 639.5 557.5 645.25 565.75 645.25 c 0
 574 645.25 581 639.5 585.5 628 c 0
 588.5 620 603.5 600 623.5 588 c 0
 656.5 569 680.5 539 682.5 503 c 0
 682.679618446 499.587249519 682.77051423 496.287418789 682.77051423 493.086744707 c 0
 682.77051423 460.648828804 673.434387867 438.395532527 652.5 412 c 0
 640.5 397 634.5 393 629.5 394 c 0
 625.5 395 621.5 400 615.5 390 c 0
 579.5 341 549.5 265 519.5 149 c 0
 503.5 88 489.5 0 376.5 0 c 2
 113.5 0 l 2
 103.5 0 98.5 5 98.5 15 c 0
 98.5 37 97.5 79 94.5 108 c 0
 85.5 208 79.5 196 78.5 268 c 0xcb
 79.5 308 94.5 353 106.5 392 c 0
 108.580128411 398.240385234 109.578523271 403.879807383 109.578523271 408.709919717 c 0
 109.578523271 417.811963613 106.033119315 424.040064206 99.5 426 c 0
 81.5 433 67.5 443 56.5 455 c 0
 46.5 466 38.5 482 35.5 499 c 0
 33.5 508.5 32.75 518 32.75 527 c 0
 32.75 536 33.5 544.5 34.5 552 c 0
 37.5 575 47.5 604 54.5 615 c 0
 66.2062090103 634.510348351 75.7372540621 644.69856545 84.9985240208 644.69856545 c 0
 92.351229514 644.69856545 99.5338934374 638.276844271 107.5 625 c 0
 115.5 611 131.5 597 155.5 591 c 0
 191.5 581 212.5 558 224.5 531 c 0
 230.52325267 518.351169392 233.644139522 499.53481142 233.644139522 479.57690985 c 0xd3
 233.644139522 466.400054069 232.283723131 452.725591455 229.5 440 c 0
 222.479557724 408.798034327 214.850638783 398.892751882 207.087884879 398.892751882 c 0
 204.899017163 398.892751882 202.699508582 399.680294851 200.5 401 c 0
 190.5 407 178.5 412 161.5 412 c 0
 148.5 412 141.5 401 136.5 384 c 0
 126.57808689 351.588417175 121.906539634 337.553114838 121.906539634 321.346032769 c 0
 121.906539634 313.051163618 123.130226118 304.187408537 125.5 292 c 0
 133.5 249 153.5 225 162.5 175 c 0
 163.5 166 168.5 160 179.5 160 c 2
 185.5 160 l 2
 195.5 160 201.5 165 205.5 174 c 2
 317.5 432 l 2
 320.5 440 322.5 447 313.5 454 c 0
 287.551989515 473.720487969 277.437786379 499.705057725 277.437786379 535.557855872 c 0
 277.437786379 570.482875909 288.617294159 599.241437954 314.5 628 c 0
 324 639.5 333.5 645.25 341.75 645.25 c 0
 350 645.25 357 639.5 361.5 628 c 0
 363.5 620 378.5 600 398.5 588 c 0
 432.5 569 455.5 539 457.5 503 c 0
 457.846153846 498.615384615 458.019230769 494.417159763 458.019230769 490.376137915 c 0
 458.019230769 459.394970414 447.846153846 437.653846154 427.5 412 c 0
 419.158903338 400.62577728 406.792870688 387.526581992 396.505971165 387.526581992 c 0
 393.22680146 387.526581992 390.158903338 388.857659691 387.5 392 c 0
 380.5 400 375.5 406 367.5 412 c 0
 361.5 416 351.5 423 345.5 408 c 2
 246.5 174 l 2
 242.5 163 244.5 160 256.5 160 c 2
 376.5 160 l 2
 426.5 160 472.5 181 491.5 227 c 0xcb
172 705 m 2
 171.5 705 l 2
 171.584374756 705 171.668684939 704.999177134 171.75292971 704.999177134 c 0
 192.636332318 704.863344346 209.500000003 687.919642613 209.5 668 c 0
 209.5 647 192.5 630 171.5 630 c 0
 151.5 630 134.5 647 134.5 668 c 0
 134.5 687.919596467 151.363588746 704.863265509 171.75292971 704.999177134 c 0xa7
 171.835229321 704.999177134 171.917586376 705 172 705 c 2
EndSplineSet
Validated: 5
EndChar

StartChar: uniFB2C
Encoding: 64300 64300 190
Width: 716
Flags: W
HStem: 0 160<160.7 211.25 251.641 459.826> 248 74<365.707 438.293> 625.25 20G<80.8679 89.1749 338.125 346.375 562.125 570.375> 630 75<607.995 680.005>
VStem: 33.25 200.894<452.782 558.142> 79 43.4065<237.55 371.387> 277.938 180.581<462.701 560.997> 364 76<249.888 320.112> 501.593 181.677<465.327 560.921> 606 76<631.995 703.013>
LayerCount: 3
Fore
SplineSet
402 322 m 0xc1
 423 322 440 306 440 285 c 0
 440 264 423 248 402 248 c 0
 381 248 364 264 364 285 c 0
 364 306 381 322 402 322 c 0xc1
492 227 m 0
 530 319 584 399 584 399 c 2
 588 406 590 414 582 420 c 0
 564 434 517 460 506 506 c 0
 503.031904065 518.119725067 501.593251443 529.444139612 501.593251443 540.185088576 c 0
 501.593251443 572.869753341 514.914922493 600.151629132 539 628 c 0
 548.5 639.5 558 645.25 566.25 645.25 c 0
 574.5 645.25 581.5 639.5 586 628 c 0
 589 620 604 600 624 588 c 0
 657 569 681 539 683 503 c 0
 683.179618446 499.587249519 683.27051423 496.287418789 683.27051423 493.086744707 c 0
 683.27051423 460.648828804 673.934387867 438.395532527 653 412 c 0
 641 397 635 393 630 394 c 0
 626 395 622 400 616 390 c 0
 580 341 550 265 520 149 c 0
 504 88 490 0 377 0 c 2
 114 0 l 2
 104 0 99 5 99 15 c 0
 99 37 98 79 95 108 c 0
 86 208 80 196 79 268 c 0xe680
 80 308 95 353 107 392 c 0
 109.080128411 398.240385234 110.078523271 403.879807383 110.078523271 408.709919717 c 0
 110.078523271 417.811963613 106.533119315 424.040064206 100 426 c 0
 82 433 68 443 57 455 c 0
 47 466 39 482 36 499 c 0
 34 508.5 33.25 518 33.25 527 c 0
 33.25 536 34 544.5 35 552 c 0
 38 575 48 604 55 615 c 0
 66.7062090103 634.510348351 76.2372540621 644.69856545 85.4985240208 644.69856545 c 0
 92.851229514 644.69856545 100.033893437 638.276844271 108 625 c 0
 116 611 132 597 156 591 c 0
 192 581 213 558 225 531 c 0
 231.02325267 518.351169392 234.144139522 499.53481142 234.144139522 479.57690985 c 0xe8
 234.144139522 466.400054069 232.783723131 452.725591455 230 440 c 0
 222.979557724 408.798034327 215.350638783 398.892751882 207.587884879 398.892751882 c 0
 205.399017163 398.892751882 203.199508582 399.680294851 201 401 c 0
 191 407 179 412 162 412 c 0
 149 412 142 401 137 384 c 0
 127.07808689 351.588417175 122.406539634 337.553114838 122.406539634 321.346032769 c 0
 122.406539634 313.051163618 123.630226118 304.187408537 126 292 c 0
 134 249 154 225 163 175 c 0
 164 166 169 160 180 160 c 2
 186 160 l 2
 196 160 202 165 206 174 c 2
 318 432 l 2
 321 440 323 447 314 454 c 0
 288.051989515 473.720487969 277.937786379 499.705057725 277.937786379 535.557855872 c 0
 277.937786379 570.482875909 289.117294159 599.241437954 315 628 c 0
 324.5 639.5 334 645.25 342.25 645.25 c 0
 350.5 645.25 357.5 639.5 362 628 c 0
 364 620 379 600 399 588 c 0
 433 569 456 539 458 503 c 0
 458.346153846 498.615384615 458.519230769 494.417159763 458.519230769 490.376137915 c 0xe6
 458.519230769 459.394970414 448.346153846 437.653846154 428 412 c 0
 419.658903338 400.62577728 407.292870688 387.526581992 397.005971165 387.526581992 c 0
 393.72680146 387.526581992 390.658903338 388.857659691 388 392 c 0
 381 400 376 406 368 412 c 0
 362 416 352 423 346 408 c 2
 247 174 l 2
 243 163 245 160 257 160 c 2
 377 160 l 2
 427 160 473 181 492 227 c 0
644 705 m 0xd040
 665 705 682 688 682 668 c 0
 682 647 665 630 644 630 c 0
 623 630 606 647 606 668 c 0
 606 688 623 705 644 705 c 0xd040
EndSplineSet
Validated: 1
EndChar

